<svg width="18" height="20" viewBox="0 0 18 20" fill="none" xmlns="http://www.w3.org/2000/svg">
<path d="M6.5 3.625C6.5 2.60938 7.32031 1.75 8.375 1.75H9.625C10.6406 1.75 11.5 2.60938 11.5 3.625V17.375C11.5 18.4297 10.6406 19.25 9.625 19.25H8.375C7.32031 19.25 6.5 18.4297 6.5 17.375V3.625ZM0.25 11.125C0.25 10.1094 1.07031 9.25 2.125 9.25H3.375C4.39062 9.25 5.25 10.1094 5.25 11.125V17.375C5.25 18.4297 4.39062 19.25 3.375 19.25H2.125C1.07031 19.25 0.25 18.4297 0.25 17.375V11.125ZM15.875 4.25C16.8906 4.25 17.75 5.10938 17.75 6.125V17.375C17.75 18.4297 16.8906 19.25 15.875 19.25H14.625C13.5703 19.25 12.75 18.4297 12.75 17.375V6.125C12.75 5.10938 13.5703 4.25 14.625 4.25H15.875Z" fill="#FFFDFD"/>
</svg>
