<svg width="30" height="40" viewBox="0 0 30 40" fill="none" xmlns="http://www.w3.org/2000/svg">
<path d="M15 27.6104C19.0796 27.6104 22.3896 24.3775 22.3896 20.2209V7.90498C22.3896 3.82533 19.0796 0.515426 15 0.515426C10.8434 0.515426 7.61045 3.82533 7.61045 7.90498V20.2209C7.61045 24.3005 10.8434 27.6104 15 27.6104ZM26.7001 15.2945C25.6225 15.2945 24.8527 16.1412 24.8527 17.1419V20.2209C24.8527 25.917 20.0803 30.4585 14.3072 30.0736C9.22691 29.7657 5.14726 24.9933 5.14726 19.836V17.1419C5.14726 16.1412 4.30055 15.2945 3.29988 15.2945C2.22223 15.2945 1.45249 16.1412 1.45249 17.1419V19.6051C1.45249 26.4558 6.30188 32.6138 13.1526 33.5375V36.2316H10.0736C8.61112 36.2316 7.53347 37.4632 7.61045 38.8487C7.61045 39.4645 8.14927 39.9264 8.84204 39.9264H21.158C21.7738 39.9264 22.3126 39.4645 22.3126 38.8487C22.3896 37.4632 21.3119 36.2316 19.9264 36.2316H16.8474V33.6914C23.3902 32.7677 28.5475 27.0716 28.5475 20.2209V17.1419C28.5475 16.1412 27.7008 15.2945 26.7001 15.2945Z" fill="#9A9A9A"/>
</svg>
