<svg width="22" height="19" viewBox="0 0 22 19" fill="none" xmlns="http://www.w3.org/2000/svg">
<path d="M0.113281 9.53906C0.113281 9.83594 0.234375 10.0977 0.476562 10.3242L8.25781 18.0938C8.48438 18.3125 8.73828 18.4219 9.01953 18.4219C9.30859 18.4219 9.55078 18.3242 9.74609 18.1289C9.94922 17.9414 10.0508 17.7031 10.0508 17.4141C10.0508 17.2734 10.0234 17.1406 9.96875 17.0156C9.92188 16.8828 9.85156 16.7695 9.75781 16.6758L7.13281 14.0039L2.49219 9.77344L2.24609 10.3477L6.01953 10.582H20.8438C21.1484 10.582 21.3945 10.4844 21.582 10.2891C21.7773 10.0938 21.875 9.84375 21.875 9.53906C21.875 9.23438 21.7773 8.98438 21.582 8.78906C21.3945 8.59375 21.1484 8.49609 20.8438 8.49609H6.01953L2.24609 8.73047L2.49219 9.31641L7.13281 5.07422L9.75781 2.40234C9.85156 2.30859 9.92188 2.19922 9.96875 2.07422C10.0234 1.94141 10.0508 1.80469 10.0508 1.66406C10.0508 1.375 9.94922 1.13672 9.74609 0.949219C9.55078 0.753906 9.30859 0.65625 9.01953 0.65625C8.87891 0.65625 8.74219 0.683594 8.60938 0.738281C8.48438 0.792969 8.35938 0.882812 8.23438 1.00781L0.476562 8.75391C0.234375 8.98047 0.113281 9.24219 0.113281 9.53906Z" fill="black"/>
</svg>
