<svg width="172" height="220" viewBox="0 0 172 220" fill="none" xmlns="http://www.w3.org/2000/svg">
<rect x="8" width="156" height="220" rx="20" fill="white"/>
<path d="M8 10C8 4.47715 12.4772 0 18 0H154C159.523 0 164 4.47715 164 10V44H8V10Z" fill="#519AEB"/>
<path d="M16.42 28L21.46 16.8H23.508L28.564 28H26.388L22.052 17.904H22.884L18.564 28H16.42ZM18.74 25.408L19.3 23.776H25.348L25.908 25.408H18.74ZM32.3583 28.112C31.6436 28.112 30.9556 28.0213 30.2943 27.84C29.6436 27.648 29.1263 27.4187 28.7423 27.152L29.5103 25.632C29.8943 25.8773 30.3529 26.08 30.8863 26.24C31.4196 26.4 31.9529 26.48 32.4863 26.48C33.1156 26.48 33.5689 26.3947 33.8463 26.224C34.1343 26.0533 34.2783 25.824 34.2783 25.536C34.2783 25.3013 34.1823 25.1253 33.9903 25.008C33.7983 24.88 33.5476 24.784 33.2383 24.72C32.9289 24.656 32.5823 24.5973 32.1983 24.544C31.8249 24.4907 31.4463 24.4213 31.0623 24.336C30.6889 24.24 30.3476 24.1067 30.0383 23.936C29.7289 23.7547 29.4783 23.5147 29.2863 23.216C29.0943 22.9173 28.9983 22.5227 28.9983 22.032C28.9983 21.488 29.1529 21.0187 29.4622 20.624C29.7716 20.2187 30.2036 19.9093 30.7582 19.696C31.3236 19.472 31.9903 19.36 32.7583 19.36C33.3343 19.36 33.9156 19.424 34.5023 19.552C35.0889 19.68 35.5743 19.8613 35.9583 20.096L35.1903 21.616C34.7849 21.3707 34.3743 21.2053 33.9583 21.12C33.5529 21.024 33.1476 20.976 32.7423 20.976C32.1343 20.976 31.6809 21.0667 31.3823 21.248C31.0943 21.4293 30.9503 21.6587 30.9503 21.936C30.9503 22.192 31.0463 22.384 31.2383 22.512C31.4303 22.64 31.6809 22.7413 31.9903 22.816C32.2996 22.8907 32.6409 22.9547 33.0143 23.008C33.3983 23.0507 33.7769 23.12 34.1503 23.216C34.5236 23.312 34.8649 23.4453 35.1743 23.616C35.4943 23.776 35.7503 24.0053 35.9423 24.304C36.1343 24.6027 36.2303 24.992 36.2303 25.472C36.2303 26.0053 36.0703 26.4693 35.7503 26.864C35.4409 27.2587 34.9983 27.568 34.4223 27.792C33.8463 28.0053 33.1583 28.112 32.3583 28.112ZM40.5926 28.112C39.878 28.112 39.19 28.0213 38.5286 27.84C37.878 27.648 37.3606 27.4187 36.9766 27.152L37.7446 25.632C38.1286 25.8773 38.5873 26.08 39.1206 26.24C39.654 26.4 40.1873 26.48 40.7206 26.48C41.35 26.48 41.8033 26.3947 42.0806 26.224C42.3686 26.0533 42.5126 25.824 42.5126 25.536C42.5126 25.3013 42.4166 25.1253 42.2246 25.008C42.0326 24.88 41.782 24.784 41.4726 24.72C41.1633 24.656 40.8166 24.5973 40.4326 24.544C40.0593 24.4907 39.6806 24.4213 39.2966 24.336C38.9233 24.24 38.582 24.1067 38.2726 23.936C37.9633 23.7547 37.7126 23.5147 37.5206 23.216C37.3286 22.9173 37.2326 22.5227 37.2326 22.032C37.2326 21.488 37.3873 21.0187 37.6966 20.624C38.006 20.2187 38.438 19.9093 38.9926 19.696C39.558 19.472 40.2246 19.36 40.9926 19.36C41.5686 19.36 42.15 19.424 42.7366 19.552C43.3233 19.68 43.8086 19.8613 44.1926 20.096L43.4246 21.616C43.0193 21.3707 42.6086 21.2053 42.1926 21.12C41.7873 21.024 41.382 20.976 40.9766 20.976C40.3686 20.976 39.9153 21.0667 39.6166 21.248C39.3286 21.4293 39.1846 21.6587 39.1846 21.936C39.1846 22.192 39.2806 22.384 39.4726 22.512C39.6646 22.64 39.9153 22.7413 40.2246 22.816C40.534 22.8907 40.8753 22.9547 41.2486 23.008C41.6326 23.0507 42.0113 23.12 42.3846 23.216C42.758 23.312 43.0993 23.4453 43.4086 23.616C43.7286 23.776 43.9846 24.0053 44.1766 24.304C44.3686 24.6027 44.4646 24.992 44.4646 25.472C44.4646 26.0053 44.3046 26.4693 43.9846 26.864C43.6753 27.2587 43.2326 27.568 42.6566 27.792C42.0806 28.0053 41.3926 28.112 40.5926 28.112ZM46.187 28V19.456H48.187V28H46.187ZM47.195 18.048C46.8217 18.048 46.5123 17.9307 46.267 17.696C46.0323 17.4613 45.915 17.1787 45.915 16.848C45.915 16.5067 46.0323 16.224 46.267 16C46.5123 15.7653 46.8217 15.648 47.195 15.648C47.5683 15.648 47.8723 15.76 48.107 15.984C48.3523 16.1973 48.475 16.4693 48.475 16.8C48.475 17.152 48.3577 17.4507 48.123 17.696C47.8883 17.9307 47.579 18.048 47.195 18.048ZM54.684 31.216C53.8947 31.216 53.1213 31.1093 52.364 30.896C51.6173 30.6933 51.004 30.3947 50.524 30L51.42 28.496C51.7933 28.8053 52.2627 29.0507 52.828 29.232C53.404 29.424 53.9853 29.52 54.572 29.52C55.5107 29.52 56.1987 29.3013 56.636 28.864C57.0733 28.4373 57.292 27.792 57.292 26.928V25.408L57.452 23.472L57.388 21.536V19.456H59.292V26.704C59.292 28.2507 58.8973 29.3867 58.108 30.112C57.3187 30.848 56.1773 31.216 54.684 31.216ZM54.428 27.616C53.6173 27.616 52.8813 27.4453 52.22 27.104C51.5693 26.752 51.052 26.2667 50.668 25.648C50.2947 25.0293 50.108 24.304 50.108 23.472C50.108 22.6507 50.2947 21.9307 50.668 21.312C51.052 20.6933 51.5693 20.2133 52.22 19.872C52.8813 19.5307 53.6173 19.36 54.428 19.36C55.1533 19.36 55.804 19.504 56.38 19.792C56.956 20.08 57.4147 20.528 57.756 21.136C58.108 21.744 58.284 22.5227 58.284 23.472C58.284 24.4213 58.108 25.2053 57.756 25.824C57.4147 26.432 56.956 26.8853 56.38 27.184C55.804 27.472 55.1533 27.616 54.428 27.616ZM54.732 25.92C55.2333 25.92 55.6813 25.8187 56.076 25.616C56.4707 25.4027 56.7747 25.1147 56.988 24.752C57.212 24.3787 57.324 23.952 57.324 23.472C57.324 22.992 57.212 22.5707 56.988 22.208C56.7747 21.8347 56.4707 21.552 56.076 21.36C55.6813 21.1573 55.2333 21.056 54.732 21.056C54.2307 21.056 53.7773 21.1573 53.372 21.36C52.9773 21.552 52.668 21.8347 52.444 22.208C52.2307 22.5707 52.124 22.992 52.124 23.472C52.124 23.952 52.2307 24.3787 52.444 24.752C52.668 25.1147 52.9773 25.4027 53.372 25.616C53.7773 25.8187 54.2307 25.92 54.732 25.92ZM66.7694 19.36C67.452 19.36 68.06 19.4933 68.5934 19.76C69.1374 20.0267 69.564 20.4373 69.8734 20.992C70.1827 21.536 70.3374 22.24 70.3374 23.104V28H68.3374V23.36C68.3374 22.6027 68.156 22.0373 67.7934 21.664C67.4414 21.2907 66.9454 21.104 66.3054 21.104C65.836 21.104 65.42 21.2 65.0574 21.392C64.6947 21.584 64.412 21.872 64.2094 22.256C64.0174 22.6293 63.9214 23.104 63.9214 23.68V28H61.9214V19.456H63.8254V21.76L63.4894 21.056C63.788 20.512 64.22 20.096 64.7854 19.808C65.3614 19.5093 66.0227 19.36 66.7694 19.36ZM77.4884 28V16.8H82.0964C83.0884 16.8 83.9364 16.96 84.6404 17.28C85.355 17.6 85.9044 18.0587 86.2884 18.656C86.6724 19.2533 86.8644 19.9627 86.8644 20.784C86.8644 21.6053 86.6724 22.3147 86.2884 22.912C85.9044 23.5093 85.355 23.968 84.6404 24.288C83.9364 24.608 83.0884 24.768 82.0964 24.768H78.6404L79.5684 23.792V28H77.4884ZM79.5684 24.016L78.6404 23.008H82.0004C82.9177 23.008 83.6057 22.816 84.0644 22.432C84.5337 22.0373 84.7684 21.488 84.7684 20.784C84.7684 20.0693 84.5337 19.52 84.0644 19.136C83.6057 18.752 82.9177 18.56 82.0004 18.56H78.6404L79.5684 17.536V24.016ZM88.6714 28V19.456H90.5754V21.808L90.3514 21.12C90.6074 20.544 91.0074 20.1067 91.5514 19.808C92.106 19.5093 92.794 19.36 93.6154 19.36V21.264C93.53 21.2427 93.45 21.232 93.3754 21.232C93.3007 21.2213 93.226 21.216 93.1514 21.216C92.394 21.216 91.7914 21.44 91.3434 21.888C90.8954 22.3253 90.6714 22.9813 90.6714 23.856V28H88.6714ZM95.312 28V19.456H97.312V28H95.312ZM96.32 18.048C95.9467 18.048 95.6373 17.9307 95.392 17.696C95.1573 17.4613 95.04 17.1787 95.04 16.848C95.04 16.5067 95.1573 16.224 95.392 16C95.6373 15.7653 95.9467 15.648 96.32 15.648C96.6933 15.648 96.9973 15.76 97.232 15.984C97.4773 16.1973 97.6 16.4693 97.6 16.8C97.6 17.152 97.4827 17.4507 97.248 17.696C97.0133 17.9307 96.704 18.048 96.32 18.048ZM103.777 28.112C102.902 28.112 102.124 27.9253 101.441 27.552C100.758 27.168 100.22 26.6453 99.825 25.984C99.4303 25.3227 99.233 24.5707 99.233 23.728C99.233 22.8747 99.4303 22.1227 99.825 21.472C100.22 20.8107 100.758 20.2933 101.441 19.92C102.124 19.5467 102.902 19.36 103.777 19.36C104.662 19.36 105.446 19.5467 106.129 19.92C106.822 20.2933 107.361 20.8053 107.745 21.456C108.14 22.1067 108.337 22.864 108.337 23.728C108.337 24.5707 108.14 25.3227 107.745 25.984C107.361 26.6453 106.822 27.168 106.129 27.552C105.446 27.9253 104.662 28.112 103.777 28.112ZM103.777 26.4C104.268 26.4 104.705 26.2933 105.089 26.08C105.473 25.8667 105.772 25.5573 105.985 25.152C106.209 24.7467 106.321 24.272 106.321 23.728C106.321 23.1733 106.209 22.6987 105.985 22.304C105.772 21.8987 105.473 21.5893 105.089 21.376C104.705 21.1627 104.273 21.056 103.793 21.056C103.302 21.056 102.865 21.1627 102.481 21.376C102.108 21.5893 101.809 21.8987 101.585 22.304C101.361 22.6987 101.249 23.1733 101.249 23.728C101.249 24.272 101.361 24.7467 101.585 25.152C101.809 25.5573 102.108 25.8667 102.481 26.08C102.865 26.2933 103.297 26.4 103.777 26.4ZM110.25 28V19.456H112.154V21.808L111.93 21.12C112.186 20.544 112.586 20.1067 113.13 19.808C113.684 19.5093 114.372 19.36 115.194 19.36V21.264C115.108 21.2427 115.028 21.232 114.954 21.232C114.879 21.2213 114.804 21.216 114.73 21.216C113.972 21.216 113.37 21.44 112.922 21.888C112.474 22.3253 112.25 22.9813 112.25 23.856V28H110.25ZM116.89 28V19.456H118.89V28H116.89ZM117.898 18.048C117.525 18.048 117.215 17.9307 116.97 17.696C116.735 17.4613 116.618 17.1787 116.618 16.848C116.618 16.5067 116.735 16.224 116.97 16C117.215 15.7653 117.525 15.648 117.898 15.648C118.271 15.648 118.575 15.76 118.81 15.984C119.055 16.1973 119.178 16.4693 119.178 16.8C119.178 17.152 119.061 17.4507 118.826 17.696C118.591 17.9307 118.282 18.048 117.898 18.048ZM124.731 28.112C123.792 28.112 123.067 27.872 122.555 27.392C122.043 26.9013 121.787 26.1813 121.787 25.232V17.568H123.787V25.184C123.787 25.5893 123.888 25.904 124.091 26.128C124.304 26.352 124.598 26.464 124.971 26.464C125.419 26.464 125.792 26.3467 126.091 26.112L126.651 27.536C126.416 27.728 126.128 27.872 125.787 27.968C125.446 28.064 125.094 28.112 124.731 28.112ZM120.379 21.12V19.52H126.075V21.12H120.379ZM128.844 31.216C128.428 31.216 128.012 31.1467 127.596 31.008C127.18 30.8693 126.833 30.6773 126.556 30.432L127.356 28.96C127.559 29.1413 127.788 29.2853 128.044 29.392C128.3 29.4987 128.561 29.552 128.828 29.552C129.191 29.552 129.484 29.4613 129.708 29.28C129.932 29.0987 130.14 28.7947 130.332 28.368L130.828 27.248L130.988 27.008L134.22 19.456H136.14L132.14 28.688C131.873 29.328 131.575 29.8347 131.244 30.208C130.924 30.5813 130.561 30.8427 130.156 30.992C129.761 31.1413 129.324 31.216 128.844 31.216ZM130.604 28.304L126.748 19.456H128.828L131.964 26.832L130.604 28.304Z" fill="white"/>
<path d="M151 18.5C151.211 18.5 151.398 18.5703 151.539 18.7109L155.289 22.4609C155.594 22.7422 155.594 23.2344 155.289 23.5156C155.008 23.8203 154.516 23.8203 154.234 23.5156L151 20.3047L147.789 23.5156C147.508 23.8203 147.016 23.8203 146.734 23.5156C146.43 23.2344 146.43 22.7422 146.734 22.4609L150.484 18.7109C150.625 18.5703 150.812 18.5 151 18.5Z" fill="#FFFDFD"/>
<g filter="url(#filter0_d_3802_5414)">
<rect width="156" height="44" transform="translate(8 44)" fill="#F5F5F5"/>
<path d="M27.376 60.8H29.456V72H27.376V60.8ZM21.584 72H19.504V60.8H21.584V72ZM27.536 67.2H21.408V65.424H27.536V67.2ZM32.2651 72V63.456H34.2651V72H32.2651ZM33.2731 62.048C32.8998 62.048 32.5905 61.9307 32.3451 61.696C32.1105 61.4613 31.9931 61.1787 31.9931 60.848C31.9931 60.5067 32.1105 60.224 32.3451 60C32.5905 59.7653 32.8998 59.648 33.2731 59.648C33.6465 59.648 33.9505 59.76 34.1851 59.984C34.4305 60.1973 34.5531 60.4693 34.5531 60.8C34.5531 61.152 34.4358 61.4507 34.2011 61.696C33.9665 61.9307 33.6571 62.048 33.2731 62.048ZM40.7621 75.216C39.9728 75.216 39.1995 75.1093 38.4421 74.896C37.6955 74.6933 37.0821 74.3947 36.6021 74L37.4981 72.496C37.8715 72.8053 38.3408 73.0507 38.9061 73.232C39.4821 73.424 40.0635 73.52 40.6501 73.52C41.5888 73.52 42.2768 73.3013 42.7141 72.864C43.1515 72.4373 43.3701 71.792 43.3701 70.928V69.408L43.5301 67.472L43.4661 65.536V63.456H45.3701V70.704C45.3701 72.2507 44.9755 73.3867 44.1861 74.112C43.3968 74.848 42.2555 75.216 40.7621 75.216ZM40.5061 71.616C39.6955 71.616 38.9595 71.4453 38.2981 71.104C37.6475 70.752 37.1301 70.2667 36.7461 69.648C36.3728 69.0293 36.1861 68.304 36.1861 67.472C36.1861 66.6507 36.3728 65.9307 36.7461 65.312C37.1301 64.6933 37.6475 64.2133 38.2981 63.872C38.9595 63.5307 39.6955 63.36 40.5061 63.36C41.2315 63.36 41.8821 63.504 42.4581 63.792C43.0341 64.08 43.4928 64.528 43.8341 65.136C44.1861 65.744 44.3621 66.5227 44.3621 67.472C44.3621 68.4213 44.1861 69.2053 43.8341 69.824C43.4928 70.432 43.0341 70.8853 42.4581 71.184C41.8821 71.472 41.2315 71.616 40.5061 71.616ZM40.8101 69.92C41.3115 69.92 41.7595 69.8187 42.1541 69.616C42.5488 69.4027 42.8528 69.1147 43.0661 68.752C43.2901 68.3787 43.4021 67.952 43.4021 67.472C43.4021 66.992 43.2901 66.5707 43.0661 66.208C42.8528 65.8347 42.5488 65.552 42.1541 65.36C41.7595 65.1573 41.3115 65.056 40.8101 65.056C40.3088 65.056 39.8555 65.1573 39.4501 65.36C39.0555 65.552 38.7461 65.8347 38.5221 66.208C38.3088 66.5707 38.2021 66.992 38.2021 67.472C38.2021 67.952 38.3088 68.3787 38.5221 68.752C38.7461 69.1147 39.0555 69.4027 39.4501 69.616C39.8555 69.8187 40.3088 69.92 40.8101 69.92ZM52.8475 63.36C53.5302 63.36 54.1382 63.4933 54.6715 63.76C55.2155 64.0267 55.6422 64.4373 55.9515 64.992C56.2608 65.536 56.4155 66.24 56.4155 67.104V72H54.4155V67.36C54.4155 66.6027 54.2342 66.0373 53.8715 65.664C53.5195 65.2907 53.0235 65.104 52.3835 65.104C51.9142 65.104 51.4982 65.2 51.1355 65.392C50.7728 65.584 50.4902 65.872 50.2875 66.256C50.0955 66.6293 49.9995 67.104 49.9995 67.68V72H47.9995V60.128H49.9995V65.76L49.5675 65.056C49.8662 64.512 50.2982 64.096 50.8635 63.808C51.4395 63.5093 52.1008 63.36 52.8475 63.36ZM63.5665 72V60.8H68.1745C69.1665 60.8 70.0145 60.96 70.7185 61.28C71.4332 61.6 71.9825 62.0587 72.3665 62.656C72.7505 63.2533 72.9425 63.9627 72.9425 64.784C72.9425 65.6053 72.7505 66.3147 72.3665 66.912C71.9825 67.5093 71.4332 67.968 70.7185 68.288C70.0145 68.608 69.1665 68.768 68.1745 68.768H64.7185L65.6465 67.792V72H63.5665ZM65.6465 68.016L64.7185 67.008H68.0785C68.9958 67.008 69.6838 66.816 70.1425 66.432C70.6118 66.0373 70.8465 65.488 70.8465 64.784C70.8465 64.0693 70.6118 63.52 70.1425 63.136C69.6838 62.752 68.9958 62.56 68.0785 62.56H64.7185L65.6465 61.536V68.016ZM74.7495 72V63.456H76.6535V65.808L76.4295 65.12C76.6855 64.544 77.0855 64.1067 77.6295 63.808C78.1842 63.5093 78.8722 63.36 79.6935 63.36V65.264C79.6082 65.2427 79.5282 65.232 79.4535 65.232C79.3788 65.2213 79.3042 65.216 79.2295 65.216C78.4722 65.216 77.8695 65.44 77.4215 65.888C76.9735 66.3253 76.7495 66.9813 76.7495 67.856V72H74.7495ZM81.3901 72V63.456H83.3901V72H81.3901ZM82.3981 62.048C82.0248 62.048 81.7155 61.9307 81.4701 61.696C81.2355 61.4613 81.1181 61.1787 81.1181 60.848C81.1181 60.5067 81.2355 60.224 81.4701 60C81.7155 59.7653 82.0248 59.648 82.3981 59.648C82.7715 59.648 83.0755 59.76 83.3101 59.984C83.5555 60.1973 83.6781 60.4693 83.6781 60.8C83.6781 61.152 83.5608 61.4507 83.3261 61.696C83.0915 61.9307 82.7821 62.048 82.3981 62.048ZM89.8551 72.112C88.9805 72.112 88.2018 71.9253 87.5191 71.552C86.8365 71.168 86.2978 70.6453 85.9031 69.984C85.5085 69.3227 85.3111 68.5707 85.3111 67.728C85.3111 66.8747 85.5085 66.1227 85.9031 65.472C86.2978 64.8107 86.8365 64.2933 87.5191 63.92C88.2018 63.5467 88.9805 63.36 89.8551 63.36C90.7405 63.36 91.5245 63.5467 92.2071 63.92C92.9005 64.2933 93.4391 64.8053 93.8231 65.456C94.2178 66.1067 94.4151 66.864 94.4151 67.728C94.4151 68.5707 94.2178 69.3227 93.8231 69.984C93.4391 70.6453 92.9005 71.168 92.2071 71.552C91.5245 71.9253 90.7405 72.112 89.8551 72.112ZM89.8551 70.4C90.3458 70.4 90.7831 70.2933 91.1671 70.08C91.5511 69.8667 91.8498 69.5573 92.0631 69.152C92.2871 68.7467 92.3991 68.272 92.3991 67.728C92.3991 67.1733 92.2871 66.6987 92.0631 66.304C91.8498 65.8987 91.5511 65.5893 91.1671 65.376C90.7831 65.1627 90.3511 65.056 89.8711 65.056C89.3805 65.056 88.9431 65.1627 88.5591 65.376C88.1858 65.5893 87.8871 65.8987 87.6631 66.304C87.4391 66.6987 87.3271 67.1733 87.3271 67.728C87.3271 68.272 87.4391 68.7467 87.6631 69.152C87.8871 69.5573 88.1858 69.8667 88.5591 70.08C88.9431 70.2933 89.3751 70.4 89.8551 70.4ZM96.3276 72V63.456H98.2316V65.808L98.0076 65.12C98.2636 64.544 98.6636 64.1067 99.2076 63.808C99.7623 63.5093 100.45 63.36 101.272 63.36V65.264C101.186 65.2427 101.106 65.232 101.032 65.232C100.957 65.2213 100.882 65.216 100.808 65.216C100.05 65.216 99.4476 65.44 98.9996 65.888C98.5516 66.3253 98.3276 66.9813 98.3276 67.856V72H96.3276ZM102.968 72V63.456H104.968V72H102.968ZM103.976 62.048C103.603 62.048 103.294 61.9307 103.048 61.696C102.814 61.4613 102.696 61.1787 102.696 60.848C102.696 60.5067 102.814 60.224 103.048 60C103.294 59.7653 103.603 59.648 103.976 59.648C104.35 59.648 104.654 59.76 104.888 59.984C105.134 60.1973 105.256 60.4693 105.256 60.8C105.256 61.152 105.139 61.4507 104.904 61.696C104.67 61.9307 104.36 62.048 103.976 62.048ZM110.809 72.112C109.871 72.112 109.145 71.872 108.633 71.392C108.121 70.9013 107.865 70.1813 107.865 69.232V61.568H109.865V69.184C109.865 69.5893 109.967 69.904 110.169 70.128C110.383 70.352 110.676 70.464 111.049 70.464C111.497 70.464 111.871 70.3467 112.169 70.112L112.729 71.536C112.495 71.728 112.207 71.872 111.865 71.968C111.524 72.064 111.172 72.112 110.809 72.112ZM106.457 65.12V63.52H112.153V65.12H106.457ZM114.922 75.216C114.506 75.216 114.09 75.1467 113.674 75.008C113.258 74.8693 112.912 74.6773 112.634 74.432L113.434 72.96C113.637 73.1413 113.866 73.2853 114.122 73.392C114.378 73.4987 114.64 73.552 114.906 73.552C115.269 73.552 115.562 73.4613 115.786 73.28C116.01 73.0987 116.218 72.7947 116.41 72.368L116.906 71.248L117.066 71.008L120.298 63.456H122.218L118.218 72.688C117.952 73.328 117.653 73.8347 117.322 74.208C117.002 74.5813 116.64 74.8427 116.234 74.992C115.84 75.1413 115.402 75.216 114.922 75.216ZM116.682 72.304L112.826 63.456H114.906L118.042 70.832L116.682 72.304Z" fill="black"/>
</g>
<g filter="url(#filter1_d_3802_5414)">
<rect width="156" height="44" transform="translate(8 88)" fill="#F5F5F5"/>
<path d="M19.504 116V104.8H21.216L26.112 112.976H25.216L30.032 104.8H31.744L31.76 116H29.792L29.776 107.888H30.192L26.096 114.72H25.168L21.008 107.888H21.488V116H19.504ZM38.6093 116.112C37.6599 116.112 36.8279 115.925 36.1133 115.552C35.4093 115.168 34.8599 114.645 34.4653 113.984C34.0813 113.323 33.8893 112.571 33.8893 111.728C33.8893 110.875 34.0759 110.123 34.4493 109.472C34.8333 108.811 35.3559 108.293 36.0173 107.92C36.6893 107.547 37.4519 107.36 38.3053 107.36C39.1373 107.36 39.8786 107.541 40.5293 107.904C41.1799 108.267 41.6919 108.779 42.0653 109.44C42.4386 110.101 42.6253 110.88 42.6253 111.776C42.6253 111.861 42.6199 111.957 42.6093 112.064C42.6093 112.171 42.6039 112.272 42.5933 112.368H35.4733V111.04H41.5373L40.7533 111.456C40.7639 110.965 40.6626 110.533 40.4493 110.16C40.2359 109.787 39.9426 109.493 39.5693 109.28C39.2066 109.067 38.7853 108.96 38.3053 108.96C37.8146 108.96 37.3826 109.067 37.0093 109.28C36.6466 109.493 36.3586 109.792 36.1453 110.176C35.9426 110.549 35.8413 110.992 35.8413 111.504V111.824C35.8413 112.336 35.9586 112.789 36.1933 113.184C36.4279 113.579 36.7586 113.883 37.1853 114.096C37.6119 114.309 38.1026 114.416 38.6573 114.416C39.1373 114.416 39.5693 114.341 39.9533 114.192C40.3373 114.043 40.6786 113.808 40.9773 113.488L42.0493 114.72C41.6653 115.168 41.1799 115.515 40.5933 115.76C40.0173 115.995 39.3559 116.112 38.6093 116.112ZM48.1624 116.112C47.341 116.112 46.5997 115.931 45.9384 115.568C45.2877 115.195 44.7757 114.683 44.4024 114.032C44.029 113.381 43.8424 112.613 43.8424 111.728C43.8424 110.843 44.029 110.075 44.4024 109.424C44.7757 108.773 45.2877 108.267 45.9384 107.904C46.5997 107.541 47.341 107.36 48.1624 107.36C48.877 107.36 49.517 107.52 50.0824 107.84C50.6477 108.149 51.0957 108.624 51.4264 109.264C51.757 109.904 51.9224 110.725 51.9224 111.728C51.9224 112.72 51.7624 113.541 51.4424 114.192C51.1224 114.832 50.6797 115.312 50.1144 115.632C49.549 115.952 48.8984 116.112 48.1624 116.112ZM48.4024 114.4C48.8824 114.4 49.309 114.293 49.6824 114.08C50.0664 113.867 50.3704 113.557 50.5944 113.152C50.829 112.747 50.9464 112.272 50.9464 111.728C50.9464 111.173 50.829 110.699 50.5944 110.304C50.3704 109.899 50.0664 109.589 49.6824 109.376C49.309 109.163 48.8824 109.056 48.4024 109.056C47.9224 109.056 47.4904 109.163 47.1064 109.376C46.733 109.589 46.429 109.899 46.1944 110.304C45.9704 110.699 45.8584 111.173 45.8584 111.728C45.8584 112.272 45.9704 112.747 46.1944 113.152C46.429 113.557 46.733 113.867 47.1064 114.08C47.4904 114.293 47.9224 114.4 48.4024 114.4ZM50.9944 116V113.984L51.0744 111.712L50.9144 109.44V104.128H52.8984V116H50.9944ZM55.5308 116V107.456H57.5308V116H55.5308ZM56.5388 106.048C56.1654 106.048 55.8561 105.931 55.6108 105.696C55.3761 105.461 55.2588 105.179 55.2588 104.848C55.2588 104.507 55.3761 104.224 55.6108 104C55.8561 103.765 56.1654 103.648 56.5388 103.648C56.9121 103.648 57.2161 103.76 57.4508 103.984C57.6961 104.197 57.8188 104.469 57.8188 104.8C57.8188 105.152 57.7014 105.451 57.4668 105.696C57.2321 105.931 56.9228 106.048 56.5388 106.048ZM63.7718 116.112C63.0464 116.112 62.4064 115.979 61.8518 115.712C61.2971 115.435 60.8651 115.019 60.5558 114.464C60.2464 113.899 60.0918 113.189 60.0918 112.336V107.456H62.0918V112.064C62.0918 112.832 62.2624 113.408 62.6038 113.792C62.9558 114.165 63.4518 114.352 64.0918 114.352C64.5611 114.352 64.9664 114.256 65.3078 114.064C65.6598 113.872 65.9318 113.584 66.1238 113.2C66.3264 112.816 66.4278 112.341 66.4278 111.776V107.456H68.4278V116H66.5238V113.696L66.8598 114.4C66.5718 114.955 66.1504 115.381 65.5958 115.68C65.0411 115.968 64.4331 116.112 63.7718 116.112ZM81.8304 107.36C82.513 107.36 83.1157 107.493 83.6384 107.76C84.1717 108.027 84.5877 108.437 84.8864 108.992C85.185 109.536 85.3344 110.24 85.3344 111.104V116H83.3344V111.36C83.3344 110.603 83.169 110.037 82.8384 109.664C82.5077 109.291 82.033 109.104 81.4144 109.104C80.977 109.104 80.5877 109.2 80.2464 109.392C79.9157 109.584 79.6544 109.867 79.4624 110.24C79.281 110.613 79.1904 111.088 79.1904 111.664V116H77.1904V111.36C77.1904 110.603 77.025 110.037 76.6944 109.664C76.3637 109.291 75.889 109.104 75.2704 109.104C74.833 109.104 74.4437 109.2 74.1024 109.392C73.7717 109.584 73.5104 109.867 73.3184 110.24C73.137 110.613 73.0464 111.088 73.0464 111.664V116H71.0464V107.456H72.9504V109.728L72.6144 109.056C72.9024 108.501 73.3184 108.08 73.8624 107.792C74.417 107.504 75.0464 107.36 75.7504 107.36C76.5504 107.36 77.2437 107.557 77.8304 107.952C78.4277 108.347 78.8224 108.944 79.0144 109.744L78.2304 109.472C78.5077 108.832 78.9664 108.32 79.6064 107.936C80.2464 107.552 80.9877 107.36 81.8304 107.36ZM92.504 116V104.8H97.112C98.104 104.8 98.952 104.96 99.656 105.28C100.371 105.6 100.92 106.059 101.304 106.656C101.688 107.253 101.88 107.963 101.88 108.784C101.88 109.605 101.688 110.315 101.304 110.912C100.92 111.509 100.371 111.968 99.656 112.288C98.952 112.608 98.104 112.768 97.112 112.768H93.656L94.584 111.792V116H92.504ZM94.584 112.016L93.656 111.008H97.016C97.9333 111.008 98.6213 110.816 99.08 110.432C99.5493 110.037 99.784 109.488 99.784 108.784C99.784 108.069 99.5493 107.52 99.08 107.136C98.6213 106.752 97.9333 106.56 97.016 106.56H93.656L94.584 105.536V112.016ZM103.687 116V107.456H105.591V109.808L105.367 109.12C105.623 108.544 106.023 108.107 106.567 107.808C107.122 107.509 107.81 107.36 108.631 107.36V109.264C108.546 109.243 108.466 109.232 108.391 109.232C108.316 109.221 108.242 109.216 108.167 109.216C107.41 109.216 106.807 109.44 106.359 109.888C105.911 110.325 105.687 110.981 105.687 111.856V116H103.687ZM110.328 116V107.456H112.328V116H110.328ZM111.336 106.048C110.962 106.048 110.653 105.931 110.408 105.696C110.173 105.461 110.056 105.179 110.056 104.848C110.056 104.507 110.173 104.224 110.408 104C110.653 103.765 110.962 103.648 111.336 103.648C111.709 103.648 112.013 103.76 112.248 103.984C112.493 104.197 112.616 104.469 112.616 104.8C112.616 105.152 112.498 105.451 112.264 105.696C112.029 105.931 111.72 106.048 111.336 106.048ZM118.793 116.112C117.918 116.112 117.139 115.925 116.457 115.552C115.774 115.168 115.235 114.645 114.841 113.984C114.446 113.323 114.249 112.571 114.249 111.728C114.249 110.875 114.446 110.123 114.841 109.472C115.235 108.811 115.774 108.293 116.457 107.92C117.139 107.547 117.918 107.36 118.793 107.36C119.678 107.36 120.462 107.547 121.145 107.92C121.838 108.293 122.377 108.805 122.761 109.456C123.155 110.107 123.353 110.864 123.353 111.728C123.353 112.571 123.155 113.323 122.761 113.984C122.377 114.645 121.838 115.168 121.145 115.552C120.462 115.925 119.678 116.112 118.793 116.112ZM118.793 114.4C119.283 114.4 119.721 114.293 120.105 114.08C120.489 113.867 120.787 113.557 121.001 113.152C121.225 112.747 121.337 112.272 121.337 111.728C121.337 111.173 121.225 110.699 121.001 110.304C120.787 109.899 120.489 109.589 120.105 109.376C119.721 109.163 119.289 109.056 118.809 109.056C118.318 109.056 117.881 109.163 117.497 109.376C117.123 109.589 116.825 109.899 116.601 110.304C116.377 110.699 116.265 111.173 116.265 111.728C116.265 112.272 116.377 112.747 116.601 113.152C116.825 113.557 117.123 113.867 117.497 114.08C117.881 114.293 118.313 114.4 118.793 114.4ZM125.265 116V107.456H127.169V109.808L126.945 109.12C127.201 108.544 127.601 108.107 128.145 107.808C128.7 107.509 129.388 107.36 130.209 107.36V109.264C130.124 109.243 130.044 109.232 129.969 109.232C129.894 109.221 129.82 109.216 129.745 109.216C128.988 109.216 128.385 109.44 127.937 109.888C127.489 110.325 127.265 110.981 127.265 111.856V116H125.265ZM131.906 116V107.456H133.906V116H131.906ZM132.914 106.048C132.54 106.048 132.231 105.931 131.986 105.696C131.751 105.461 131.634 105.179 131.634 104.848C131.634 104.507 131.751 104.224 131.986 104C132.231 103.765 132.54 103.648 132.914 103.648C133.287 103.648 133.591 103.76 133.826 103.984C134.071 104.197 134.194 104.469 134.194 104.8C134.194 105.152 134.076 105.451 133.842 105.696C133.607 105.931 133.298 106.048 132.914 106.048ZM139.747 116.112C138.808 116.112 138.083 115.872 137.571 115.392C137.059 114.901 136.803 114.181 136.803 113.232V105.568H138.803V113.184C138.803 113.589 138.904 113.904 139.107 114.128C139.32 114.352 139.613 114.464 139.987 114.464C140.435 114.464 140.808 114.347 141.107 114.112L141.667 115.536C141.432 115.728 141.144 115.872 140.803 115.968C140.461 116.064 140.109 116.112 139.747 116.112ZM135.395 109.12V107.52H141.091V109.12H135.395ZM143.86 119.216C143.444 119.216 143.028 119.147 142.612 119.008C142.196 118.869 141.849 118.677 141.572 118.432L142.372 116.96C142.574 117.141 142.804 117.285 143.06 117.392C143.316 117.499 143.577 117.552 143.844 117.552C144.206 117.552 144.5 117.461 144.724 117.28C144.948 117.099 145.156 116.795 145.348 116.368L145.844 115.248L146.004 115.008L149.236 107.456H151.156L147.156 116.688C146.889 117.328 146.59 117.835 146.26 118.208C145.94 118.581 145.577 118.843 145.172 118.992C144.777 119.141 144.34 119.216 143.86 119.216ZM145.62 116.304L141.764 107.456H143.844L146.98 114.832L145.62 116.304Z" fill="black"/>
</g>
<g filter="url(#filter2_d_3802_5414)">
<rect width="156" height="44" transform="translate(8 132)" fill="#F5F5F5"/>
<path d="M19.504 160V148.8H21.584V158.24H27.44V160H19.504ZM32.652 160.112C31.7773 160.112 30.9987 159.925 30.316 159.552C29.6333 159.168 29.0947 158.645 28.7 157.984C28.3053 157.323 28.108 156.571 28.108 155.728C28.108 154.875 28.3053 154.123 28.7 153.472C29.0947 152.811 29.6333 152.293 30.316 151.92C30.9987 151.547 31.7773 151.36 32.652 151.36C33.5373 151.36 34.3213 151.547 35.004 151.92C35.6973 152.293 36.236 152.805 36.62 153.456C37.0147 154.107 37.212 154.864 37.212 155.728C37.212 156.571 37.0147 157.323 36.62 157.984C36.236 158.645 35.6973 159.168 35.004 159.552C34.3213 159.925 33.5373 160.112 32.652 160.112ZM32.652 158.4C33.1427 158.4 33.58 158.293 33.964 158.08C34.348 157.867 34.6467 157.557 34.86 157.152C35.084 156.747 35.196 156.272 35.196 155.728C35.196 155.173 35.084 154.699 34.86 154.304C34.6467 153.899 34.348 153.589 33.964 153.376C33.58 153.163 33.148 153.056 32.668 153.056C32.1773 153.056 31.74 153.163 31.356 153.376C30.9827 153.589 30.684 153.899 30.46 154.304C30.236 154.699 30.124 155.173 30.124 155.728C30.124 156.272 30.236 156.747 30.46 157.152C30.684 157.557 30.9827 157.867 31.356 158.08C31.74 158.293 32.172 158.4 32.652 158.4ZM40.7781 160L37.6421 151.456H39.5301L42.2181 158.992H41.3221L44.1381 151.456H45.8181L48.5541 158.992H47.6741L50.4421 151.456H52.2181L49.0661 160H47.1461L44.6501 153.328H45.2421L42.6981 160H40.7781ZM58.2071 160V148.8H62.8151C63.8071 148.8 64.6551 148.96 65.3591 149.28C66.0738 149.6 66.6231 150.059 67.0071 150.656C67.3911 151.253 67.5831 151.963 67.5831 152.784C67.5831 153.605 67.3911 154.315 67.0071 154.912C66.6231 155.509 66.0738 155.968 65.3591 156.288C64.6551 156.608 63.8071 156.768 62.8151 156.768H59.3591L60.2871 155.792V160H58.2071ZM60.2871 156.016L59.3591 155.008H62.7191C63.6365 155.008 64.3245 154.816 64.7831 154.432C65.2525 154.037 65.4871 153.488 65.4871 152.784C65.4871 152.069 65.2525 151.52 64.7831 151.136C64.3245 150.752 63.6365 150.56 62.7191 150.56H59.3591L60.2871 149.536V156.016ZM69.3901 160V151.456H71.2941V153.808L71.0701 153.12C71.3261 152.544 71.7261 152.107 72.2701 151.808C72.8248 151.509 73.5128 151.36 74.3341 151.36V153.264C74.2488 153.243 74.1688 153.232 74.0941 153.232C74.0195 153.221 73.9448 153.216 73.8701 153.216C73.1128 153.216 72.5101 153.44 72.0621 153.888C71.6141 154.325 71.3901 154.981 71.3901 155.856V160H69.3901ZM76.0308 160V151.456H78.0308V160H76.0308ZM77.0388 150.048C76.6654 150.048 76.3561 149.931 76.1108 149.696C75.8761 149.461 75.7588 149.179 75.7588 148.848C75.7588 148.507 75.8761 148.224 76.1108 148C76.3561 147.765 76.6654 147.648 77.0388 147.648C77.4121 147.648 77.7161 147.76 77.9508 147.984C78.1961 148.197 78.3188 148.469 78.3188 148.8C78.3188 149.152 78.2014 149.451 77.9668 149.696C77.7321 149.931 77.4228 150.048 77.0388 150.048ZM84.4958 160.112C83.6211 160.112 82.8424 159.925 82.1598 159.552C81.4771 159.168 80.9384 158.645 80.5438 157.984C80.1491 157.323 79.9518 156.571 79.9518 155.728C79.9518 154.875 80.1491 154.123 80.5438 153.472C80.9384 152.811 81.4771 152.293 82.1598 151.92C82.8424 151.547 83.6211 151.36 84.4958 151.36C85.3811 151.36 86.1651 151.547 86.8478 151.92C87.5411 152.293 88.0798 152.805 88.4638 153.456C88.8584 154.107 89.0558 154.864 89.0558 155.728C89.0558 156.571 88.8584 157.323 88.4638 157.984C88.0798 158.645 87.5411 159.168 86.8478 159.552C86.1651 159.925 85.3811 160.112 84.4958 160.112ZM84.4958 158.4C84.9864 158.4 85.4238 158.293 85.8078 158.08C86.1918 157.867 86.4904 157.557 86.7038 157.152C86.9278 156.747 87.0398 156.272 87.0398 155.728C87.0398 155.173 86.9278 154.699 86.7038 154.304C86.4904 153.899 86.1918 153.589 85.8078 153.376C85.4238 153.163 84.9918 153.056 84.5118 153.056C84.0211 153.056 83.5838 153.163 83.1998 153.376C82.8264 153.589 82.5278 153.899 82.3038 154.304C82.0798 154.699 81.9678 155.173 81.9678 155.728C81.9678 156.272 82.0798 156.747 82.3038 157.152C82.5278 157.557 82.8264 157.867 83.1998 158.08C83.5838 158.293 84.0158 158.4 84.4958 158.4ZM90.9683 160V151.456H92.8723V153.808L92.6483 153.12C92.9043 152.544 93.3043 152.107 93.8483 151.808C94.4029 151.509 95.0909 151.36 95.9123 151.36V153.264C95.8269 153.243 95.7469 153.232 95.6723 153.232C95.5976 153.221 95.5229 153.216 95.4483 153.216C94.6909 153.216 94.0883 153.44 93.6403 153.888C93.1923 154.325 92.9683 154.981 92.9683 155.856V160H90.9683ZM97.6089 160V151.456H99.6089V160H97.6089ZM98.6169 150.048C98.2435 150.048 97.9342 149.931 97.6889 149.696C97.4542 149.461 97.3369 149.179 97.3369 148.848C97.3369 148.507 97.4542 148.224 97.6889 148C97.9342 147.765 98.2435 147.648 98.6169 147.648C98.9902 147.648 99.2942 147.76 99.5289 147.984C99.7742 148.197 99.8969 148.469 99.8969 148.8C99.8969 149.152 99.7795 149.451 99.5449 149.696C99.3102 149.931 99.0009 150.048 98.6169 150.048ZM105.45 160.112C104.511 160.112 103.786 159.872 103.274 159.392C102.762 158.901 102.506 158.181 102.506 157.232V149.568H104.506V157.184C104.506 157.589 104.607 157.904 104.81 158.128C105.023 158.352 105.317 158.464 105.69 158.464C106.138 158.464 106.511 158.347 106.81 158.112L107.37 159.536C107.135 159.728 106.847 159.872 106.506 159.968C106.165 160.064 105.813 160.112 105.45 160.112ZM101.098 153.12V151.52H106.794V153.12H101.098ZM109.563 163.216C109.147 163.216 108.731 163.147 108.315 163.008C107.899 162.869 107.552 162.677 107.275 162.432L108.075 160.96C108.278 161.141 108.507 161.285 108.763 161.392C109.019 161.499 109.28 161.552 109.547 161.552C109.91 161.552 110.203 161.461 110.427 161.28C110.651 161.099 110.859 160.795 111.051 160.368L111.547 159.248L111.707 159.008L114.939 151.456H116.859L112.859 160.688C112.592 161.328 112.294 161.835 111.963 162.208C111.643 162.581 111.28 162.843 110.875 162.992C110.48 163.141 110.043 163.216 109.563 163.216ZM111.323 160.304L107.467 151.456H109.547L112.683 158.832L111.323 160.304Z" fill="#010101"/>
</g>
<path d="M8 176H164V210C164 215.523 159.523 220 154 220H18C12.4772 220 8 215.523 8 210V176Z" fill="#F5F5F5"/>
<path d="M22.976 204.16C22.1013 204.16 21.264 204.037 20.464 203.792C19.664 203.536 19.0293 203.211 18.56 202.816L19.28 201.2C19.728 201.552 20.2827 201.845 20.944 202.08C21.6053 202.315 22.2827 202.432 22.976 202.432C23.5627 202.432 24.0373 202.368 24.4 202.24C24.7627 202.112 25.0293 201.941 25.2 201.728C25.3707 201.504 25.456 201.253 25.456 200.976C25.456 200.635 25.3333 200.363 25.088 200.16C24.8427 199.947 24.5227 199.781 24.128 199.664C23.744 199.536 23.312 199.419 22.832 199.312C22.3627 199.205 21.888 199.083 21.408 198.944C20.9387 198.795 20.5067 198.608 20.112 198.384C19.728 198.149 19.4133 197.84 19.168 197.456C18.9227 197.072 18.8 196.581 18.8 195.984C18.8 195.376 18.96 194.821 19.28 194.32C19.6107 193.808 20.1067 193.403 20.768 193.104C21.44 192.795 22.288 192.64 23.312 192.64C23.984 192.64 24.6507 192.725 25.312 192.896C25.9733 193.067 26.5493 193.312 27.04 193.632L26.384 195.248C25.8827 194.949 25.3653 194.731 24.832 194.592C24.2987 194.443 23.7867 194.368 23.296 194.368C22.72 194.368 22.2507 194.437 21.888 194.576C21.536 194.715 21.2747 194.896 21.104 195.12C20.944 195.344 20.864 195.6 20.864 195.888C20.864 196.229 20.9813 196.507 21.216 196.72C21.4613 196.923 21.776 197.083 22.16 197.2C22.5547 197.317 22.992 197.435 23.472 197.552C23.952 197.659 24.4267 197.781 24.896 197.92C25.376 198.059 25.808 198.24 26.192 198.464C26.5867 198.688 26.9013 198.992 27.136 199.376C27.3813 199.76 27.504 200.245 27.504 200.832C27.504 201.429 27.3387 201.984 27.008 202.496C26.688 202.997 26.192 203.403 25.52 203.712C24.848 204.011 24 204.16 22.976 204.16ZM34.1105 204.112C33.4172 204.112 32.7825 203.952 32.2065 203.632C31.6412 203.312 31.1878 202.832 30.8465 202.192C30.5158 201.541 30.3505 200.72 30.3505 199.728C30.3505 198.725 30.5105 197.904 30.8305 197.264C31.1612 196.624 31.6092 196.149 32.1745 195.84C32.7398 195.52 33.3852 195.36 34.1105 195.36C34.9532 195.36 35.6945 195.541 36.3345 195.904C36.9852 196.267 37.4972 196.773 37.8705 197.424C38.2545 198.075 38.4465 198.843 38.4465 199.728C38.4465 200.613 38.2545 201.387 37.8705 202.048C37.4972 202.699 36.9852 203.205 36.3345 203.568C35.6945 203.931 34.9532 204.112 34.1105 204.112ZM29.3745 207.104V195.456H31.2785V197.472L31.2145 199.744L31.3745 202.016V207.104H29.3745ZM33.8865 202.4C34.3665 202.4 34.7932 202.293 35.1665 202.08C35.5505 201.867 35.8545 201.557 36.0785 201.152C36.3025 200.747 36.4145 200.272 36.4145 199.728C36.4145 199.173 36.3025 198.699 36.0785 198.304C35.8545 197.899 35.5505 197.589 35.1665 197.376C34.7932 197.163 34.3665 197.056 33.8865 197.056C33.4065 197.056 32.9745 197.163 32.5905 197.376C32.2065 197.589 31.9025 197.899 31.6785 198.304C31.4545 198.699 31.3425 199.173 31.3425 199.728C31.3425 200.272 31.4545 200.747 31.6785 201.152C31.9025 201.557 32.2065 201.867 32.5905 202.08C32.9745 202.293 33.4065 202.4 33.8865 202.4ZM45.4979 204V202.272L45.3859 201.904V198.88C45.3859 198.293 45.2099 197.84 44.8579 197.52C44.5059 197.189 43.9725 197.024 43.2579 197.024C42.7779 197.024 42.3032 197.099 41.8339 197.248C41.3752 197.397 40.9859 197.605 40.6659 197.872L39.8819 196.416C40.3405 196.064 40.8845 195.803 41.5139 195.632C42.1539 195.451 42.8152 195.36 43.4979 195.36C44.7352 195.36 45.6899 195.659 46.3619 196.256C47.0445 196.843 47.3859 197.755 47.3859 198.992V204H45.4979ZM42.8099 204.112C42.1699 204.112 41.6099 204.005 41.1299 203.792C40.6499 203.568 40.2765 203.264 40.0099 202.88C39.7539 202.485 39.6259 202.043 39.6259 201.552C39.6259 201.072 39.7379 200.64 39.9619 200.256C40.1965 199.872 40.5752 199.568 41.0979 199.344C41.6205 199.12 42.3139 199.008 43.1779 199.008H45.6579V200.336H43.3219C42.6392 200.336 42.1805 200.448 41.9459 200.672C41.7112 200.885 41.5939 201.152 41.5939 201.472C41.5939 201.835 41.7379 202.123 42.0259 202.336C42.3139 202.549 42.7139 202.656 43.2259 202.656C43.7165 202.656 44.1539 202.544 44.5379 202.32C44.9325 202.096 45.2152 201.765 45.3859 201.328L45.7219 202.528C45.5299 203.029 45.1832 203.419 44.6819 203.696C44.1912 203.973 43.5672 204.112 42.8099 204.112ZM60.7366 195.36C61.4193 195.36 62.022 195.493 62.5446 195.76C63.078 196.027 63.494 196.437 63.7926 196.992C64.0913 197.536 64.2406 198.24 64.2406 199.104V204H62.2406V199.36C62.2406 198.603 62.0753 198.037 61.7446 197.664C61.414 197.291 60.9393 197.104 60.3206 197.104C59.8833 197.104 59.494 197.2 59.1526 197.392C58.822 197.584 58.5606 197.867 58.3686 198.24C58.1873 198.613 58.0966 199.088 58.0966 199.664V204H56.0966V199.36C56.0966 198.603 55.9313 198.037 55.6006 197.664C55.27 197.291 54.7953 197.104 54.1766 197.104C53.7393 197.104 53.35 197.2 53.0086 197.392C52.678 197.584 52.4166 197.867 52.2246 198.24C52.0433 198.613 51.9526 199.088 51.9526 199.664V204H49.9526V195.456H51.8566V197.728L51.5206 197.056C51.8086 196.501 52.2246 196.08 52.7686 195.792C53.3233 195.504 53.9526 195.36 54.6566 195.36C55.4566 195.36 56.15 195.557 56.7366 195.952C57.334 196.347 57.7286 196.944 57.9206 197.744L57.1366 197.472C57.414 196.832 57.8726 196.32 58.5126 195.936C59.1526 195.552 59.894 195.36 60.7366 195.36Z" fill="black"/>
<defs>
<filter id="filter0_d_3802_5414" x="0" y="40" width="172" height="60" filterUnits="userSpaceOnUse" color-interpolation-filters="sRGB">
<feFlood flood-opacity="0" result="BackgroundImageFix"/>
<feColorMatrix in="SourceAlpha" type="matrix" values="0 0 0 0 0 0 0 0 0 0 0 0 0 0 0 0 0 0 127 0" result="hardAlpha"/>
<feOffset dy="4"/>
<feGaussianBlur stdDeviation="4"/>
<feComposite in2="hardAlpha" operator="out"/>
<feColorMatrix type="matrix" values="0 0 0 0 0 0 0 0 0 0 0 0 0 0 0 0 0 0 0.15 0"/>
<feBlend mode="normal" in2="BackgroundImageFix" result="effect1_dropShadow_3802_5414"/>
<feBlend mode="normal" in="SourceGraphic" in2="effect1_dropShadow_3802_5414" result="shape"/>
</filter>
<filter id="filter1_d_3802_5414" x="0" y="84" width="172" height="60" filterUnits="userSpaceOnUse" color-interpolation-filters="sRGB">
<feFlood flood-opacity="0" result="BackgroundImageFix"/>
<feColorMatrix in="SourceAlpha" type="matrix" values="0 0 0 0 0 0 0 0 0 0 0 0 0 0 0 0 0 0 127 0" result="hardAlpha"/>
<feOffset dy="4"/>
<feGaussianBlur stdDeviation="4"/>
<feComposite in2="hardAlpha" operator="out"/>
<feColorMatrix type="matrix" values="0 0 0 0 0 0 0 0 0 0 0 0 0 0 0 0 0 0 0.15 0"/>
<feBlend mode="normal" in2="BackgroundImageFix" result="effect1_dropShadow_3802_5414"/>
<feBlend mode="normal" in="SourceGraphic" in2="effect1_dropShadow_3802_5414" result="shape"/>
</filter>
<filter id="filter2_d_3802_5414" x="0" y="128" width="172" height="60" filterUnits="userSpaceOnUse" color-interpolation-filters="sRGB">
<feFlood flood-opacity="0" result="BackgroundImageFix"/>
<feColorMatrix in="SourceAlpha" type="matrix" values="0 0 0 0 0 0 0 0 0 0 0 0 0 0 0 0 0 0 127 0" result="hardAlpha"/>
<feOffset dy="4"/>
<feGaussianBlur stdDeviation="4"/>
<feComposite in2="hardAlpha" operator="out"/>
<feColorMatrix type="matrix" values="0 0 0 0 0 0 0 0 0 0 0 0 0 0 0 0 0 0 0.15 0"/>
<feBlend mode="normal" in2="BackgroundImageFix" result="effect1_dropShadow_3802_5414"/>
<feBlend mode="normal" in="SourceGraphic" in2="effect1_dropShadow_3802_5414" result="shape"/>
</filter>
</defs>
</svg>
