<svg width="156" height="44" viewBox="0 0 156 44" fill="none" xmlns="http://www.w3.org/2000/svg">
<rect width="156" height="44" rx="10" fill="#519AEB"/>
<path d="M8.42 28L13.46 16.8H15.508L20.564 28H18.388L14.052 17.904H14.884L10.564 28H8.42ZM10.74 25.408L11.3 23.776H17.348L17.908 25.408H10.74ZM24.3583 28.112C23.6436 28.112 22.9556 28.0213 22.2943 27.84C21.6436 27.648 21.1263 27.4187 20.7423 27.152L21.5103 25.632C21.8943 25.8773 22.3529 26.08 22.8863 26.24C23.4196 26.4 23.9529 26.48 24.4863 26.48C25.1156 26.48 25.5689 26.3947 25.8463 26.224C26.1343 26.0533 26.2783 25.824 26.2783 25.536C26.2783 25.3013 26.1823 25.1253 25.9903 25.008C25.7983 24.88 25.5476 24.784 25.2383 24.72C24.9289 24.656 24.5823 24.5973 24.1983 24.544C23.8249 24.4907 23.4463 24.4213 23.0623 24.336C22.6889 24.24 22.3476 24.1067 22.0383 23.936C21.7289 23.7547 21.4783 23.5147 21.2863 23.216C21.0943 22.9173 20.9983 22.5227 20.9983 22.032C20.9983 21.488 21.1529 21.0187 21.4622 20.624C21.7716 20.2187 22.2036 19.9093 22.7582 19.696C23.3236 19.472 23.9903 19.36 24.7583 19.36C25.3343 19.36 25.9156 19.424 26.5023 19.552C27.0889 19.68 27.5743 19.8613 27.9583 20.096L27.1903 21.616C26.7849 21.3707 26.3743 21.2053 25.9583 21.12C25.5529 21.024 25.1476 20.976 24.7423 20.976C24.1343 20.976 23.6809 21.0667 23.3823 21.248C23.0943 21.4293 22.9503 21.6587 22.9503 21.936C22.9503 22.192 23.0463 22.384 23.2383 22.512C23.4303 22.64 23.6809 22.7413 23.9903 22.816C24.2996 22.8907 24.6409 22.9547 25.0143 23.008C25.3983 23.0507 25.7769 23.12 26.1503 23.216C26.5236 23.312 26.8649 23.4453 27.1743 23.616C27.4943 23.776 27.7503 24.0053 27.9423 24.304C28.1343 24.6027 28.2303 24.992 28.2303 25.472C28.2303 26.0053 28.0703 26.4693 27.7503 26.864C27.4409 27.2587 26.9983 27.568 26.4223 27.792C25.8463 28.0053 25.1583 28.112 24.3583 28.112ZM32.5926 28.112C31.878 28.112 31.19 28.0213 30.5286 27.84C29.878 27.648 29.3606 27.4187 28.9766 27.152L29.7446 25.632C30.1286 25.8773 30.5873 26.08 31.1206 26.24C31.654 26.4 32.1873 26.48 32.7206 26.48C33.35 26.48 33.8033 26.3947 34.0806 26.224C34.3686 26.0533 34.5126 25.824 34.5126 25.536C34.5126 25.3013 34.4166 25.1253 34.2246 25.008C34.0326 24.88 33.782 24.784 33.4726 24.72C33.1633 24.656 32.8166 24.5973 32.4326 24.544C32.0593 24.4907 31.6806 24.4213 31.2966 24.336C30.9233 24.24 30.582 24.1067 30.2726 23.936C29.9633 23.7547 29.7126 23.5147 29.5206 23.216C29.3286 22.9173 29.2326 22.5227 29.2326 22.032C29.2326 21.488 29.3873 21.0187 29.6966 20.624C30.006 20.2187 30.438 19.9093 30.9926 19.696C31.558 19.472 32.2246 19.36 32.9926 19.36C33.5686 19.36 34.15 19.424 34.7366 19.552C35.3233 19.68 35.8086 19.8613 36.1926 20.096L35.4246 21.616C35.0193 21.3707 34.6086 21.2053 34.1926 21.12C33.7873 21.024 33.382 20.976 32.9766 20.976C32.3686 20.976 31.9153 21.0667 31.6166 21.248C31.3286 21.4293 31.1846 21.6587 31.1846 21.936C31.1846 22.192 31.2806 22.384 31.4726 22.512C31.6646 22.64 31.9153 22.7413 32.2246 22.816C32.534 22.8907 32.8753 22.9547 33.2486 23.008C33.6326 23.0507 34.0113 23.12 34.3846 23.216C34.758 23.312 35.0993 23.4453 35.4086 23.616C35.7286 23.776 35.9846 24.0053 36.1766 24.304C36.3686 24.6027 36.4646 24.992 36.4646 25.472C36.4646 26.0053 36.3046 26.4693 35.9846 26.864C35.6753 27.2587 35.2326 27.568 34.6566 27.792C34.0806 28.0053 33.3926 28.112 32.5926 28.112ZM38.187 28V19.456H40.187V28H38.187ZM39.195 18.048C38.8217 18.048 38.5123 17.9307 38.267 17.696C38.0323 17.4613 37.915 17.1787 37.915 16.848C37.915 16.5067 38.0323 16.224 38.267 16C38.5123 15.7653 38.8217 15.648 39.195 15.648C39.5683 15.648 39.8723 15.76 40.107 15.984C40.3523 16.1973 40.475 16.4693 40.475 16.8C40.475 17.152 40.3577 17.4507 40.123 17.696C39.8883 17.9307 39.579 18.048 39.195 18.048ZM46.684 31.216C45.8947 31.216 45.1213 31.1093 44.364 30.896C43.6173 30.6933 43.004 30.3947 42.524 30L43.42 28.496C43.7933 28.8053 44.2627 29.0507 44.828 29.232C45.404 29.424 45.9853 29.52 46.572 29.52C47.5107 29.52 48.1987 29.3013 48.636 28.864C49.0733 28.4373 49.292 27.792 49.292 26.928V25.408L49.452 23.472L49.388 21.536V19.456H51.292V26.704C51.292 28.2507 50.8973 29.3867 50.108 30.112C49.3187 30.848 48.1773 31.216 46.684 31.216ZM46.428 27.616C45.6173 27.616 44.8813 27.4453 44.22 27.104C43.5693 26.752 43.052 26.2667 42.668 25.648C42.2947 25.0293 42.108 24.304 42.108 23.472C42.108 22.6507 42.2947 21.9307 42.668 21.312C43.052 20.6933 43.5693 20.2133 44.22 19.872C44.8813 19.5307 45.6173 19.36 46.428 19.36C47.1533 19.36 47.804 19.504 48.38 19.792C48.956 20.08 49.4147 20.528 49.756 21.136C50.108 21.744 50.284 22.5227 50.284 23.472C50.284 24.4213 50.108 25.2053 49.756 25.824C49.4147 26.432 48.956 26.8853 48.38 27.184C47.804 27.472 47.1533 27.616 46.428 27.616ZM46.732 25.92C47.2333 25.92 47.6813 25.8187 48.076 25.616C48.4707 25.4027 48.7747 25.1147 48.988 24.752C49.212 24.3787 49.324 23.952 49.324 23.472C49.324 22.992 49.212 22.5707 48.988 22.208C48.7747 21.8347 48.4707 21.552 48.076 21.36C47.6813 21.1573 47.2333 21.056 46.732 21.056C46.2307 21.056 45.7773 21.1573 45.372 21.36C44.9773 21.552 44.668 21.8347 44.444 22.208C44.2307 22.5707 44.124 22.992 44.124 23.472C44.124 23.952 44.2307 24.3787 44.444 24.752C44.668 25.1147 44.9773 25.4027 45.372 25.616C45.7773 25.8187 46.2307 25.92 46.732 25.92ZM58.7694 19.36C59.452 19.36 60.06 19.4933 60.5934 19.76C61.1374 20.0267 61.564 20.4373 61.8734 20.992C62.1827 21.536 62.3374 22.24 62.3374 23.104V28H60.3374V23.36C60.3374 22.6027 60.156 22.0373 59.7934 21.664C59.4414 21.2907 58.9454 21.104 58.3054 21.104C57.836 21.104 57.42 21.2 57.0574 21.392C56.6947 21.584 56.412 21.872 56.2094 22.256C56.0174 22.6293 55.9214 23.104 55.9214 23.68V28H53.9214V19.456H55.8254V21.76L55.4894 21.056C55.788 20.512 56.22 20.096 56.7854 19.808C57.3614 19.5093 58.0227 19.36 58.7694 19.36ZM69.4884 28V16.8H74.0964C75.0884 16.8 75.9364 16.96 76.6404 17.28C77.355 17.6 77.9044 18.0587 78.2884 18.656C78.6724 19.2533 78.8644 19.9627 78.8644 20.784C78.8644 21.6053 78.6724 22.3147 78.2884 22.912C77.9044 23.5093 77.355 23.968 76.6404 24.288C75.9364 24.608 75.0884 24.768 74.0964 24.768H70.6404L71.5684 23.792V28H69.4884ZM71.5684 24.016L70.6404 23.008H74.0004C74.9177 23.008 75.6057 22.816 76.0644 22.432C76.5337 22.0373 76.7684 21.488 76.7684 20.784C76.7684 20.0693 76.5337 19.52 76.0644 19.136C75.6057 18.752 74.9177 18.56 74.0004 18.56H70.6404L71.5684 17.536V24.016ZM80.6714 28V19.456H82.5754V21.808L82.3514 21.12C82.6074 20.544 83.0074 20.1067 83.5514 19.808C84.106 19.5093 84.794 19.36 85.6154 19.36V21.264C85.53 21.2427 85.45 21.232 85.3754 21.232C85.3007 21.2213 85.226 21.216 85.1514 21.216C84.394 21.216 83.7914 21.44 83.3434 21.888C82.8954 22.3253 82.6714 22.9813 82.6714 23.856V28H80.6714ZM87.312 28V19.456H89.312V28H87.312ZM88.32 18.048C87.9467 18.048 87.6373 17.9307 87.392 17.696C87.1573 17.4613 87.04 17.1787 87.04 16.848C87.04 16.5067 87.1573 16.224 87.392 16C87.6373 15.7653 87.9467 15.648 88.32 15.648C88.6933 15.648 88.9973 15.76 89.232 15.984C89.4773 16.1973 89.6 16.4693 89.6 16.8C89.6 17.152 89.4827 17.4507 89.248 17.696C89.0133 17.9307 88.704 18.048 88.32 18.048ZM95.777 28.112C94.9023 28.112 94.1237 27.9253 93.441 27.552C92.7583 27.168 92.2197 26.6453 91.825 25.984C91.4303 25.3227 91.233 24.5707 91.233 23.728C91.233 22.8747 91.4303 22.1227 91.825 21.472C92.2197 20.8107 92.7583 20.2933 93.441 19.92C94.1237 19.5467 94.9023 19.36 95.777 19.36C96.6623 19.36 97.4463 19.5467 98.129 19.92C98.8223 20.2933 99.361 20.8053 99.745 21.456C100.14 22.1067 100.337 22.864 100.337 23.728C100.337 24.5707 100.14 25.3227 99.745 25.984C99.361 26.6453 98.8223 27.168 98.129 27.552C97.4463 27.9253 96.6623 28.112 95.777 28.112ZM95.777 26.4C96.2677 26.4 96.705 26.2933 97.089 26.08C97.473 25.8667 97.7717 25.5573 97.985 25.152C98.209 24.7467 98.321 24.272 98.321 23.728C98.321 23.1733 98.209 22.6987 97.985 22.304C97.7717 21.8987 97.473 21.5893 97.089 21.376C96.705 21.1627 96.273 21.056 95.793 21.056C95.3023 21.056 94.865 21.1627 94.481 21.376C94.1077 21.5893 93.809 21.8987 93.585 22.304C93.361 22.6987 93.249 23.1733 93.249 23.728C93.249 24.272 93.361 24.7467 93.585 25.152C93.809 25.5573 94.1077 25.8667 94.481 26.08C94.865 26.2933 95.297 26.4 95.777 26.4ZM102.25 28V19.456H104.154V21.808L103.93 21.12C104.186 20.544 104.586 20.1067 105.13 19.808C105.684 19.5093 106.372 19.36 107.194 19.36V21.264C107.108 21.2427 107.028 21.232 106.954 21.232C106.879 21.2213 106.804 21.216 106.73 21.216C105.972 21.216 105.37 21.44 104.922 21.888C104.474 22.3253 104.25 22.9813 104.25 23.856V28H102.25ZM108.89 28V19.456H110.89V28H108.89ZM109.898 18.048C109.525 18.048 109.215 17.9307 108.97 17.696C108.735 17.4613 108.618 17.1787 108.618 16.848C108.618 16.5067 108.735 16.224 108.97 16C109.215 15.7653 109.525 15.648 109.898 15.648C110.271 15.648 110.575 15.76 110.81 15.984C111.055 16.1973 111.178 16.4693 111.178 16.8C111.178 17.152 111.061 17.4507 110.826 17.696C110.591 17.9307 110.282 18.048 109.898 18.048ZM116.731 28.112C115.792 28.112 115.067 27.872 114.555 27.392C114.043 26.9013 113.787 26.1813 113.787 25.232V17.568H115.787V25.184C115.787 25.5893 115.888 25.904 116.091 26.128C116.304 26.352 116.598 26.464 116.971 26.464C117.419 26.464 117.792 26.3467 118.091 26.112L118.651 27.536C118.416 27.728 118.128 27.872 117.787 27.968C117.446 28.064 117.094 28.112 116.731 28.112ZM112.379 21.12V19.52H118.075V21.12H112.379ZM120.844 31.216C120.428 31.216 120.012 31.1467 119.596 31.008C119.18 30.8693 118.833 30.6773 118.556 30.432L119.356 28.96C119.559 29.1413 119.788 29.2853 120.044 29.392C120.3 29.4987 120.561 29.552 120.828 29.552C121.191 29.552 121.484 29.4613 121.708 29.28C121.932 29.0987 122.14 28.7947 122.332 28.368L122.828 27.248L122.988 27.008L126.22 19.456H128.14L124.14 28.688C123.873 29.328 123.575 29.8347 123.244 30.208C122.924 30.5813 122.561 30.8427 122.156 30.992C121.761 31.1413 121.324 31.216 120.844 31.216ZM122.604 28.304L118.748 19.456H120.828L123.964 26.832L122.604 28.304Z" fill="white"/>
<path d="M146.75 24.75C146.539 24.75 146.352 24.6797 146.211 24.5391L143 21.3281L139.766 24.5391C139.484 24.8438 138.992 24.8438 138.711 24.5391C138.406 24.2578 138.406 23.7656 138.711 23.4844L142.461 19.7344C142.742 19.4297 143.234 19.4297 143.516 19.7344L147.266 23.4844C147.57 23.7656 147.57 24.2578 147.266 24.5391C147.125 24.6797 146.938 24.75 146.75 24.75Z" fill="#FFFDFD"/>
</svg>
