<svg width="54" height="54" viewBox="0 0 54 54" fill="none" xmlns="http://www.w3.org/2000/svg">
<circle cx="26.7222" cy="27.0289" r="26.5738" fill="#C1C1C1"/>
<path d="M26.0664 33.6983C28.8462 33.6983 31.1015 31.4955 31.1015 28.6632V20.2714C31.1015 17.4916 28.8462 15.2363 26.0664 15.2363C23.2342 15.2363 21.0313 17.4916 21.0313 20.2714V28.6632C21.0313 31.443 23.2342 33.6983 26.0664 33.6983ZM34.0386 25.3065C33.3043 25.3065 32.7799 25.8834 32.7799 26.5653V28.6632C32.7799 32.5444 29.528 35.6389 25.5944 35.3767C22.1327 35.1669 19.353 31.9151 19.353 28.401V26.5653C19.353 25.8834 18.776 25.3065 18.0942 25.3065C17.3599 25.3065 16.8354 25.8834 16.8354 26.5653V28.2436C16.8354 32.9116 20.1397 37.1075 24.8076 37.7369V39.5726H22.7097C21.7132 39.5726 20.9789 40.4118 21.0313 41.3558C21.0313 41.7754 21.3985 42.0901 21.8705 42.0901H30.2623C30.6819 42.0901 31.049 41.7754 31.049 41.3558C31.1015 40.4118 30.3672 39.5726 29.4231 39.5726H27.3252V37.8418C31.7833 37.2124 35.2974 33.3312 35.2974 28.6632V26.5653C35.2974 25.8834 34.7205 25.3065 34.0386 25.3065Z" fill="#5F5F5F"/>
</svg>
