<svg width="13" height="15" viewBox="0 0 13 15" fill="none" xmlns="http://www.w3.org/2000/svg">
<path d="M4.53125 2H8.46875V0.906249C8.46875 0.55078 8.74219 0.249999 9.125 0.249999C9.48047 0.249999 9.78125 0.55078 9.78125 0.906249V2H10.875C11.832 2 12.625 2.79297 12.625 3.75V12.5C12.625 13.4844 11.832 14.25 10.875 14.25H2.125C1.14062 14.25 0.375 13.4844 0.375 12.5V3.75C0.375 2.79297 1.14062 2 2.125 2H3.21875V0.906249C3.21875 0.55078 3.49219 0.249999 3.875 0.249999C4.23047 0.249999 4.53125 0.55078 4.53125 0.906249V2ZM1.6875 12.5C1.6875 12.7461 1.87891 12.9375 2.125 12.9375H10.875C11.0938 12.9375 11.3125 12.7461 11.3125 12.5V5.5H1.6875V12.5Z" fill="#9A9A9A"/>
</svg>
