<svg width="35" height="40" viewBox="0 0 35 40" fill="none" xmlns="http://www.w3.org/2000/svg">
<path d="M11.2734 22.4375H8.22656C7.72383 22.4375 7.3125 22.0262 7.3125 21.5234V18.4766C7.3125 17.9738 7.72383 17.5625 8.22656 17.5625H11.2734C11.7762 17.5625 12.1875 17.9738 12.1875 18.4766V21.5234C12.1875 22.0262 11.7762 22.4375 11.2734 22.4375ZM19.5 21.5234V18.4766C19.5 17.9738 19.0887 17.5625 18.5859 17.5625H15.5391C15.0363 17.5625 14.625 17.9738 14.625 18.4766V21.5234C14.625 22.0262 15.0363 22.4375 15.5391 22.4375H18.5859C19.0887 22.4375 19.5 22.0262 19.5 21.5234ZM26.8125 21.5234V18.4766C26.8125 17.9738 26.4012 17.5625 25.8984 17.5625H22.8516C22.3488 17.5625 21.9375 17.9738 21.9375 18.4766V21.5234C21.9375 22.0262 22.3488 22.4375 22.8516 22.4375H25.8984C26.4012 22.4375 26.8125 22.0262 26.8125 21.5234ZM19.5 28.8359V25.7891C19.5 25.2863 19.0887 24.875 18.5859 24.875H15.5391C15.0363 24.875 14.625 25.2863 14.625 25.7891V28.8359C14.625 29.3387 15.0363 29.75 15.5391 29.75H18.5859C19.0887 29.75 19.5 29.3387 19.5 28.8359ZM12.1875 28.8359V25.7891C12.1875 25.2863 11.7762 24.875 11.2734 24.875H8.22656C7.72383 24.875 7.3125 25.2863 7.3125 25.7891V28.8359C7.3125 29.3387 7.72383 29.75 8.22656 29.75H11.2734C11.7762 29.75 12.1875 29.3387 12.1875 28.8359ZM26.8125 28.8359V25.7891C26.8125 25.2863 26.4012 24.875 25.8984 24.875H22.8516C22.3488 24.875 21.9375 25.2863 21.9375 25.7891V28.8359C21.9375 29.3387 22.3488 29.75 22.8516 29.75H25.8984C26.4012 29.75 26.8125 29.3387 26.8125 28.8359ZM34.125 9.03125V35.8438C34.125 37.8623 32.4873 39.5 30.4688 39.5H3.65625C1.6377 39.5 0 37.8623 0 35.8438V9.03125C0 7.0127 1.6377 5.375 3.65625 5.375H7.3125V1.41406C7.3125 0.911328 7.72383 0.5 8.22656 0.5H11.2734C11.7762 0.5 12.1875 0.911328 12.1875 1.41406V5.375H21.9375V1.41406C21.9375 0.911328 22.3488 0.5 22.8516 0.5H25.8984C26.4012 0.5 26.8125 0.911328 26.8125 1.41406V5.375H30.4688C32.4873 5.375 34.125 7.0127 34.125 9.03125ZM30.4688 35.3867V12.6875H3.65625V35.3867C3.65625 35.6381 3.86191 35.8438 4.11328 35.8438H30.0117C30.2631 35.8438 30.4688 35.6381 30.4688 35.3867Z" fill="#5F5F5F"/>
</svg>
