<svg width="39" height="35" viewBox="0 0 39 35" fill="none" xmlns="http://www.w3.org/2000/svg">
<path d="M38.2857 9.125V30.6607C38.2857 32.6423 36.678 34.25 34.6964 34.25H3.58929C1.6077 34.25 0 32.6423 0 30.6607V9.125C0 7.14341 1.6077 5.53571 3.58929 5.53571H10.1696L11.0894 3.07556C11.6128 1.67723 12.9513 0.75 14.4469 0.75H23.8314C25.3269 0.75 26.6654 1.67723 27.1888 3.07556L28.1161 5.53571H34.6964C36.678 5.53571 38.2857 7.14341 38.2857 9.125ZM28.1161 19.8929C28.1161 14.9426 24.0931 10.9196 19.1429 10.9196C14.1926 10.9196 10.1696 14.9426 10.1696 19.8929C10.1696 24.8431 14.1926 28.8661 19.1429 28.8661C24.0931 28.8661 28.1161 24.8431 28.1161 19.8929ZM25.7232 19.8929C25.7232 23.5195 22.7695 26.4732 19.1429 26.4732C15.5162 26.4732 12.5625 23.5195 12.5625 19.8929C12.5625 16.2662 15.5162 13.3125 19.1429 13.3125C22.7695 13.3125 25.7232 16.2662 25.7232 19.8929Z" fill="#5F5F5F"/>
</svg>
