<svg width="89" height="44" viewBox="0 0 89 44" fill="none" xmlns="http://www.w3.org/2000/svg">
<rect x="2" y="1.5" width="85" height="41" rx="8.5" stroke="#519AEB" stroke-width="3"/>
<path d="M23.188 28.16C22.3347 28.16 21.54 28.0213 20.804 27.744C20.0787 27.456 19.444 27.056 18.9 26.544C18.3667 26.0213 17.9507 25.408 17.652 24.704C17.3533 24 17.204 23.232 17.204 22.4C17.204 21.568 17.3533 20.8 17.652 20.096C17.9507 19.392 18.372 18.784 18.916 18.272C19.46 17.7493 20.0947 17.3493 20.82 17.072C21.5453 16.784 22.34 16.64 23.204 16.64C24.1213 16.64 24.9587 16.8 25.716 17.12C26.4733 17.4293 27.1133 17.8933 27.636 18.512L26.292 19.776C25.8867 19.3387 25.4333 19.0133 24.932 18.8C24.4307 18.576 23.8867 18.464 23.3 18.464C22.7133 18.464 22.1747 18.56 21.684 18.752C21.204 18.944 20.7827 19.216 20.42 19.568C20.068 19.92 19.7907 20.336 19.588 20.816C19.396 21.296 19.3 21.824 19.3 22.4C19.3 22.976 19.396 23.504 19.588 23.984C19.7907 24.464 20.068 24.88 20.42 25.232C20.7827 25.584 21.204 25.856 21.684 26.048C22.1747 26.24 22.7133 26.336 23.3 26.336C23.8867 26.336 24.4307 26.2293 24.932 26.016C25.4333 25.792 25.8867 25.456 26.292 25.008L27.636 26.288C27.1133 26.896 26.4733 27.36 25.716 27.68C24.9587 28 24.116 28.16 23.188 28.16ZM34.6229 28V26.272L34.5109 25.904V22.88C34.5109 22.2933 34.3349 21.84 33.9829 21.52C33.6309 21.1893 33.0975 21.024 32.3829 21.024C31.9029 21.024 31.4282 21.0987 30.9589 21.248C30.5002 21.3973 30.1109 21.6053 29.7909 21.872L29.0069 20.416C29.4655 20.064 30.0095 19.8027 30.6389 19.632C31.2789 19.4507 31.9402 19.36 32.6229 19.36C33.8602 19.36 34.8149 19.6587 35.4869 20.256C36.1695 20.8427 36.5109 21.7547 36.5109 22.992V28H34.6229ZM31.9349 28.112C31.2949 28.112 30.7349 28.0053 30.2549 27.792C29.7749 27.568 29.4015 27.264 29.1349 26.88C28.8789 26.4853 28.7509 26.0427 28.7509 25.552C28.7509 25.072 28.8629 24.64 29.0869 24.256C29.3215 23.872 29.7002 23.568 30.2229 23.344C30.7455 23.12 31.4389 23.008 32.3029 23.008H34.7829V24.336H32.4469C31.7642 24.336 31.3055 24.448 31.0709 24.672C30.8362 24.8853 30.7189 25.152 30.7189 25.472C30.7189 25.8347 30.8629 26.1227 31.1509 26.336C31.4389 26.5493 31.8389 26.656 32.3509 26.656C32.8415 26.656 33.2789 26.544 33.6629 26.32C34.0575 26.096 34.3402 25.7653 34.5109 25.328L34.8469 26.528C34.6549 27.0293 34.3082 27.4187 33.8069 27.696C33.3162 27.9733 32.6922 28.112 31.9349 28.112ZM43.9256 19.36C44.6083 19.36 45.2163 19.4933 45.7496 19.76C46.2936 20.0267 46.7203 20.4373 47.0296 20.992C47.339 21.536 47.4936 22.24 47.4936 23.104V28H45.4936V23.36C45.4936 22.6027 45.3123 22.0373 44.9496 21.664C44.5976 21.2907 44.1016 21.104 43.4616 21.104C42.9923 21.104 42.5763 21.2 42.2136 21.392C41.851 21.584 41.5683 21.872 41.3656 22.256C41.1736 22.6293 41.0776 23.104 41.0776 23.68V28H39.0776V19.456H40.9816V21.76L40.6456 21.056C40.9443 20.512 41.3763 20.096 41.9416 19.808C42.5176 19.5093 43.179 19.36 43.9256 19.36ZM53.9664 28.112C53.0704 28.112 52.2704 27.9253 51.5664 27.552C50.873 27.168 50.329 26.6453 49.9344 25.984C49.5397 25.3227 49.3424 24.5707 49.3424 23.728C49.3424 22.8747 49.5397 22.1227 49.9344 21.472C50.329 20.8107 50.873 20.2933 51.5664 19.92C52.2704 19.5467 53.0704 19.36 53.9664 19.36C54.7984 19.36 55.529 19.5307 56.1584 19.872C56.7984 20.2027 57.2837 20.6933 57.6144 21.344L56.0784 22.24C55.8224 21.8347 55.5077 21.536 55.1344 21.344C54.7717 21.152 54.377 21.056 53.9504 21.056C53.4597 21.056 53.017 21.1627 52.6224 21.376C52.2277 21.5893 51.9184 21.8987 51.6944 22.304C51.4704 22.6987 51.3584 23.1733 51.3584 23.728C51.3584 24.2827 51.4704 24.7627 51.6944 25.168C51.9184 25.5627 52.2277 25.8667 52.6224 26.08C53.017 26.2933 53.4597 26.4 53.9504 26.4C54.377 26.4 54.7717 26.304 55.1344 26.112C55.5077 25.92 55.8224 25.6213 56.0784 25.216L57.6144 26.112C57.2837 26.752 56.7984 27.248 56.1584 27.6C55.529 27.9413 54.7984 28.112 53.9664 28.112ZM63.2343 28.112C62.2849 28.112 61.4529 27.9253 60.7383 27.552C60.0343 27.168 59.4849 26.6453 59.0903 25.984C58.7063 25.3227 58.5143 24.5707 58.5143 23.728C58.5143 22.8747 58.7009 22.1227 59.0743 21.472C59.4583 20.8107 59.9809 20.2933 60.6423 19.92C61.3143 19.5467 62.0769 19.36 62.9303 19.36C63.7623 19.36 64.5036 19.5413 65.1543 19.904C65.8049 20.2667 66.3169 20.7787 66.6903 21.44C67.0636 22.1013 67.2503 22.88 67.2503 23.776C67.2503 23.8613 67.2449 23.9573 67.2343 24.064C67.2343 24.1707 67.2289 24.272 67.2183 24.368H60.0983V23.04H66.1623L65.3783 23.456C65.3889 22.9653 65.2876 22.5333 65.0743 22.16C64.8609 21.7867 64.5676 21.4933 64.1943 21.28C63.8316 21.0667 63.4103 20.96 62.9303 20.96C62.4396 20.96 62.0076 21.0667 61.6343 21.28C61.2716 21.4933 60.9836 21.792 60.7703 22.176C60.5676 22.5493 60.4663 22.992 60.4663 23.504V23.824C60.4663 24.336 60.5836 24.7893 60.8183 25.184C61.0529 25.5787 61.3836 25.8827 61.8103 26.096C62.2369 26.3093 62.7276 26.416 63.2823 26.416C63.7623 26.416 64.1943 26.3413 64.5783 26.192C64.9623 26.0427 65.3036 25.808 65.6023 25.488L66.6743 26.72C66.2903 27.168 65.8049 27.5147 65.2183 27.76C64.6423 27.9947 63.9809 28.112 63.2343 28.112ZM69.1714 28V16.128H71.1714V28H69.1714Z" fill="#5F5F5F"/>
</svg>