<svg xmlns="http://www.w3.org/2000/svg" width="102" height="48" viewBox="0 0 102 48" fill="none">
<rect x="1.56799" y="1.56799" width="98.864" height="44.864" rx="8.43201" stroke="#519AEB" stroke-width="3.13598"/>
<path d="M24.36 31.2C23.2933 31.2 22.3 31.0267 21.38 30.68C20.4733 30.32 19.68 29.82 19 29.18C18.3333 28.5267 17.8133 27.76 17.44 26.88C17.0667 26 16.88 25.04 16.88 24C16.88 22.96 17.0667 22 17.44 21.12C17.8133 20.24 18.34 19.48 19.02 18.84C19.7 18.1867 20.4933 17.6867 21.4 17.34C22.3067 16.98 23.3 16.8 24.38 16.8C25.5267 16.8 26.5733 17 27.52 17.4C28.4667 17.7867 29.2667 18.3667 29.92 19.14L28.24 20.72C27.7333 20.1733 27.1667 19.7667 26.54 19.5C25.9133 19.22 25.2333 19.08 24.5 19.08C23.7667 19.08 23.0933 19.2 22.48 19.44C21.88 19.68 21.3533 20.02 20.9 20.46C20.46 20.9 20.1133 21.42 19.86 22.02C19.62 22.62 19.5 23.28 19.5 24C19.5 24.72 19.62 25.38 19.86 25.98C20.1133 26.58 20.46 27.1 20.9 27.54C21.3533 27.98 21.88 28.32 22.48 28.56C23.0933 28.8 23.7667 28.92 24.5 28.92C25.2333 28.92 25.9133 28.7867 26.54 28.52C27.1667 28.24 27.7333 27.82 28.24 27.26L29.92 28.86C29.2667 29.62 28.4667 30.2 27.52 30.6C26.5733 31 25.52 31.2 24.36 31.2ZM38.6536 31V28.84L38.5136 28.38V24.6C38.5136 23.8667 38.2936 23.3 37.8536 22.9C37.4136 22.4867 36.7469 22.28 35.8536 22.28C35.2536 22.28 34.6603 22.3733 34.0736 22.56C33.5003 22.7467 33.0136 23.0067 32.6136 23.34L31.6336 21.52C32.2069 21.08 32.8869 20.7533 33.6736 20.54C34.4736 20.3133 35.3003 20.2 36.1536 20.2C37.7003 20.2 38.8936 20.5733 39.7336 21.32C40.5869 22.0533 41.0136 23.1933 41.0136 24.74V31H38.6536ZM35.2936 31.14C34.4936 31.14 33.7936 31.0067 33.1936 30.74C32.5936 30.46 32.1269 30.08 31.7936 29.6C31.4736 29.1067 31.3136 28.5533 31.3136 27.94C31.3136 27.34 31.4536 26.8 31.7336 26.32C32.0269 25.84 32.5003 25.46 33.1536 25.18C33.8069 24.9 34.6736 24.76 35.7536 24.76H38.8536V26.42H35.9336C35.0803 26.42 34.5069 26.56 34.2136 26.84C33.9203 27.1067 33.7736 27.44 33.7736 27.84C33.7736 28.2933 33.9536 28.6533 34.3136 28.92C34.6736 29.1867 35.1736 29.32 35.8136 29.32C36.4269 29.32 36.9736 29.18 37.4536 28.9C37.9469 28.62 38.3003 28.2067 38.5136 27.66L38.9336 29.16C38.6936 29.7867 38.2603 30.2733 37.6336 30.62C37.0203 30.9667 36.2403 31.14 35.2936 31.14ZM50.282 20.2C51.1354 20.2 51.8954 20.3667 52.562 20.7C53.242 21.0333 53.7754 21.5467 54.162 22.24C54.5487 22.92 54.742 23.8 54.742 24.88V31H52.242V25.2C52.242 24.2533 52.0154 23.5467 51.562 23.08C51.122 22.6133 50.502 22.38 49.702 22.38C49.1154 22.38 48.5954 22.5 48.142 22.74C47.6887 22.98 47.3354 23.34 47.082 23.82C46.842 24.2867 46.722 24.88 46.722 25.6V31H44.222V20.32H46.602V23.2L46.182 22.32C46.5554 21.64 47.0954 21.12 47.802 20.76C48.522 20.3867 49.3487 20.2 50.282 20.2ZM62.833 31.14C61.713 31.14 60.713 30.9067 59.833 30.44C58.9663 29.96 58.2863 29.3067 57.793 28.48C57.2996 27.6533 57.053 26.7133 57.053 25.66C57.053 24.5933 57.2996 23.6533 57.793 22.84C58.2863 22.0133 58.9663 21.3667 59.833 20.9C60.713 20.4333 61.713 20.2 62.833 20.2C63.873 20.2 64.7863 20.4133 65.573 20.84C66.373 21.2533 66.9796 21.8667 67.393 22.68L65.473 23.8C65.153 23.2933 64.7596 22.92 64.293 22.68C63.8396 22.44 63.3463 22.32 62.813 22.32C62.1996 22.32 61.6463 22.4533 61.153 22.72C60.6596 22.9867 60.273 23.3733 59.993 23.88C59.713 24.3733 59.573 24.9667 59.573 25.66C59.573 26.3533 59.713 26.9533 59.993 27.46C60.273 27.9533 60.6596 28.3333 61.153 28.6C61.6463 28.8667 62.1996 29 62.813 29C63.3463 29 63.8396 28.88 64.293 28.64C64.7596 28.4 65.153 28.0267 65.473 27.52L67.393 28.64C66.9796 29.44 66.373 30.06 65.573 30.5C64.7863 30.9267 63.873 31.14 62.833 31.14ZM74.4178 31.14C73.2311 31.14 72.1911 30.9067 71.2978 30.44C70.4178 29.96 69.7311 29.3067 69.2378 28.48C68.7578 27.6533 68.5178 26.7133 68.5178 25.66C68.5178 24.5933 68.7511 23.6533 69.2178 22.84C69.6978 22.0133 70.3511 21.3667 71.1778 20.9C72.0178 20.4333 72.9711 20.2 74.0378 20.2C75.0778 20.2 76.0045 20.4267 76.8178 20.88C77.6311 21.3333 78.2711 21.9733 78.7378 22.8C79.2045 23.6267 79.4378 24.6 79.4378 25.72C79.4378 25.8267 79.4311 25.9467 79.4178 26.08C79.4178 26.2133 79.4111 26.34 79.3978 26.46H70.4978V24.8H78.0778L77.0978 25.32C77.1111 24.7067 76.9845 24.1667 76.7178 23.7C76.4511 23.2333 76.0845 22.8667 75.6178 22.6C75.1645 22.3333 74.6378 22.2 74.0378 22.2C73.4245 22.2 72.8845 22.3333 72.4178 22.6C71.9645 22.8667 71.6045 23.24 71.3378 23.72C71.0845 24.1867 70.9578 24.74 70.9578 25.38V25.78C70.9578 26.42 71.1045 26.9867 71.3978 27.48C71.6911 27.9733 72.1045 28.3533 72.6378 28.62C73.1711 28.8867 73.7845 29.02 74.4778 29.02C75.0778 29.02 75.6178 28.9267 76.0978 28.74C76.5778 28.5533 77.0045 28.26 77.3778 27.86L78.7178 29.4C78.2378 29.96 77.6311 30.3933 76.8978 30.7C76.1778 30.9933 75.3511 31.14 74.4178 31.14ZM81.8392 31V16.16H84.3392V31H81.8392Z" fill="#5F5F5F"/>
</svg>