<svg width="21" height="21" viewBox="0 0 21 21" fill="none" xmlns="http://www.w3.org/2000/svg">
<path d="M18.4609 0C19.8672 0 20.9609 1.13281 20.9609 2.5V13.7109C20.9609 15.0391 19.8281 16.1719 18.4609 16.1719H12.8359L7.95312 19.8047C7.64062 20.0391 7.21094 19.8438 7.21094 19.4531V16.1719H3.46094C2.05469 16.1719 0.960938 15.0781 0.960938 13.7109V2.5C0.960938 1.13281 2.05469 0 3.46094 0H18.4609ZM19.125 13.75V2.5C19.125 2.1875 18.8125 1.875 18.5 1.875H3.5C3.14844 1.875 2.875 2.1875 2.875 2.5V13.75C2.875 14.1016 3.14844 14.375 3.5 14.375H9.125V16.7188L12.25 14.375H18.5C18.8125 14.375 19.125 14.1016 19.125 13.75Z" fill="#9A9A9A"/>
</svg>