<svg width="122" height="122" viewBox="0 0 122 122" fill="none" xmlns="http://www.w3.org/2000/svg">
<path d="M60.9999 10.8223C33.3019 10.8223 10.8223 33.3019 10.8223 60.9999C10.8223 88.698 33.3019 111.178 60.9999 111.178C88.698 111.178 111.178 88.698 111.178 60.9999C111.178 33.3019 88.698 10.8223 60.9999 10.8223ZM60.9999 101.142C38.8716 101.142 20.8578 83.1283 20.8578 60.9999C20.8578 38.8716 38.8716 20.8578 60.9999 20.8578C83.1283 20.8578 101.142 38.8716 101.142 60.9999C101.142 83.1283 83.1283 101.142 60.9999 101.142ZM80.4688 42.384L50.9644 71.8885L41.531 62.4551C39.5741 60.4981 36.4129 60.4981 34.4559 62.4551C32.499 64.412 32.499 67.5732 34.4559 69.5301L47.452 82.5261C49.4089 84.4831 52.5701 84.4831 54.527 82.5261L87.5941 49.4591C89.551 47.5021 89.551 44.3409 87.5941 42.384C85.6371 40.4271 82.4258 40.4271 80.4688 42.384Z" fill="#3F9E28"/>
</svg>
