<svg width="39" height="39" viewBox="0 0 39 39" fill="none" xmlns="http://www.w3.org/2000/svg">
<path d="M19.5 0C8.72782 0 0 8.72782 0 19.5C0 30.2722 8.72782 39 19.5 39C30.2722 39 39 30.2722 39 19.5C39 8.72782 30.2722 0 19.5 0ZM19.5 35.2258C10.8115 35.2258 3.77419 28.1885 3.77419 19.5C3.77419 10.8115 10.8115 3.77419 19.5 3.77419C28.1885 3.77419 35.2258 10.8115 35.2258 19.5C35.2258 28.1885 28.1885 35.2258 19.5 35.2258ZM24.3593 27.0169L17.6837 22.1655C17.4399 21.9847 17.2984 21.7016 17.2984 21.4028V8.49194C17.2984 7.97298 17.723 7.54839 18.2419 7.54839H20.7581C21.277 7.54839 21.7016 7.97298 21.7016 8.49194V19.6337L26.954 23.455C27.3786 23.7617 27.4651 24.3514 27.1585 24.776L25.6802 26.8125C25.3736 27.2292 24.7839 27.3236 24.3593 27.0169Z" fill="#5F5F5F"/>
</svg>