<svg width="15" height="15" viewBox="0 0 15 15" fill="none" xmlns="http://www.w3.org/2000/svg">
<path d="M6.84375 3.53125C6.84375 3.17578 7.11719 2.875 7.5 2.875C7.85547 2.875 8.15625 3.17578 8.15625 3.53125V6.92187L10.4805 8.45312C10.7813 8.67187 10.8633 9.08203 10.6445 9.38281C10.4531 9.68359 10.043 9.76562 9.74219 9.54687L7.11719 7.79687C6.95312 7.6875 6.84375 7.46875 6.84375 7.25V3.53125ZM7.5 0.249999C11.3555 0.249999 14.5 3.39453 14.5 7.25C14.5 11.1328 11.3555 14.25 7.5 14.25C3.61719 14.25 0.5 11.1328 0.5 7.25C0.5 3.39453 3.61719 0.249999 7.5 0.249999ZM1.8125 7.25C1.8125 10.3945 4.35547 12.9375 7.5 12.9375C10.6172 12.9375 13.1875 10.3945 13.1875 7.25C13.1875 4.13281 10.6172 1.5625 7.5 1.5625C4.35547 1.5625 1.8125 4.13281 1.8125 7.25Z" fill="#9A9A9A"/>
</svg>
