<svg width="20" height="23" viewBox="0 0 20 23" fill="none" xmlns="http://www.w3.org/2000/svg">
<g id="&#240;&#159;&#166;&#134; icon &#34;close&#34;">
<path id="Vector" d="M15.2496 5.43696C14.9246 5.06561 14.3996 5.06561 14.0746 5.43696L9.99961 10.0835L5.92461 5.42743C5.59961 5.05609 5.07461 5.05609 4.74961 5.42743C4.42461 5.79878 4.42461 6.39864 4.74961 6.76999L8.82461 11.4261L4.74961 16.0822C4.42461 16.4535 4.42461 17.0534 4.74961 17.4247C5.07461 17.7961 5.59961 17.7961 5.92461 17.4247L9.99961 12.7686L14.0746 17.4247C14.3996 17.7961 14.9246 17.7961 15.2496 17.4247C15.5746 17.0534 15.5746 16.4535 15.2496 16.0822L11.1746 11.4261L15.2496 6.76999C15.5663 6.40817 15.5663 5.79878 15.2496 5.43696Z" fill="black"/>
</g>
</svg>
