<svg width="108" height="45" viewBox="0 0 108 45" fill="none" xmlns="http://www.w3.org/2000/svg">
<rect y="0.212891" width="108" height="44" rx="10" fill="#519AEB"/>
<path d="M22.688 28.3729C21.8347 28.3729 21.04 28.2342 20.304 27.9569C19.5787 27.6689 18.944 27.2689 18.4 26.7569C17.8667 26.2342 17.4507 25.6209 17.152 24.9169C16.8533 24.2129 16.704 23.4449 16.704 22.6129C16.704 21.7809 16.8533 21.0129 17.152 20.3089C17.4507 19.6049 17.872 18.9969 18.416 18.4849C18.96 17.9622 19.5947 17.5622 20.32 17.2849C21.0453 16.9969 21.84 16.8529 22.704 16.8529C23.6213 16.8529 24.4587 17.0129 25.216 17.3329C25.9733 17.6422 26.6133 18.1062 27.136 18.7249L25.792 19.9889C25.3867 19.5516 24.9333 19.2262 24.432 19.0129C23.9307 18.7889 23.3867 18.6769 22.8 18.6769C22.2133 18.6769 21.6747 18.7729 21.184 18.9649C20.704 19.1569 20.2827 19.4289 19.92 19.7809C19.568 20.1329 19.2907 20.5489 19.088 21.0289C18.896 21.5089 18.8 22.0369 18.8 22.6129C18.8 23.1889 18.896 23.7169 19.088 24.1969C19.2907 24.6769 19.568 25.0929 19.92 25.4449C20.2827 25.7969 20.704 26.0689 21.184 26.2609C21.6747 26.4529 22.2133 26.5489 22.8 26.5489C23.3867 26.5489 23.9307 26.4422 24.432 26.2289C24.9333 26.0049 25.3867 25.6689 25.792 25.2209L27.136 26.5009C26.6133 27.1089 25.9733 27.5729 25.216 27.8929C24.4587 28.2129 23.616 28.3729 22.688 28.3729ZM32.4489 28.3249C31.5742 28.3249 30.7955 28.1382 30.1129 27.7649C29.4302 27.3809 28.8915 26.8582 28.4969 26.1969C28.1022 25.5356 27.9049 24.7836 27.9049 23.9409C27.9049 23.0876 28.1022 22.3356 28.4969 21.6849C28.8915 21.0236 29.4302 20.5062 30.1129 20.1329C30.7955 19.7596 31.5742 19.5729 32.4489 19.5729C33.3342 19.5729 34.1182 19.7596 34.8009 20.1329C35.4942 20.5062 36.0329 21.0182 36.4169 21.6689C36.8115 22.3196 37.0089 23.0769 37.0089 23.9409C37.0089 24.7836 36.8115 25.5356 36.4169 26.1969C36.0329 26.8582 35.4942 27.3809 34.8009 27.7649C34.1182 28.1382 33.3342 28.3249 32.4489 28.3249ZM32.4489 26.6129C32.9395 26.6129 33.3769 26.5062 33.7609 26.2929C34.1449 26.0796 34.4435 25.7702 34.6569 25.3649C34.8809 24.9596 34.9929 24.4849 34.9929 23.9409C34.9929 23.3862 34.8809 22.9116 34.6569 22.5169C34.4435 22.1116 34.1449 21.8022 33.7609 21.5889C33.3769 21.3756 32.9449 21.2689 32.4649 21.2689C31.9742 21.2689 31.5369 21.3756 31.1529 21.5889C30.7795 21.8022 30.4809 22.1116 30.2569 22.5169C30.0329 22.9116 29.9209 23.3862 29.9209 23.9409C29.9209 24.4849 30.0329 24.9596 30.2569 25.3649C30.4809 25.7702 30.7795 26.0796 31.1529 26.2929C31.5369 26.5062 31.9689 26.6129 32.4489 26.6129ZM43.7694 19.5729C44.452 19.5729 45.06 19.7062 45.5934 19.9729C46.1374 20.2396 46.564 20.6502 46.8734 21.2049C47.1827 21.7489 47.3374 22.4529 47.3374 23.3169V28.2129H45.3374V23.5729C45.3374 22.8156 45.156 22.2502 44.7934 21.8769C44.4414 21.5036 43.9454 21.3169 43.3054 21.3169C42.836 21.3169 42.42 21.4129 42.0574 21.6049C41.6947 21.7969 41.412 22.0849 41.2094 22.4689C41.0174 22.8422 40.9214 23.3169 40.9214 23.8929V28.2129H38.9214V19.6689H40.8254V21.9729L40.4894 21.2689C40.788 20.7249 41.22 20.3089 41.7854 20.0209C42.3614 19.7222 43.0227 19.5729 43.7694 19.5729ZM53.0905 28.3249C52.1518 28.3249 51.4265 28.0849 50.9145 27.6049C50.4025 27.1142 50.1465 26.3942 50.1465 25.4449V17.7809H52.1465V25.3969C52.1465 25.8022 52.2478 26.1169 52.4505 26.3409C52.6638 26.5649 52.9572 26.6769 53.3305 26.6769C53.7785 26.6769 54.1518 26.5596 54.4505 26.3249L55.0105 27.7489C54.7758 27.9409 54.4878 28.0849 54.1465 28.1809C53.8052 28.2769 53.4532 28.3249 53.0905 28.3249ZM48.7385 21.3329V19.7329H54.4345V21.3329H48.7385ZM56.6558 28.2129V19.6689H58.6558V28.2129H56.6558ZM57.6638 18.2609C57.2904 18.2609 56.9811 18.1436 56.7358 17.9089C56.5011 17.6742 56.3838 17.3916 56.3838 17.0609C56.3838 16.7196 56.5011 16.4369 56.7358 16.2129C56.9811 15.9782 57.2904 15.8609 57.6638 15.8609C58.0371 15.8609 58.3411 15.9729 58.5758 16.1969C58.8211 16.4102 58.9438 16.6822 58.9438 17.0129C58.9438 17.3649 58.8264 17.6636 58.5918 17.9089C58.3571 18.1436 58.0478 18.2609 57.6638 18.2609ZM66.1288 19.5729C66.8114 19.5729 67.4194 19.7062 67.9528 19.9729C68.4968 20.2396 68.9234 20.6502 69.2328 21.2049C69.5421 21.7489 69.6968 22.4529 69.6968 23.3169V28.2129H67.6968V23.5729C67.6968 22.8156 67.5154 22.2502 67.1528 21.8769C66.8008 21.5036 66.3048 21.3169 65.6648 21.3169C65.1954 21.3169 64.7794 21.4129 64.4168 21.6049C64.0541 21.7969 63.7714 22.0849 63.5688 22.4689C63.3768 22.8422 63.2808 23.3169 63.2808 23.8929V28.2129H61.2808V19.6689H63.1848V21.9729L62.8488 21.2689C63.1474 20.7249 63.5794 20.3089 64.1448 20.0209C64.7208 19.7222 65.3821 19.5729 66.1288 19.5729ZM75.8499 28.3249C75.1245 28.3249 74.4845 28.1916 73.9299 27.9249C73.3752 27.6476 72.9432 27.2316 72.6339 26.6769C72.3245 26.1116 72.1699 25.4022 72.1699 24.5489V19.6689H74.1699V24.2769C74.1699 25.0449 74.3405 25.6209 74.6819 26.0049C75.0339 26.3782 75.5299 26.5649 76.1699 26.5649C76.6392 26.5649 77.0445 26.4689 77.3859 26.2769C77.7379 26.0849 78.0099 25.7969 78.2019 25.4129C78.4045 25.0289 78.5059 24.5542 78.5059 23.9889V19.6689H80.5059V28.2129H78.6019V25.9089L78.9379 26.6129C78.6499 27.1676 78.2285 27.5942 77.6739 27.8929C77.1192 28.1809 76.5112 28.3249 75.8499 28.3249ZM87.1405 28.3249C86.1912 28.3249 85.3592 28.1382 84.6445 27.7649C83.9405 27.3809 83.3912 26.8582 82.9965 26.1969C82.6125 25.5356 82.4205 24.7836 82.4205 23.9409C82.4205 23.0876 82.6072 22.3356 82.9805 21.6849C83.3645 21.0236 83.8872 20.5062 84.5485 20.1329C85.2205 19.7596 85.9832 19.5729 86.8365 19.5729C87.6685 19.5729 88.4098 19.7542 89.0605 20.1169C89.7112 20.4796 90.2232 20.9916 90.5965 21.6529C90.9698 22.3142 91.1565 23.0929 91.1565 23.9889C91.1565 24.0742 91.1512 24.1702 91.1405 24.2769C91.1405 24.3836 91.1352 24.4849 91.1245 24.5809H84.0045V23.2529H90.0685L89.2845 23.6689C89.2952 23.1782 89.1938 22.7462 88.9805 22.3729C88.7672 21.9996 88.4738 21.7062 88.1005 21.4929C87.7378 21.2796 87.3165 21.1729 86.8365 21.1729C86.3458 21.1729 85.9138 21.2796 85.5405 21.4929C85.1778 21.7062 84.8898 22.0049 84.6765 22.3889C84.4738 22.7622 84.3725 23.2049 84.3725 23.7169V24.0369C84.3725 24.5489 84.4898 25.0022 84.7245 25.3969C84.9592 25.7916 85.2898 26.0956 85.7165 26.3089C86.1432 26.5222 86.6338 26.6289 87.1885 26.6289C87.6685 26.6289 88.1005 26.5542 88.4845 26.4049C88.8685 26.2556 89.2098 26.0209 89.5085 25.7009L90.5805 26.9329C90.1965 27.3809 89.7112 27.7276 89.1245 27.9729C88.5485 28.2076 87.8872 28.3249 87.1405 28.3249Z" fill="#FFFDFD"/>
</svg>
