<svg xmlns="http://www.w3.org/2000/svg" width="100" height="48" viewBox="0 0 100 48" fill="none">
<rect width="100" height="48" rx="10" fill="#519AEB"/>
<path d="M17.88 31V17H24C25.52 17 26.8533 17.2933 28 17.88C29.1467 18.4667 30.04 19.28 30.68 20.32C31.32 21.36 31.64 22.5867 31.64 24C31.64 25.4 31.32 26.6267 30.68 27.68C30.04 28.72 29.1467 29.5333 28 30.12C26.8533 30.7067 25.52 31 24 31H17.88ZM20.48 28.8H23.88C24.9333 28.8 25.84 28.6 26.6 28.2C27.3733 27.8 27.9667 27.24 28.38 26.52C28.8067 25.8 29.02 24.96 29.02 24C29.02 23.0267 28.8067 22.1867 28.38 21.48C27.9667 20.76 27.3733 20.2 26.6 19.8C25.84 19.4 24.9333 19.2 23.88 19.2H20.48V28.8ZM39.1834 31.14C37.9968 31.14 36.9568 30.9067 36.0634 30.44C35.1834 29.96 34.4968 29.3067 34.0034 28.48C33.5234 27.6533 33.2834 26.7133 33.2834 25.66C33.2834 24.5933 33.5168 23.6533 33.9834 22.84C34.4634 22.0133 35.1168 21.3667 35.9434 20.9C36.7834 20.4333 37.7368 20.2 38.8034 20.2C39.8434 20.2 40.7701 20.4267 41.5834 20.88C42.3968 21.3333 43.0368 21.9733 43.5034 22.8C43.9701 23.6267 44.2034 24.6 44.2034 25.72C44.2034 25.8267 44.1968 25.9467 44.1834 26.08C44.1834 26.2133 44.1768 26.34 44.1634 26.46H35.2634V24.8H42.8434L41.8634 25.32C41.8768 24.7067 41.7501 24.1667 41.4834 23.7C41.2168 23.2333 40.8501 22.8667 40.3834 22.6C39.9301 22.3333 39.4034 22.2 38.8034 22.2C38.1901 22.2 37.6501 22.3333 37.1834 22.6C36.7301 22.8667 36.3701 23.24 36.1034 23.72C35.8501 24.1867 35.7234 24.74 35.7234 25.38V25.78C35.7234 26.42 35.8701 26.9867 36.1634 27.48C36.4568 27.9733 36.8701 28.3533 37.4034 28.62C37.9368 28.8867 38.5501 29.02 39.2434 29.02C39.8434 29.02 40.3834 28.9267 40.8634 28.74C41.3434 28.5533 41.7701 28.26 42.1434 27.86L43.4834 29.4C43.0034 29.96 42.3968 30.3933 41.6634 30.7C40.9434 30.9933 40.1168 31.14 39.1834 31.14ZM46.6048 31V16.16H49.1048V31H46.6048ZM57.4061 31.14C56.2194 31.14 55.1794 30.9067 54.2861 30.44C53.4061 29.96 52.7194 29.3067 52.2261 28.48C51.7461 27.6533 51.5061 26.7133 51.5061 25.66C51.5061 24.5933 51.7394 23.6533 52.2061 22.84C52.6861 22.0133 53.3394 21.3667 54.1661 20.9C55.0061 20.4333 55.9594 20.2 57.0261 20.2C58.0661 20.2 58.9928 20.4267 59.8061 20.88C60.6194 21.3333 61.2594 21.9733 61.7261 22.8C62.1928 23.6267 62.4261 24.6 62.4261 25.72C62.4261 25.8267 62.4194 25.9467 62.4061 26.08C62.4061 26.2133 62.3994 26.34 62.3861 26.46H53.4861V24.8H61.0661L60.0861 25.32C60.0994 24.7067 59.9728 24.1667 59.7061 23.7C59.4394 23.2333 59.0728 22.8667 58.6061 22.6C58.1528 22.3333 57.6261 22.2 57.0261 22.2C56.4128 22.2 55.8728 22.3333 55.4061 22.6C54.9528 22.8667 54.5928 23.24 54.3261 23.72C54.0728 24.1867 53.9461 24.74 53.9461 25.38V25.78C53.9461 26.42 54.0928 26.9867 54.3861 27.48C54.6794 27.9733 55.0928 28.3533 55.6261 28.62C56.1594 28.8867 56.7728 29.02 57.4661 29.02C58.0661 29.02 58.6061 28.9267 59.0861 28.74C59.5661 28.5533 59.9928 28.26 60.3661 27.86L61.7061 29.4C61.2261 29.96 60.6194 30.3933 59.8861 30.7C59.1661 30.9933 58.3394 31.14 57.4061 31.14ZM68.8475 31.14C67.6742 31.14 66.7675 30.84 66.1275 30.24C65.4875 29.6267 65.1675 28.7267 65.1675 27.54V17.96H67.6675V27.48C67.6675 27.9867 67.7942 28.38 68.0475 28.66C68.3142 28.94 68.6808 29.08 69.1475 29.08C69.7075 29.08 70.1742 28.9333 70.5475 28.64L71.2475 30.42C70.9542 30.66 70.5942 30.84 70.1675 30.96C69.7408 31.08 69.3008 31.14 68.8475 31.14ZM63.4075 22.4V20.4H70.5275V22.4H63.4075ZM77.9725 31.14C76.7858 31.14 75.7458 30.9067 74.8525 30.44C73.9725 29.96 73.2858 29.3067 72.7925 28.48C72.3125 27.6533 72.0725 26.7133 72.0725 25.66C72.0725 24.5933 72.3058 23.6533 72.7725 22.84C73.2525 22.0133 73.9058 21.3667 74.7325 20.9C75.5725 20.4333 76.5258 20.2 77.5925 20.2C78.6325 20.2 79.5592 20.4267 80.3725 20.88C81.1858 21.3333 81.8258 21.9733 82.2925 22.8C82.7592 23.6267 82.9925 24.6 82.9925 25.72C82.9925 25.8267 82.9858 25.9467 82.9725 26.08C82.9725 26.2133 82.9658 26.34 82.9525 26.46H74.0525V24.8H81.6325L80.6525 25.32C80.6658 24.7067 80.5392 24.1667 80.2725 23.7C80.0058 23.2333 79.6392 22.8667 79.1725 22.6C78.7192 22.3333 78.1925 22.2 77.5925 22.2C76.9792 22.2 76.4392 22.3333 75.9725 22.6C75.5192 22.8667 75.1592 23.24 74.8925 23.72C74.6392 24.1867 74.5125 24.74 74.5125 25.38V25.78C74.5125 26.42 74.6592 26.9867 74.9525 27.48C75.2458 27.9733 75.6592 28.3533 76.1925 28.62C76.7258 28.8867 77.3392 29.02 78.0325 29.02C78.6325 29.02 79.1725 28.9267 79.6525 28.74C80.1325 28.5533 80.5592 28.26 80.9325 27.86L82.2725 29.4C81.7925 29.96 81.1858 30.3933 80.4525 30.7C79.7325 30.9933 78.9058 31.14 77.9725 31.14Z" fill="#FFFDFD"/>
</svg>