<svg width="22" height="19" viewBox="0 0 22 19" fill="none" xmlns="http://www.w3.org/2000/svg">
<path d="M21.9531 10C21.9531 10.8438 21.2969 11.5 20.5 11.5H6.10938L11.0312 16.4688C11.6406 17.0312 11.6406 18.0156 11.0312 18.5781C10.75 18.8594 10.375 19 10 19C9.57812 19 9.20312 18.8594 8.92188 18.5781L1.42188 11.0781C0.8125 10.5156 0.8125 9.53125 1.42188 8.96875L8.92188 1.46875C9.48438 0.859375 10.4688 0.859375 11.0312 1.46875C11.6406 2.03125 11.6406 3.01562 11.0312 3.57812L6.10938 8.5H20.5C21.2969 8.5 21.9531 9.20312 21.9531 10Z" fill="#9A9A9A"/>
</svg>