<svg width="25" height="25" viewBox="0 0 25 25" fill="none" xmlns="http://www.w3.org/2000/svg">
<path d="M21.9531 0H3.95312C2.26562 0 0.953125 1.35938 0.953125 3V16.4531C0.953125 18.0938 2.26562 19.4062 3.95312 19.4062H8.45312V23.3438C8.45312 23.8125 8.96875 24.0469 9.34375 23.7656L15.2031 19.4062H21.9531C23.5938 19.4062 24.9531 18.0469 24.9531 16.4531V3C24.9531 1.35938 23.6406 0 21.9531 0ZM22.75 16.5C22.75 16.9219 22.375 17.25 22 17.25H14.5L10.75 20.0625V17.25H4C3.57812 17.25 3.25 16.9219 3.25 16.5V3C3.25 2.625 3.57812 2.25 4 2.25H22C22.375 2.25 22.75 2.625 22.75 3V16.5Z" fill="#9A9A9A"/>
</svg>
