<svg width="21" height="22" viewBox="0 0 21 22" fill="none" xmlns="http://www.w3.org/2000/svg">
<path d="M18.4609 1H3.46094C2.05469 1 0.960938 2.13281 0.960938 3.5V14.7109C0.960938 16.0781 2.05469 17.1719 3.46094 17.1719H7.21094V20.4531C7.21094 20.8438 7.64062 21.0391 7.95312 20.8047L12.8359 17.1719H18.4609C19.8281 17.1719 20.9609 16.0391 20.9609 14.7109V3.5C20.9609 2.13281 19.8672 1 18.4609 1ZM19.125 14.75C19.125 15.1016 18.8125 15.375 18.5 15.375H12.25L9.125 17.7188V15.375H3.5C3.14844 15.375 2.875 15.1016 2.875 14.75V3.5C2.875 3.1875 3.14844 2.875 3.5 2.875H18.5C18.8125 2.875 19.125 3.1875 19.125 3.5V14.75Z" fill="#FFFDFD"/>
</svg>
