<svg width="21" height="21" viewBox="0 0 21 21" fill="none" xmlns="http://www.w3.org/2000/svg">
<path d="M18.4609 0.5H3.46094C2.05469 0.5 0.960938 1.63281 0.960938 3V14.2109C0.960938 15.5781 2.05469 16.6719 3.46094 16.6719H7.21094V19.9531C7.21094 20.3438 7.64062 20.5391 7.95312 20.3047L12.8359 16.6719H18.4609C19.8281 16.6719 20.9609 15.5391 20.9609 14.2109V3C20.9609 1.63281 19.8672 0.5 18.4609 0.5ZM19.125 14.25C19.125 14.6016 18.8125 14.875 18.5 14.875H12.25L9.125 17.2188V14.875H3.5C3.14844 14.875 2.875 14.6016 2.875 14.25V3C2.875 2.6875 3.14844 2.375 3.5 2.375H18.5C18.8125 2.375 19.125 2.6875 19.125 3V14.25Z" fill="#FFFDFD"/>
</svg>
