<svg width="21" height="21" viewBox="0 0 21 21" fill="none" xmlns="http://www.w3.org/2000/svg">
<path d="M18.4609 0.5C19.8672 0.5 20.9609 1.63281 20.9609 3V14.2109C20.9609 15.5391 19.8281 16.6719 18.4609 16.6719H12.8359L7.95312 20.3047C7.64062 20.5391 7.21094 20.3438 7.21094 19.9531V16.6719H3.46094C2.05469 16.6719 0.960938 15.5781 0.960938 14.2109V3C0.960938 1.63281 2.05469 0.5 3.46094 0.5H18.4609ZM19.125 14.25V3C19.125 2.6875 18.8125 2.375 18.5 2.375H3.5C3.14844 2.375 2.875 2.6875 2.875 3V14.25C2.875 14.6016 3.14844 14.875 3.5 14.875H9.125V17.2188L12.25 14.875H18.5C18.8125 14.875 19.125 14.6016 19.125 14.25Z" fill="#FFFDFD"/>
</svg>
