<svg width="90%" xmlns="http://www.w3.org/2000/svg" style="max-width: 367px; max-height: 33px;" viewBox="0 0 367 33" fill="none">
<rect x="1" y="1" width="324" height="31" rx="11" stroke="#195BA5" stroke-width="2"/>
<rect width="108" height="33" rx="12" fill="#195BA5"/>
<path d="M338.224 22.66C337.435 22.66 336.661 22.548 335.904 22.324C335.157 22.0893 334.528 21.7693 334.016 21.364L334.912 19.748C335.317 20.0787 335.808 20.3453 336.384 20.548C336.96 20.7507 337.563 20.852 338.192 20.852C338.939 20.852 339.52 20.7027 339.936 20.404C340.352 20.0947 340.56 19.6787 340.56 19.156C340.56 18.644 340.368 18.2387 339.984 17.94C339.6 17.6413 338.981 17.492 338.128 17.492H337.104V16.068L340.304 12.26L340.576 13.044H334.56V11.3H342.192V12.692L338.992 16.5L337.904 15.86H338.528C339.904 15.86 340.933 16.1693 341.616 16.788C342.309 17.396 342.656 18.18 342.656 19.14C342.656 19.7693 342.496 20.3507 342.176 20.884C341.856 21.4173 341.365 21.8493 340.704 22.18C340.053 22.5 339.227 22.66 338.224 22.66ZM347.458 22.66C346.669 22.66 345.896 22.548 345.138 22.324C344.392 22.0893 343.762 21.7693 343.25 21.364L344.146 19.748C344.552 20.0787 345.042 20.3453 345.618 20.548C346.194 20.7507 346.797 20.852 347.426 20.852C348.173 20.852 348.754 20.7027 349.17 20.404C349.586 20.0947 349.794 19.6787 349.794 19.156C349.794 18.644 349.602 18.2387 349.218 17.94C348.834 17.6413 348.216 17.492 347.362 17.492H346.338V16.068L349.538 12.26L349.81 13.044H343.794V11.3H351.426V12.692L348.226 16.5L347.138 15.86H347.762C349.138 15.86 350.168 16.1693 350.85 16.788C351.544 17.396 351.89 18.18 351.89 19.14C351.89 19.7693 351.73 20.3507 351.41 20.884C351.09 21.4173 350.6 21.8493 349.938 22.18C349.288 22.5 348.461 22.66 347.458 22.66ZM354.663 22.5L362.311 11.3H363.879L356.231 22.5H354.663ZM355.591 17.332C355.068 17.332 354.604 17.204 354.199 16.948C353.793 16.692 353.479 16.3347 353.255 15.876C353.031 15.4173 352.919 14.8787 352.919 14.26C352.919 13.6413 353.031 13.1027 353.255 12.644C353.479 12.1853 353.793 11.828 354.199 11.572C354.604 11.316 355.068 11.188 355.591 11.188C356.135 11.188 356.604 11.316 356.999 11.572C357.404 11.828 357.719 12.1853 357.943 12.644C358.167 13.1027 358.279 13.6413 358.279 14.26C358.279 14.8787 358.167 15.4173 357.943 15.876C357.719 16.3347 357.404 16.692 356.999 16.948C356.604 17.204 356.135 17.332 355.591 17.332ZM355.607 16.212C356.033 16.212 356.364 16.0467 356.599 15.716C356.844 15.3747 356.967 14.8893 356.967 14.26C356.967 13.6307 356.844 13.1507 356.599 12.82C356.364 12.4787 356.033 12.308 355.607 12.308C355.18 12.308 354.839 12.4787 354.583 12.82C354.337 13.1613 354.215 13.6413 354.215 14.26C354.215 14.8787 354.337 15.3587 354.583 15.7C354.839 16.0413 355.18 16.212 355.607 16.212ZM362.935 22.612C362.412 22.612 361.948 22.484 361.543 22.228C361.137 21.972 360.823 21.6147 360.599 21.156C360.375 20.6973 360.263 20.1587 360.263 19.54C360.263 18.9213 360.375 18.3827 360.599 17.924C360.823 17.4653 361.137 17.108 361.543 16.852C361.948 16.596 362.412 16.468 362.935 16.468C363.479 16.468 363.948 16.596 364.343 16.852C364.748 17.108 365.063 17.4653 365.287 17.924C365.511 18.3827 365.623 18.9213 365.623 19.54C365.623 20.1587 365.511 20.6973 365.287 21.156C365.063 21.6147 364.748 21.972 364.343 22.228C363.948 22.484 363.479 22.612 362.935 22.612ZM362.935 21.492C363.361 21.492 363.697 21.3213 363.943 20.98C364.188 20.6387 364.311 20.1587 364.311 19.54C364.311 18.9213 364.188 18.4413 363.943 18.1C363.697 17.7587 363.361 17.588 362.935 17.588C362.519 17.588 362.183 17.7587 361.927 18.1C361.681 18.4307 361.559 18.9107 361.559 19.54C361.559 20.1693 361.681 20.6547 361.927 20.996C362.183 21.3267 362.519 21.492 362.935 21.492Z" fill="black"/>
</svg>