<svg width="90%" xmlns="http://www.w3.org/2000/svg" style="max-width: 359px; max-height: 33px;" viewBox="0 0 359 33" fill="none">
<rect x="1" y="1" width="324" height="31" rx="11" stroke="#195BA5" stroke-width="2"/>
<path d="M339.376 22.66C338.491 22.66 337.691 22.436 336.976 21.988C336.272 21.54 335.717 20.8893 335.312 20.036C334.907 19.172 334.704 18.1267 334.704 16.9C334.704 15.6733 334.907 14.6333 335.312 13.78C335.717 12.916 336.272 12.26 336.976 11.812C337.691 11.364 338.491 11.14 339.376 11.14C340.272 11.14 341.072 11.364 341.776 11.812C342.48 12.26 343.035 12.916 343.44 13.78C343.856 14.6333 344.064 15.6733 344.064 16.9C344.064 18.1267 343.856 19.172 343.44 20.036C343.035 20.8893 342.48 21.54 341.776 21.988C341.072 22.436 340.272 22.66 339.376 22.66ZM339.376 20.852C339.899 20.852 340.352 20.7133 340.736 20.436C341.12 20.148 341.419 19.7107 341.632 19.124C341.856 18.5373 341.968 17.796 341.968 16.9C341.968 15.9933 341.856 15.252 341.632 14.676C341.419 14.0893 341.12 13.6573 340.736 13.38C340.352 13.092 339.899 12.948 339.376 12.948C338.875 12.948 338.427 13.092 338.032 13.38C337.648 13.6573 337.344 14.0893 337.12 14.676C336.907 15.252 336.8 15.9933 336.8 16.9C336.8 17.796 336.907 18.5373 337.12 19.124C337.344 19.7107 337.648 20.148 338.032 20.436C338.427 20.7133 338.875 20.852 339.376 20.852ZM347.038 22.5L354.686 11.3H356.254L348.606 22.5H347.038ZM347.966 17.332C347.443 17.332 346.979 17.204 346.574 16.948C346.168 16.692 345.854 16.3347 345.63 15.876C345.406 15.4173 345.294 14.8787 345.294 14.26C345.294 13.6413 345.406 13.1027 345.63 12.644C345.854 12.1853 346.168 11.828 346.574 11.572C346.979 11.316 347.443 11.188 347.966 11.188C348.51 11.188 348.979 11.316 349.374 11.572C349.779 11.828 350.094 12.1853 350.318 12.644C350.542 13.1027 350.654 13.6413 350.654 14.26C350.654 14.8787 350.542 15.4173 350.318 15.876C350.094 16.3347 349.779 16.692 349.374 16.948C348.979 17.204 348.51 17.332 347.966 17.332ZM347.982 16.212C348.408 16.212 348.739 16.0467 348.974 15.716C349.219 15.3747 349.342 14.8893 349.342 14.26C349.342 13.6307 349.219 13.1507 348.974 12.82C348.739 12.4787 348.408 12.308 347.982 12.308C347.555 12.308 347.214 12.4787 346.958 12.82C346.712 13.1613 346.59 13.6413 346.59 14.26C346.59 14.8787 346.712 15.3587 346.958 15.7C347.214 16.0413 347.555 16.212 347.982 16.212ZM355.31 22.612C354.787 22.612 354.323 22.484 353.918 22.228C353.512 21.972 353.198 21.6147 352.974 21.156C352.75 20.6973 352.638 20.1587 352.638 19.54C352.638 18.9213 352.75 18.3827 352.974 17.924C353.198 17.4653 353.512 17.108 353.918 16.852C354.323 16.596 354.787 16.468 355.31 16.468C355.854 16.468 356.323 16.596 356.718 16.852C357.123 17.108 357.438 17.4653 357.662 17.924C357.886 18.3827 357.998 18.9213 357.998 19.54C357.998 20.1587 357.886 20.6973 357.662 21.156C357.438 21.6147 357.123 21.972 356.718 22.228C356.323 22.484 355.854 22.612 355.31 22.612ZM355.31 21.492C355.736 21.492 356.072 21.3213 356.318 20.98C356.563 20.6387 356.686 20.1587 356.686 19.54C356.686 18.9213 356.563 18.4413 356.318 18.1C356.072 17.7587 355.736 17.588 355.31 17.588C354.894 17.588 354.558 17.7587 354.302 18.1C354.056 18.4307 353.934 18.9107 353.934 19.54C353.934 20.1693 354.056 20.6547 354.302 20.996C354.558 21.3267 354.894 21.492 355.31 21.492Z" fill="black"/>
</svg>