<svg width="90%" style="max-width: 367px; max-height: 33px;" viewBox="0 0 367 33" fill="none" xmlns="http://www.w3.org/2000/svg">
<rect x="1" y="1" width="324" height="31" rx="11" stroke="#195BA5" stroke-width="2"/>
<rect width="270.184" height="33" rx="12" fill="#195BA5"/>
<path d="M336.576 22.5L341.2 12.132L341.744 13.06H335.392L336.384 12.052V14.964H334.448V11.3H343.152V12.692L338.8 22.5H336.576ZM347.869 22.66C347.08 22.66 346.306 22.548 345.549 22.324C344.802 22.0893 344.173 21.7693 343.661 21.364L344.541 19.748C344.946 20.0787 345.437 20.3453 346.013 20.548C346.6 20.7507 347.208 20.852 347.837 20.852C348.573 20.852 349.149 20.6973 349.565 20.388C349.992 20.0787 350.205 19.6627 350.205 19.14C350.205 18.788 350.114 18.4787 349.933 18.212C349.762 17.9453 349.453 17.7427 349.005 17.604C348.568 17.4653 347.965 17.396 347.197 17.396H344.493L345.069 11.3H351.645V13.044H345.837L346.925 12.052L346.493 16.612L345.405 15.636H347.661C348.77 15.636 349.661 15.7853 350.333 16.084C351.016 16.372 351.512 16.7773 351.821 17.3C352.141 17.812 352.301 18.3987 352.301 19.06C352.301 19.7107 352.141 20.308 351.821 20.852C351.501 21.396 351.01 21.8333 350.349 22.164C349.698 22.4947 348.872 22.66 347.869 22.66ZM354.913 22.5L362.561 11.3H364.129L356.481 22.5H354.913ZM355.841 17.332C355.318 17.332 354.854 17.204 354.449 16.948C354.043 16.692 353.729 16.3347 353.505 15.876C353.281 15.4173 353.169 14.8787 353.169 14.26C353.169 13.6413 353.281 13.1027 353.505 12.644C353.729 12.1853 354.043 11.828 354.449 11.572C354.854 11.316 355.318 11.188 355.841 11.188C356.385 11.188 356.854 11.316 357.249 11.572C357.654 11.828 357.969 12.1853 358.193 12.644C358.417 13.1027 358.529 13.6413 358.529 14.26C358.529 14.8787 358.417 15.4173 358.193 15.876C357.969 16.3347 357.654 16.692 357.249 16.948C356.854 17.204 356.385 17.332 355.841 17.332ZM355.857 16.212C356.283 16.212 356.614 16.0467 356.849 15.716C357.094 15.3747 357.217 14.8893 357.217 14.26C357.217 13.6307 357.094 13.1507 356.849 12.82C356.614 12.4787 356.283 12.308 355.857 12.308C355.43 12.308 355.089 12.4787 354.833 12.82C354.587 13.1613 354.465 13.6413 354.465 14.26C354.465 14.8787 354.587 15.3587 354.833 15.7C355.089 16.0413 355.43 16.212 355.857 16.212ZM363.185 22.612C362.662 22.612 362.198 22.484 361.793 22.228C361.387 21.972 361.073 21.6147 360.849 21.156C360.625 20.6973 360.513 20.1587 360.513 19.54C360.513 18.9213 360.625 18.3827 360.849 17.924C361.073 17.4653 361.387 17.108 361.793 16.852C362.198 16.596 362.662 16.468 363.185 16.468C363.729 16.468 364.198 16.596 364.593 16.852C364.998 17.108 365.313 17.4653 365.537 17.924C365.761 18.3827 365.873 18.9213 365.873 19.54C365.873 20.1587 365.761 20.6973 365.537 21.156C365.313 21.6147 364.998 21.972 364.593 22.228C364.198 22.484 363.729 22.612 363.185 22.612ZM363.185 21.492C363.611 21.492 363.947 21.3213 364.193 20.98C364.438 20.6387 364.561 20.1587 364.561 19.54C364.561 18.9213 364.438 18.4413 364.193 18.1C363.947 17.7587 363.611 17.588 363.185 17.588C362.769 17.588 362.433 17.7587 362.177 18.1C361.931 18.4307 361.809 18.9107 361.809 19.54C361.809 20.1693 361.931 20.6547 362.177 20.996C362.433 21.3267 362.769 21.492 363.185 21.492Z" fill="black"/>
</svg>
