<svg width="90%" style="max-width: 367px; max-height: 33px;" viewBox="0 0 367 33" fill="none" xmlns="http://www.w3.org/2000/svg">
<rect x="1" y="1" width="324" height="31" rx="11" stroke="#195BA5" stroke-width="2"/>
<rect width="90.0613" height="33" rx="12" fill="#195BA5"/>
<path d="M334.56 22.5V21.108L339.008 16.884C339.381 16.532 339.659 16.2227 339.84 15.956C340.021 15.6893 340.139 15.444 340.192 15.22C340.256 14.9853 340.288 14.7667 340.288 14.564C340.288 14.052 340.112 13.6573 339.76 13.38C339.408 13.092 338.891 12.948 338.208 12.948C337.664 12.948 337.168 13.044 336.72 13.236C336.283 13.428 335.904 13.7213 335.584 14.116L334.128 12.996C334.565 12.4093 335.152 11.956 335.888 11.636C336.635 11.3053 337.467 11.14 338.384 11.14C339.195 11.14 339.899 11.2733 340.496 11.54C341.104 11.796 341.568 12.164 341.888 12.644C342.219 13.124 342.384 13.6947 342.384 14.356C342.384 14.7187 342.336 15.0813 342.24 15.444C342.144 15.796 341.963 16.1693 341.696 16.564C341.429 16.9587 341.04 17.4013 340.528 17.892L336.704 21.524L336.272 20.74H342.816V22.5H334.56ZM347.729 22.66C346.939 22.66 346.166 22.548 345.409 22.324C344.662 22.0893 344.033 21.7693 343.521 21.364L344.401 19.748C344.806 20.0787 345.297 20.3453 345.873 20.548C346.459 20.7507 347.067 20.852 347.697 20.852C348.433 20.852 349.009 20.6973 349.425 20.388C349.851 20.0787 350.065 19.6627 350.065 19.14C350.065 18.788 349.974 18.4787 349.793 18.212C349.622 17.9453 349.313 17.7427 348.865 17.604C348.427 17.4653 347.825 17.396 347.057 17.396H344.353L344.929 11.3H351.505V13.044H345.697L346.785 12.052L346.353 16.612L345.265 15.636H347.521C348.63 15.636 349.521 15.7853 350.193 16.084C350.875 16.372 351.371 16.7773 351.681 17.3C352.001 17.812 352.161 18.3987 352.161 19.06C352.161 19.7107 352.001 20.308 351.681 20.852C351.361 21.396 350.87 21.8333 350.209 22.164C349.558 22.4947 348.731 22.66 347.729 22.66ZM354.772 22.5L362.42 11.3H363.988L356.34 22.5H354.772ZM355.7 17.332C355.177 17.332 354.713 17.204 354.308 16.948C353.903 16.692 353.588 16.3347 353.364 15.876C353.14 15.4173 353.028 14.8787 353.028 14.26C353.028 13.6413 353.14 13.1027 353.364 12.644C353.588 12.1853 353.903 11.828 354.308 11.572C354.713 11.316 355.177 11.188 355.7 11.188C356.244 11.188 356.713 11.316 357.108 11.572C357.513 11.828 357.828 12.1853 358.052 12.644C358.276 13.1027 358.388 13.6413 358.388 14.26C358.388 14.8787 358.276 15.4173 358.052 15.876C357.828 16.3347 357.513 16.692 357.108 16.948C356.713 17.204 356.244 17.332 355.7 17.332ZM355.716 16.212C356.143 16.212 356.473 16.0467 356.708 15.716C356.953 15.3747 357.076 14.8893 357.076 14.26C357.076 13.6307 356.953 13.1507 356.708 12.82C356.473 12.4787 356.143 12.308 355.716 12.308C355.289 12.308 354.948 12.4787 354.692 12.82C354.447 13.1613 354.324 13.6413 354.324 14.26C354.324 14.8787 354.447 15.3587 354.692 15.7C354.948 16.0413 355.289 16.212 355.716 16.212ZM363.044 22.612C362.521 22.612 362.057 22.484 361.652 22.228C361.247 21.972 360.932 21.6147 360.708 21.156C360.484 20.6973 360.372 20.1587 360.372 19.54C360.372 18.9213 360.484 18.3827 360.708 17.924C360.932 17.4653 361.247 17.108 361.652 16.852C362.057 16.596 362.521 16.468 363.044 16.468C363.588 16.468 364.057 16.596 364.452 16.852C364.857 17.108 365.172 17.4653 365.396 17.924C365.62 18.3827 365.732 18.9213 365.732 19.54C365.732 20.1587 365.62 20.6973 365.396 21.156C365.172 21.6147 364.857 21.972 364.452 22.228C364.057 22.484 363.588 22.612 363.044 22.612ZM363.044 21.492C363.471 21.492 363.807 21.3213 364.052 20.98C364.297 20.6387 364.42 20.1587 364.42 19.54C364.42 18.9213 364.297 18.4413 364.052 18.1C363.807 17.7587 363.471 17.588 363.044 17.588C362.628 17.588 362.292 17.7587 362.036 18.1C361.791 18.4307 361.668 18.9107 361.668 19.54C361.668 20.1693 361.791 20.6547 362.036 20.996C362.292 21.3267 362.628 21.492 363.044 21.492Z" fill="black"/>
</svg>
