<svg width="90%" style="max-width: 368px; max-height: 33px;" viewBox="0 0 368 33" fill="none" xmlns="http://www.w3.org/2000/svg">
<rect x="1" y="1" width="324" height="31" rx="11" stroke="#195BA5" stroke-width="2"/>
<rect width="180.613" height="33" rx="12" fill="#195BA5"/>
<path d="M338.416 22.66C337.627 22.66 336.853 22.548 336.096 22.324C335.349 22.0893 334.72 21.7693 334.208 21.364L335.088 19.748C335.493 20.0787 335.984 20.3453 336.56 20.548C337.147 20.7507 337.755 20.852 338.384 20.852C339.12 20.852 339.696 20.6973 340.112 20.388C340.539 20.0787 340.752 19.6627 340.752 19.14C340.752 18.788 340.661 18.4787 340.48 18.212C340.309 17.9453 340 17.7427 339.552 17.604C339.115 17.4653 338.512 17.396 337.744 17.396H335.04L335.616 11.3H342.192V13.044H336.384L337.472 12.052L337.04 16.612L335.952 15.636H338.208C339.317 15.636 340.208 15.7853 340.88 16.084C341.563 16.372 342.059 16.7773 342.368 17.3C342.688 17.812 342.848 18.3987 342.848 19.06C342.848 19.7107 342.688 20.308 342.368 20.852C342.048 21.396 341.557 21.8333 340.896 22.164C340.245 22.4947 339.419 22.66 338.416 22.66ZM348.72 22.66C347.834 22.66 347.034 22.436 346.32 21.988C345.616 21.54 345.061 20.8893 344.656 20.036C344.25 19.172 344.048 18.1267 344.048 16.9C344.048 15.6733 344.25 14.6333 344.656 13.78C345.061 12.916 345.616 12.26 346.32 11.812C347.034 11.364 347.834 11.14 348.72 11.14C349.616 11.14 350.416 11.364 351.12 11.812C351.824 12.26 352.378 12.916 352.784 13.78C353.2 14.6333 353.408 15.6733 353.408 16.9C353.408 18.1267 353.2 19.172 352.784 20.036C352.378 20.8893 351.824 21.54 351.12 21.988C350.416 22.436 349.616 22.66 348.72 22.66ZM348.72 20.852C349.242 20.852 349.696 20.7133 350.08 20.436C350.464 20.148 350.762 19.7107 350.976 19.124C351.2 18.5373 351.312 17.796 351.312 16.9C351.312 15.9933 351.2 15.252 350.976 14.676C350.762 14.0893 350.464 13.6573 350.08 13.38C349.696 13.092 349.242 12.948 348.72 12.948C348.218 12.948 347.77 13.092 347.376 13.38C346.992 13.6573 346.688 14.0893 346.464 14.676C346.25 15.252 346.144 15.9933 346.144 16.9C346.144 17.796 346.25 18.5373 346.464 19.124C346.688 19.7107 346.992 20.148 347.376 20.436C347.77 20.7133 348.218 20.852 348.72 20.852ZM356.381 22.5L364.029 11.3H365.597L357.949 22.5H356.381ZM357.309 17.332C356.787 17.332 356.323 17.204 355.917 16.948C355.512 16.692 355.197 16.3347 354.973 15.876C354.749 15.4173 354.637 14.8787 354.637 14.26C354.637 13.6413 354.749 13.1027 354.973 12.644C355.197 12.1853 355.512 11.828 355.917 11.572C356.323 11.316 356.787 11.188 357.309 11.188C357.853 11.188 358.323 11.316 358.717 11.572C359.123 11.828 359.437 12.1853 359.661 12.644C359.885 13.1027 359.997 13.6413 359.997 14.26C359.997 14.8787 359.885 15.4173 359.661 15.876C359.437 16.3347 359.123 16.692 358.717 16.948C358.323 17.204 357.853 17.332 357.309 17.332ZM357.325 16.212C357.752 16.212 358.083 16.0467 358.317 15.716C358.563 15.3747 358.685 14.8893 358.685 14.26C358.685 13.6307 358.563 13.1507 358.317 12.82C358.083 12.4787 357.752 12.308 357.325 12.308C356.899 12.308 356.557 12.4787 356.301 12.82C356.056 13.1613 355.933 13.6413 355.933 14.26C355.933 14.8787 356.056 15.3587 356.301 15.7C356.557 16.0413 356.899 16.212 357.325 16.212ZM364.653 22.612C364.131 22.612 363.667 22.484 363.261 22.228C362.856 21.972 362.541 21.6147 362.317 21.156C362.093 20.6973 361.981 20.1587 361.981 19.54C361.981 18.9213 362.093 18.3827 362.317 17.924C362.541 17.4653 362.856 17.108 363.261 16.852C363.667 16.596 364.131 16.468 364.653 16.468C365.197 16.468 365.667 16.596 366.061 16.852C366.467 17.108 366.781 17.4653 367.005 17.924C367.229 18.3827 367.341 18.9213 367.341 19.54C367.341 20.1587 367.229 20.6973 367.005 21.156C366.781 21.6147 366.467 21.972 366.061 22.228C365.667 22.484 365.197 22.612 364.653 22.612ZM364.653 21.492C365.08 21.492 365.416 21.3213 365.661 20.98C365.907 20.6387 366.029 20.1587 366.029 19.54C366.029 18.9213 365.907 18.4413 365.661 18.1C365.416 17.7587 365.08 17.588 364.653 17.588C364.237 17.588 363.901 17.7587 363.645 18.1C363.4 18.4307 363.277 18.9107 363.277 19.54C363.277 20.1693 363.4 20.6547 363.645 20.996C363.901 21.3267 364.237 21.492 364.653 21.492Z" fill="black"/>
</svg>
