<svg width="90%" xmlns="http://www.w3.org/2000/svg" style="max-width: 368px; max-height: 33px;" viewBox="0 0 368 33" fill="none">
<rect x="1" y="1" width="324" height="31" rx="11" stroke="#195BA5" stroke-width="2"/>
<rect width="216.589" height="33" rx="12" fill="#195BA5"/>
<path d="M339.552 22.66C338.539 22.66 337.669 22.4467 336.944 22.02C336.219 21.5827 335.664 20.9533 335.28 20.132C334.896 19.3107 334.704 18.2973 334.704 17.092C334.704 15.812 334.933 14.7293 335.392 13.844C335.861 12.9587 336.507 12.2867 337.328 11.828C338.16 11.3693 339.115 11.14 340.192 11.14C340.757 11.14 341.296 11.1987 341.808 11.316C342.331 11.4333 342.773 11.6147 343.136 11.86L342.368 13.428C342.059 13.2253 341.723 13.0867 341.36 13.012C341.008 12.9267 340.635 12.884 340.24 12.884C339.184 12.884 338.347 13.2093 337.728 13.86C337.109 14.5107 336.8 15.4707 336.8 16.74C336.8 16.9427 336.805 17.1827 336.816 17.46C336.827 17.7267 336.864 17.9987 336.928 18.276L336.288 17.572C336.48 17.1347 336.741 16.772 337.072 16.484C337.413 16.1853 337.813 15.9613 338.272 15.812C338.741 15.6627 339.248 15.588 339.792 15.588C340.528 15.588 341.184 15.732 341.76 16.02C342.336 16.2973 342.795 16.6973 343.136 17.22C343.477 17.732 343.648 18.3347 343.648 19.028C343.648 19.764 343.467 20.404 343.104 20.948C342.741 21.492 342.251 21.9133 341.632 22.212C341.013 22.5107 340.32 22.66 339.552 22.66ZM339.44 21.028C339.867 21.028 340.245 20.9533 340.576 20.804C340.907 20.644 341.163 20.42 341.344 20.132C341.536 19.844 341.632 19.508 341.632 19.124C341.632 18.5373 341.429 18.0733 341.024 17.732C340.619 17.3907 340.075 17.22 339.392 17.22C338.944 17.22 338.549 17.3053 338.208 17.476C337.877 17.636 337.611 17.86 337.408 18.148C337.216 18.436 337.12 18.7667 337.12 19.14C337.12 19.4813 337.211 19.796 337.392 20.084C337.573 20.372 337.835 20.6013 338.176 20.772C338.528 20.9427 338.949 21.028 339.44 21.028ZM346.529 22.5L351.153 12.132L351.697 13.06H345.345L346.337 12.052V14.964H344.401V11.3H353.105V12.692L348.753 22.5H346.529ZM355.975 22.5L363.623 11.3H365.191L357.543 22.5H355.975ZM356.903 17.332C356.38 17.332 355.916 17.204 355.511 16.948C355.106 16.692 354.791 16.3347 354.567 15.876C354.343 15.4173 354.231 14.8787 354.231 14.26C354.231 13.6413 354.343 13.1027 354.567 12.644C354.791 12.1853 355.106 11.828 355.511 11.572C355.916 11.316 356.38 11.188 356.903 11.188C357.447 11.188 357.916 11.316 358.311 11.572C358.716 11.828 359.031 12.1853 359.255 12.644C359.479 13.1027 359.591 13.6413 359.591 14.26C359.591 14.8787 359.479 15.4173 359.255 15.876C359.031 16.3347 358.716 16.692 358.311 16.948C357.916 17.204 357.447 17.332 356.903 17.332ZM356.919 16.212C357.346 16.212 357.676 16.0467 357.911 15.716C358.156 15.3747 358.279 14.8893 358.279 14.26C358.279 13.6307 358.156 13.1507 357.911 12.82C357.676 12.4787 357.346 12.308 356.919 12.308C356.492 12.308 356.151 12.4787 355.895 12.82C355.65 13.1613 355.527 13.6413 355.527 14.26C355.527 14.8787 355.65 15.3587 355.895 15.7C356.151 16.0413 356.492 16.212 356.919 16.212ZM364.247 22.612C363.724 22.612 363.26 22.484 362.855 22.228C362.45 21.972 362.135 21.6147 361.911 21.156C361.687 20.6973 361.575 20.1587 361.575 19.54C361.575 18.9213 361.687 18.3827 361.911 17.924C362.135 17.4653 362.45 17.108 362.855 16.852C363.26 16.596 363.724 16.468 364.247 16.468C364.791 16.468 365.26 16.596 365.655 16.852C366.06 17.108 366.375 17.4653 366.599 17.924C366.823 18.3827 366.935 18.9213 366.935 19.54C366.935 20.1587 366.823 20.6973 366.599 21.156C366.375 21.6147 366.06 21.972 365.655 22.228C365.26 22.484 364.791 22.612 364.247 22.612ZM364.247 21.492C364.674 21.492 365.01 21.3213 365.255 20.98C365.5 20.6387 365.623 20.1587 365.623 19.54C365.623 18.9213 365.5 18.4413 365.255 18.1C365.01 17.7587 364.674 17.588 364.247 17.588C363.831 17.588 363.495 17.7587 363.239 18.1C362.994 18.4307 362.871 18.9107 362.871 19.54C362.871 20.1693 362.994 20.6547 363.239 20.996C363.495 21.3267 363.831 21.492 364.247 21.492Z" fill="black"/>
</svg>
