<svg width="128" height="40" viewBox="0 0 128 36" fill="none" xmlns="http://www.w3.org/2000/svg">
<g opacity="0.8">
<rect x="0.5" y="0.5" width="127" height="35" rx="9.5" stroke="#195BA5"/>
<path d="M29.5 11.2387L37.9712 25.875H21.0287L29.5 11.2387ZM29.5 6.75L17.125 28.125H41.875L29.5 6.75ZM30.625 22.5H28.375V24.75H30.625V22.5ZM30.625 15.75H28.375V20.25H30.625V15.75Z" fill="black"/>
<path d="M56.504 24V12.8H61.112C62.104 12.8 62.952 12.96 63.656 13.28C64.3707 13.6 64.92 14.0587 65.304 14.656C65.688 15.2533 65.88 15.9627 65.88 16.784C65.88 17.6053 65.688 18.3147 65.304 18.912C64.92 19.4987 64.3707 19.952 63.656 20.272C62.952 20.5813 62.104 20.736 61.112 20.736H57.656L58.584 19.792V24H56.504ZM63.832 24L61 19.936H63.224L66.072 24H63.832ZM58.584 20.016L57.656 19.024H61.016C61.9333 19.024 62.6213 18.8267 63.08 18.432C63.5493 18.0373 63.784 17.488 63.784 16.784C63.784 16.0693 63.5493 15.52 63.08 15.136C62.6213 14.752 61.9333 14.56 61.016 14.56H57.656L58.584 13.536V20.016ZM72.0311 24.112C71.0818 24.112 70.2498 23.9253 69.5351 23.552C68.8311 23.168 68.2818 22.6453 67.8871 21.984C67.5031 21.3227 67.3111 20.5707 67.3111 19.728C67.3111 18.8747 67.4978 18.1227 67.8711 17.472C68.2551 16.8107 68.7778 16.2933 69.4391 15.92C70.1111 15.5467 70.8738 15.36 71.7271 15.36C72.5591 15.36 73.3005 15.5413 73.9511 15.904C74.6018 16.2667 75.1138 16.7787 75.4871 17.44C75.8605 18.1013 76.0471 18.88 76.0471 19.776C76.0471 19.8613 76.0418 19.9573 76.0311 20.064C76.0311 20.1707 76.0258 20.272 76.0151 20.368H68.8951V19.04H74.9591L74.1751 19.456C74.1858 18.9653 74.0845 18.5333 73.8711 18.16C73.6578 17.7867 73.3645 17.4933 72.9911 17.28C72.6285 17.0667 72.2071 16.96 71.7271 16.96C71.2365 16.96 70.8045 17.0667 70.4311 17.28C70.0685 17.4933 69.7805 17.792 69.5671 18.176C69.3645 18.5493 69.2631 18.992 69.2631 19.504V19.824C69.2631 20.336 69.3805 20.7893 69.6151 21.184C69.8498 21.5787 70.1805 21.8827 70.6071 22.096C71.0338 22.3093 71.5245 22.416 72.0791 22.416C72.5591 22.416 72.9911 22.3413 73.3751 22.192C73.7591 22.0427 74.1005 21.808 74.3991 21.488L75.4711 22.72C75.0871 23.168 74.6018 23.5147 74.0151 23.76C73.4391 23.9947 72.7778 24.112 72.0311 24.112ZM82.7043 24.112C82.0109 24.112 81.3763 23.952 80.8003 23.632C80.2349 23.312 79.7816 22.832 79.4403 22.192C79.1096 21.5413 78.9443 20.72 78.9443 19.728C78.9443 18.7253 79.1043 17.904 79.4243 17.264C79.7549 16.624 80.2029 16.1493 80.7682 15.84C81.3336 15.52 81.9789 15.36 82.7043 15.36C83.5469 15.36 84.2883 15.5413 84.9283 15.904C85.5789 16.2667 86.0909 16.7733 86.4643 17.424C86.8483 18.0747 87.0403 18.8427 87.0403 19.728C87.0403 20.6133 86.8483 21.3867 86.4643 22.048C86.0909 22.6987 85.5789 23.2053 84.9283 23.568C84.2883 23.9307 83.5469 24.112 82.7043 24.112ZM77.9683 27.104V15.456H79.8723V17.472L79.8083 19.744L79.9683 22.016V27.104H77.9683ZM82.4803 22.4C82.9603 22.4 83.3869 22.2933 83.7603 22.08C84.1443 21.8667 84.4483 21.5573 84.6723 21.152C84.8963 20.7467 85.0083 20.272 85.0083 19.728C85.0083 19.1733 84.8963 18.6987 84.6723 18.304C84.4483 17.8987 84.1443 17.5893 83.7603 17.376C83.3869 17.1627 82.9603 17.056 82.4803 17.056C82.0003 17.056 81.5683 17.1627 81.1843 17.376C80.8003 17.5893 80.4963 17.8987 80.2723 18.304C80.0483 18.6987 79.9363 19.1733 79.9363 19.728C79.9363 20.272 80.0483 20.7467 80.2723 21.152C80.4963 21.5573 80.8003 21.8667 81.1843 22.08C81.5683 22.2933 82.0003 22.4 82.4803 22.4ZM92.777 24.112C91.9023 24.112 91.1237 23.9253 90.441 23.552C89.7583 23.168 89.2197 22.6453 88.825 21.984C88.4303 21.3227 88.233 20.5707 88.233 19.728C88.233 18.8747 88.4303 18.1227 88.825 17.472C89.2197 16.8107 89.7583 16.2933 90.441 15.92C91.1237 15.5467 91.9023 15.36 92.777 15.36C93.6623 15.36 94.4463 15.5467 95.129 15.92C95.8223 16.2933 96.361 16.8053 96.745 17.456C97.1397 18.1067 97.337 18.864 97.337 19.728C97.337 20.5707 97.1397 21.3227 96.745 21.984C96.361 22.6453 95.8223 23.168 95.129 23.552C94.4463 23.9253 93.6623 24.112 92.777 24.112ZM92.777 22.4C93.2677 22.4 93.705 22.2933 94.089 22.08C94.473 21.8667 94.7717 21.5573 94.985 21.152C95.209 20.7467 95.321 20.272 95.321 19.728C95.321 19.1733 95.209 18.6987 94.985 18.304C94.7717 17.8987 94.473 17.5893 94.089 17.376C93.705 17.1627 93.273 17.056 92.793 17.056C92.3023 17.056 91.865 17.1627 91.481 17.376C91.1077 17.5893 90.809 17.8987 90.585 18.304C90.361 18.6987 90.249 19.1733 90.249 19.728C90.249 20.272 90.361 20.7467 90.585 21.152C90.809 21.5573 91.1077 21.8667 91.481 22.08C91.865 22.2933 92.297 22.4 92.777 22.4ZM99.2495 24V15.456H101.154V17.808L100.93 17.12C101.186 16.544 101.586 16.1067 102.13 15.808C102.684 15.5093 103.372 15.36 104.194 15.36V17.264C104.108 17.2427 104.028 17.232 103.954 17.232C103.879 17.2213 103.804 17.216 103.73 17.216C102.972 17.216 102.37 17.44 101.922 17.888C101.474 18.3253 101.25 18.9813 101.25 19.856V24H99.2495ZM109.419 24.112C108.48 24.112 107.755 23.872 107.243 23.392C106.731 22.9013 106.475 22.1813 106.475 21.232V13.568H108.475V21.184C108.475 21.5893 108.576 21.904 108.779 22.128C108.992 22.352 109.285 22.464 109.659 22.464C110.107 22.464 110.48 22.3467 110.779 22.112L111.339 23.536C111.104 23.728 110.816 23.872 110.475 23.968C110.133 24.064 109.781 24.112 109.419 24.112ZM105.067 17.12V15.52H110.763V17.12H105.067Z" fill="black"/>
</g>
</svg>
