<svg width="22" height="24" viewBox="0 0 22 24" fill="none" xmlns="http://www.w3.org/2000/svg">
<path d="M21.9531 12C21.9531 12.8438 21.2969 13.5 20.5 13.5H6.10938L11.0312 18.4688C11.6406 19.0312 11.6406 20.0156 11.0312 20.5781C10.75 20.8594 10.375 21 10 21C9.57812 21 9.20312 20.8594 8.92188 20.5781L1.42188 13.0781C0.8125 12.5156 0.8125 11.5312 1.42188 10.9688L8.92188 3.46875C9.48438 2.85938 10.4688 2.85938 11.0312 3.46875C11.6406 4.03125 11.6406 5.01562 11.0312 5.57812L6.10938 10.5H20.5C21.2969 10.5 21.9531 11.2031 21.9531 12Z" fill="#9A9A9A"/>
</svg>
