<svg width="177" height="48" viewBox="0 0 177 48" fill="none" xmlns="http://www.w3.org/2000/svg">
<rect width="177" height="48" rx="10" fill="#519AEB"/>
<path d="M22.22 31.2C21.1267 31.2 20.08 31.0467 19.08 30.74C18.08 30.42 17.2867 30.0133 16.7 29.52L17.6 27.5C18.16 27.94 18.8533 28.3067 19.68 28.6C20.5067 28.8933 21.3533 29.04 22.22 29.04C22.9533 29.04 23.5467 28.96 24 28.8C24.4533 28.64 24.7867 28.4267 25 28.16C25.2133 27.88 25.32 27.5667 25.32 27.22C25.32 26.7933 25.1667 26.4533 24.86 26.2C24.5533 25.9333 24.1533 25.7267 23.66 25.58C23.18 25.42 22.64 25.2733 22.04 25.14C21.4533 25.0067 20.86 24.8533 20.26 24.68C19.6733 24.4933 19.1333 24.26 18.64 23.98C18.16 23.6867 17.7667 23.3 17.46 22.82C17.1533 22.34 17 21.7267 17 20.98C17 20.22 17.2 19.5267 17.6 18.9C18.0133 18.26 18.6333 17.7533 19.46 17.38C20.3 16.9933 21.36 16.8 22.64 16.8C23.48 16.8 24.3133 16.9067 25.14 17.12C25.9667 17.3333 26.6867 17.64 27.3 18.04L26.48 20.06C25.8533 19.6867 25.2067 19.4133 24.54 19.24C23.8733 19.0533 23.2333 18.96 22.62 18.96C21.9 18.96 21.3133 19.0467 20.86 19.22C20.42 19.3933 20.0933 19.62 19.88 19.9C19.68 20.18 19.58 20.5 19.58 20.86C19.58 21.2867 19.7267 21.6333 20.02 21.9C20.3267 22.1533 20.72 22.3533 21.2 22.5C21.6933 22.6467 22.24 22.7933 22.84 22.94C23.44 23.0733 24.0333 23.2267 24.62 23.4C25.22 23.5733 25.76 23.8 26.24 24.08C26.7333 24.36 27.1267 24.74 27.42 25.22C27.7267 25.7 27.88 26.3067 27.88 27.04C27.88 27.7867 27.6733 28.48 27.26 29.12C26.86 29.7467 26.24 30.2533 25.4 30.64C24.56 31.0133 23.5 31.2 22.22 31.2ZM36.7981 31V28.84L36.6581 28.38V24.6C36.6581 23.8667 36.4381 23.3 35.9981 22.9C35.5581 22.4867 34.8915 22.28 33.9981 22.28C33.3981 22.28 32.8048 22.3733 32.2181 22.56C31.6448 22.7467 31.1581 23.0067 30.7581 23.34L29.7781 21.52C30.3515 21.08 31.0315 20.7533 31.8181 20.54C32.6181 20.3133 33.4448 20.2 34.2981 20.2C35.8448 20.2 37.0381 20.5733 37.8781 21.32C38.7315 22.0533 39.1581 23.1933 39.1581 24.74V31H36.7981ZM33.4381 31.14C32.6381 31.14 31.9381 31.0067 31.3381 30.74C30.7381 30.46 30.2715 30.08 29.9381 29.6C29.6181 29.1067 29.4581 28.5533 29.4581 27.94C29.4581 27.34 29.5981 26.8 29.8781 26.32C30.1715 25.84 30.6448 25.46 31.2981 25.18C31.9515 24.9 32.8181 24.76 33.8981 24.76H36.9981V26.42H34.0781C33.2248 26.42 32.6515 26.56 32.3581 26.84C32.0648 27.1067 31.9181 27.44 31.9181 27.84C31.9181 28.2933 32.0981 28.6533 32.4581 28.92C32.8181 29.1867 33.3181 29.32 33.9581 29.32C34.5715 29.32 35.1181 29.18 35.5981 28.9C36.0915 28.62 36.4448 28.2067 36.6581 27.66L37.0781 29.16C36.8381 29.7867 36.4048 30.2733 35.7781 30.62C35.1648 30.9667 34.3848 31.14 33.4381 31.14ZM45.0113 31L40.4312 20.32H43.0312L46.9713 29.74H45.6913L49.7713 20.32H52.1713L47.5913 31H45.0113ZM58.4608 31.14C57.2741 31.14 56.2341 30.9067 55.3408 30.44C54.4608 29.96 53.7741 29.3067 53.2808 28.48C52.8008 27.6533 52.5608 26.7133 52.5608 25.66C52.5608 24.5933 52.7941 23.6533 53.2608 22.84C53.7408 22.0133 54.3941 21.3667 55.2208 20.9C56.0608 20.4333 57.0141 20.2 58.0808 20.2C59.1208 20.2 60.0474 20.4267 60.8608 20.88C61.6741 21.3333 62.3141 21.9733 62.7808 22.8C63.2474 23.6267 63.4808 24.6 63.4808 25.72C63.4808 25.8267 63.4741 25.9467 63.4608 26.08C63.4608 26.2133 63.4541 26.34 63.4408 26.46H54.5408V24.8H62.1208L61.1408 25.32C61.1541 24.7067 61.0274 24.1667 60.7608 23.7C60.4941 23.2333 60.1274 22.8667 59.6608 22.6C59.2074 22.3333 58.6808 22.2 58.0808 22.2C57.4674 22.2 56.9274 22.3333 56.4608 22.6C56.0074 22.8667 55.6474 23.24 55.3808 23.72C55.1274 24.1867 55.0008 24.74 55.0008 25.38V25.78C55.0008 26.42 55.1474 26.9867 55.4408 27.48C55.7341 27.9733 56.1474 28.3533 56.6808 28.62C57.2141 28.8867 57.8274 29.02 58.5208 29.02C59.1208 29.02 59.6608 28.9267 60.1408 28.74C60.6208 28.5533 61.0474 28.26 61.4208 27.86L62.7608 29.4C62.2808 29.96 61.6741 30.3933 60.9408 30.7C60.2208 30.9933 59.3941 31.14 58.4608 31.14ZM78.1295 31.2C77.0629 31.2 76.0695 31.0267 75.1495 30.68C74.2429 30.32 73.4495 29.82 72.7695 29.18C72.1029 28.5267 71.5829 27.76 71.2095 26.88C70.8362 26 70.6495 25.04 70.6495 24C70.6495 22.96 70.8362 22 71.2095 21.12C71.5829 20.24 72.1095 19.48 72.7895 18.84C73.4695 18.1867 74.2629 17.6867 75.1695 17.34C76.0762 16.98 77.0695 16.8 78.1495 16.8C79.2962 16.8 80.3429 17 81.2895 17.4C82.2362 17.7867 83.0362 18.3667 83.6895 19.14L82.0095 20.72C81.5029 20.1733 80.9362 19.7667 80.3095 19.5C79.6829 19.22 79.0029 19.08 78.2695 19.08C77.5362 19.08 76.8629 19.2 76.2495 19.44C75.6495 19.68 75.1229 20.02 74.6695 20.46C74.2295 20.9 73.8829 21.42 73.6295 22.02C73.3895 22.62 73.2695 23.28 73.2695 24C73.2695 24.72 73.3895 25.38 73.6295 25.98C73.8829 26.58 74.2295 27.1 74.6695 27.54C75.1229 27.98 75.6495 28.32 76.2495 28.56C76.8629 28.8 77.5362 28.92 78.2695 28.92C79.0029 28.92 79.6829 28.7867 80.3095 28.52C80.9362 28.24 81.5029 27.82 82.0095 27.26L83.6895 28.86C83.0362 29.62 82.2362 30.2 81.2895 30.6C80.3429 31 79.2895 31.2 78.1295 31.2ZM92.0008 20.2C92.8541 20.2 93.6141 20.3667 94.2808 20.7C94.9608 21.0333 95.4941 21.5467 95.8808 22.24C96.2674 22.92 96.4608 23.8 96.4608 24.88V31H93.9608V25.2C93.9608 24.2533 93.7341 23.5467 93.2808 23.08C92.8408 22.6133 92.2208 22.38 91.4208 22.38C90.8341 22.38 90.3141 22.5 89.8608 22.74C89.4074 22.98 89.0541 23.34 88.8008 23.82C88.5608 24.2867 88.4408 24.88 88.4408 25.6V31H85.9408V16.16H88.4408V23.2L87.9008 22.32C88.2741 21.64 88.8141 21.12 89.5208 20.76C90.2408 20.3867 91.0674 20.2 92.0008 20.2ZM106.212 31V28.84L106.072 28.38V24.6C106.072 23.8667 105.852 23.3 105.412 22.9C104.972 22.4867 104.306 22.28 103.412 22.28C102.812 22.28 102.219 22.3733 101.632 22.56C101.059 22.7467 100.572 23.0067 100.172 23.34L99.1922 21.52C99.7655 21.08 100.446 20.7533 101.232 20.54C102.032 20.3133 102.859 20.2 103.712 20.2C105.259 20.2 106.452 20.5733 107.292 21.32C108.146 22.0533 108.572 23.1933 108.572 24.74V31H106.212ZM102.852 31.14C102.052 31.14 101.352 31.0067 100.752 30.74C100.152 30.46 99.6855 30.08 99.3522 29.6C99.0322 29.1067 98.8722 28.5533 98.8722 27.94C98.8722 27.34 99.0122 26.8 99.2922 26.32C99.5855 25.84 100.059 25.46 100.712 25.18C101.366 24.9 102.232 24.76 103.312 24.76H106.412V26.42H103.492C102.639 26.42 102.066 26.56 101.772 26.84C101.479 27.1067 101.332 27.44 101.332 27.84C101.332 28.2933 101.512 28.6533 101.872 28.92C102.232 29.1867 102.732 29.32 103.372 29.32C103.986 29.32 104.532 29.18 105.012 28.9C105.506 28.62 105.859 28.2067 106.072 27.66L106.492 29.16C106.252 29.7867 105.819 30.2733 105.192 30.62C104.579 30.9667 103.799 31.14 102.852 31.14ZM117.841 20.2C118.694 20.2 119.454 20.3667 120.121 20.7C120.801 21.0333 121.334 21.5467 121.721 22.24C122.107 22.92 122.301 23.8 122.301 24.88V31H119.801V25.2C119.801 24.2533 119.574 23.5467 119.121 23.08C118.681 22.6133 118.061 22.38 117.261 22.38C116.674 22.38 116.154 22.5 115.701 22.74C115.247 22.98 114.894 23.34 114.641 23.82C114.401 24.2867 114.281 24.88 114.281 25.6V31H111.781V20.32H114.161V23.2L113.741 22.32C114.114 21.64 114.654 21.12 115.361 20.76C116.081 20.3867 116.907 20.2 117.841 20.2ZM130.332 35.02C129.345 35.02 128.378 34.8867 127.432 34.62C126.498 34.3667 125.732 33.9933 125.132 33.5L126.252 31.62C126.718 32.0067 127.305 32.3133 128.012 32.54C128.732 32.78 129.458 32.9 130.192 32.9C131.365 32.9 132.225 32.6267 132.772 32.08C133.318 31.5467 133.592 30.74 133.592 29.66V27.76L133.792 25.34L133.712 22.92V20.32H136.092V29.38C136.092 31.3133 135.598 32.7333 134.612 33.64C133.625 34.56 132.198 35.02 130.332 35.02ZM130.012 30.52C128.998 30.52 128.078 30.3067 127.252 29.88C126.438 29.44 125.792 28.8333 125.312 28.06C124.845 27.2867 124.612 26.38 124.612 25.34C124.612 24.3133 124.845 23.4133 125.312 22.64C125.792 21.8667 126.438 21.2667 127.252 20.84C128.078 20.4133 128.998 20.2 130.012 20.2C130.918 20.2 131.732 20.38 132.452 20.74C133.172 21.1 133.745 21.66 134.172 22.42C134.612 23.18 134.832 24.1533 134.832 25.34C134.832 26.5267 134.612 27.5067 134.172 28.28C133.745 29.04 133.172 29.6067 132.452 29.98C131.732 30.34 130.918 30.52 130.012 30.52ZM130.392 28.4C131.018 28.4 131.578 28.2733 132.072 28.02C132.565 27.7533 132.945 27.3933 133.212 26.94C133.492 26.4733 133.632 25.94 133.632 25.34C133.632 24.74 133.492 24.2133 133.212 23.76C132.945 23.2933 132.565 22.94 132.072 22.7C131.578 22.4467 131.018 22.32 130.392 22.32C129.765 22.32 129.198 22.4467 128.692 22.7C128.198 22.94 127.812 23.2933 127.532 23.76C127.265 24.2133 127.132 24.74 127.132 25.34C127.132 25.94 127.265 26.4733 127.532 26.94C127.812 27.3933 128.198 27.7533 128.692 28.02C129.198 28.2733 129.765 28.4 130.392 28.4ZM144.398 31.14C143.212 31.14 142.172 30.9067 141.278 30.44C140.398 29.96 139.712 29.3067 139.218 28.48C138.738 27.6533 138.498 26.7133 138.498 25.66C138.498 24.5933 138.732 23.6533 139.198 22.84C139.678 22.0133 140.332 21.3667 141.158 20.9C141.998 20.4333 142.952 20.2 144.018 20.2C145.058 20.2 145.985 20.4267 146.798 20.88C147.612 21.3333 148.252 21.9733 148.718 22.8C149.185 23.6267 149.418 24.6 149.418 25.72C149.418 25.8267 149.412 25.9467 149.398 26.08C149.398 26.2133 149.392 26.34 149.378 26.46H140.478V24.8H148.058L147.078 25.32C147.092 24.7067 146.965 24.1667 146.698 23.7C146.432 23.2333 146.065 22.8667 145.598 22.6C145.145 22.3333 144.618 22.2 144.018 22.2C143.405 22.2 142.865 22.3333 142.398 22.6C141.945 22.8667 141.585 23.24 141.318 23.72C141.065 24.1867 140.938 24.74 140.938 25.38V25.78C140.938 26.42 141.085 26.9867 141.378 27.48C141.672 27.9733 142.085 28.3533 142.618 28.62C143.152 28.8867 143.765 29.02 144.458 29.02C145.058 29.02 145.598 28.9267 146.078 28.74C146.558 28.5533 146.985 28.26 147.358 27.86L148.698 29.4C148.218 29.96 147.612 30.3933 146.878 30.7C146.158 30.9933 145.332 31.14 144.398 31.14ZM155.12 31.14C154.226 31.14 153.366 31.0267 152.54 30.8C151.726 30.56 151.08 30.2733 150.6 29.94L151.56 28.04C152.04 28.3467 152.613 28.6 153.28 28.8C153.946 29 154.613 29.1 155.28 29.1C156.066 29.1 156.633 28.9933 156.98 28.78C157.34 28.5667 157.52 28.28 157.52 27.92C157.52 27.6267 157.4 27.4067 157.16 27.26C156.92 27.1 156.606 26.98 156.22 26.9C155.833 26.82 155.4 26.7467 154.92 26.68C154.453 26.6133 153.98 26.5267 153.5 26.42C153.033 26.3 152.606 26.1333 152.22 25.92C151.833 25.6933 151.52 25.3933 151.28 25.02C151.04 24.6467 150.92 24.1533 150.92 23.54C150.92 22.86 151.113 22.2733 151.5 21.78C151.886 21.2733 152.426 20.8867 153.12 20.62C153.826 20.34 154.66 20.2 155.62 20.2C156.34 20.2 157.066 20.28 157.8 20.44C158.533 20.6 159.14 20.8267 159.62 21.12L158.66 23.02C158.153 22.7133 157.64 22.5067 157.12 22.4C156.613 22.28 156.106 22.22 155.6 22.22C154.84 22.22 154.273 22.3333 153.9 22.56C153.54 22.7867 153.36 23.0733 153.36 23.42C153.36 23.74 153.48 23.98 153.72 24.14C153.96 24.3 154.273 24.4267 154.66 24.52C155.046 24.6133 155.473 24.6933 155.94 24.76C156.42 24.8133 156.893 24.9 157.36 25.02C157.826 25.14 158.253 25.3067 158.64 25.52C159.04 25.72 159.36 26.0067 159.6 26.38C159.84 26.7533 159.96 27.24 159.96 27.84C159.96 28.5067 159.76 29.0867 159.36 29.58C158.973 30.0733 158.42 30.46 157.7 30.74C156.98 31.0067 156.12 31.14 155.12 31.14Z" fill="#FFFDFD"/>
</svg>