<svg width="94" height="44" viewBox="0 0 94 44" fill="none" xmlns="http://www.w3.org/2000/svg">
<rect x="0.5" width="93" height="44" rx="10" fill="#519AEB"/>
<path d="M21.476 28.16C20.6013 28.16 19.764 28.0373 18.964 27.792C18.164 27.536 17.5293 27.2107 17.06 26.816L17.78 25.2C18.228 25.552 18.7827 25.8453 19.444 26.08C20.1053 26.3147 20.7827 26.432 21.476 26.432C22.0627 26.432 22.5373 26.368 22.9 26.24C23.2627 26.112 23.5293 25.9413 23.7 25.728C23.8707 25.504 23.956 25.2533 23.956 24.976C23.956 24.6347 23.8333 24.3627 23.588 24.16C23.3427 23.9467 23.0227 23.7813 22.628 23.664C22.244 23.536 21.812 23.4187 21.332 23.312C20.8627 23.2053 20.388 23.0827 19.908 22.944C19.4387 22.7947 19.0067 22.608 18.612 22.384C18.228 22.1493 17.9133 21.84 17.668 21.456C17.4227 21.072 17.3 20.5813 17.3 19.984C17.3 19.376 17.46 18.8213 17.78 18.32C18.1107 17.808 18.6067 17.4027 19.268 17.104C19.94 16.7947 20.788 16.64 21.812 16.64C22.484 16.64 23.1507 16.7253 23.812 16.896C24.4733 17.0667 25.0493 17.312 25.54 17.632L24.884 19.248C24.3827 18.9493 23.8653 18.7307 23.332 18.592C22.7987 18.4427 22.2867 18.368 21.796 18.368C21.22 18.368 20.7507 18.4373 20.388 18.576C20.036 18.7147 19.7747 18.896 19.604 19.12C19.444 19.344 19.364 19.6 19.364 19.888C19.364 20.2293 19.4813 20.5067 19.716 20.72C19.9613 20.9227 20.276 21.0827 20.66 21.2C21.0547 21.3173 21.492 21.4347 21.972 21.552C22.452 21.6587 22.9267 21.7813 23.396 21.92C23.876 22.0587 24.308 22.24 24.692 22.464C25.0867 22.688 25.4013 22.992 25.636 23.376C25.8813 23.76 26.004 24.2453 26.004 24.832C26.004 25.4293 25.8387 25.984 25.508 26.496C25.188 26.9973 24.692 27.4027 24.02 27.712C23.348 28.0107 22.5 28.16 21.476 28.16ZM31.4905 28.112C30.7652 28.112 30.1252 27.9787 29.5705 27.712C29.0158 27.4347 28.5838 27.0187 28.2745 26.464C27.9652 25.8987 27.8105 25.1893 27.8105 24.336V19.456H29.8105V24.064C29.8105 24.832 29.9812 25.408 30.3225 25.792C30.6745 26.1653 31.1705 26.352 31.8105 26.352C32.2798 26.352 32.6852 26.256 33.0265 26.064C33.3785 25.872 33.6505 25.584 33.8425 25.2C34.0452 24.816 34.1465 24.3413 34.1465 23.776V19.456H36.1465V28H34.2425V25.696L34.5785 26.4C34.2905 26.9547 33.8692 27.3813 33.3145 27.68C32.7598 27.968 32.1518 28.112 31.4905 28.112ZM43.5011 28.112C42.7758 28.112 42.1305 27.952 41.5651 27.632C40.9998 27.312 40.5518 26.832 40.2211 26.192C39.9011 25.5413 39.7411 24.72 39.7411 23.728C39.7411 22.7253 39.9065 21.904 40.2371 21.264C40.5785 20.624 41.0318 20.1493 41.5971 19.84C42.1731 19.52 42.8078 19.36 43.5011 19.36C44.3438 19.36 45.0851 19.5413 45.7251 19.904C46.3758 20.2667 46.8878 20.7733 47.2611 21.424C47.6451 22.0747 47.8371 22.8427 47.8371 23.728C47.8371 24.6133 47.6451 25.3813 47.2611 26.032C46.8878 26.6827 46.3758 27.1947 45.7251 27.568C45.0851 27.9307 44.3438 28.112 43.5011 28.112ZM38.7651 28V16.128H40.7651V21.44L40.6051 23.712L40.6691 25.984V28H38.7651ZM43.2771 26.4C43.7571 26.4 44.1838 26.2933 44.5571 26.08C44.9411 25.8667 45.2451 25.5573 45.4691 25.152C45.6931 24.7467 45.8051 24.272 45.8051 23.728C45.8051 23.1733 45.6931 22.6987 45.4691 22.304C45.2451 21.8987 44.9411 21.5893 44.5571 21.376C44.1838 21.1627 43.7571 21.056 43.2771 21.056C42.7971 21.056 42.3651 21.1627 41.9811 21.376C41.5971 21.5893 41.2931 21.8987 41.0691 22.304C40.8451 22.6987 40.7331 23.1733 40.7331 23.728C40.7331 24.272 40.8451 24.7467 41.0691 25.152C41.2931 25.5573 41.5971 25.8667 41.9811 26.08C42.3651 26.2933 42.7971 26.4 43.2771 26.4ZM60.5179 19.36C61.2005 19.36 61.8032 19.4933 62.3259 19.76C62.8592 20.0267 63.2752 20.4373 63.5739 20.992C63.8725 21.536 64.0219 22.24 64.0219 23.104V28H62.0219V23.36C62.0219 22.6027 61.8565 22.0373 61.5259 21.664C61.1952 21.2907 60.7205 21.104 60.1019 21.104C59.6645 21.104 59.2752 21.2 58.9339 21.392C58.6032 21.584 58.3419 21.8667 58.1499 22.24C57.9685 22.6133 57.8779 23.088 57.8779 23.664V28H55.8779V23.36C55.8779 22.6027 55.7125 22.0373 55.3819 21.664C55.0512 21.2907 54.5765 21.104 53.9579 21.104C53.5205 21.104 53.1312 21.2 52.7899 21.392C52.4592 21.584 52.1979 21.8667 52.0059 22.24C51.8245 22.6133 51.7339 23.088 51.7339 23.664V28H49.7339V19.456H51.6379V21.728L51.3019 21.056C51.5899 20.5013 52.0059 20.08 52.5499 19.792C53.1045 19.504 53.7339 19.36 54.4379 19.36C55.2379 19.36 55.9312 19.5573 56.5179 19.952C57.1152 20.3467 57.5099 20.944 57.7019 21.744L56.9179 21.472C57.1952 20.832 57.6539 20.32 58.2939 19.936C58.9339 19.552 59.6752 19.36 60.5179 19.36ZM66.5776 28V19.456H68.5776V28H66.5776ZM67.5856 18.048C67.2123 18.048 66.903 17.9307 66.6576 17.696C66.423 17.4613 66.3056 17.1787 66.3056 16.848C66.3056 16.5067 66.423 16.224 66.6576 16C66.903 15.7653 67.2123 15.648 67.5856 15.648C67.959 15.648 68.263 15.76 68.4976 15.984C68.743 16.1973 68.8656 16.4693 68.8656 16.8C68.8656 17.152 68.7483 17.4507 68.5136 17.696C68.279 17.9307 67.9696 18.048 67.5856 18.048ZM74.4186 28.112C73.48 28.112 72.7546 27.872 72.2426 27.392C71.7306 26.9013 71.4746 26.1813 71.4746 25.232V17.568H73.4746V25.184C73.4746 25.5893 73.576 25.904 73.7786 26.128C73.992 26.352 74.2853 26.464 74.6586 26.464C75.1066 26.464 75.48 26.3467 75.7786 26.112L76.3386 27.536C76.104 27.728 75.816 27.872 75.4746 27.968C75.1333 28.064 74.7813 28.112 74.4186 28.112ZM70.0666 21.12V19.52H75.7626V21.12H70.0666Z" fill="#FFFDFD"/>
</svg>
