<svg width="268" height="255" viewBox="0 0 268 255" fill="none" xmlns="http://www.w3.org/2000/svg">
<g filter="url(#filter0_d_415_266)">
<rect x="4" width="260" height="247" rx="25" fill="white" shape-rendering="crispEdges"/>
<path d="M42.1705 22.3636V34H40.5568L34.642 25.4659H34.5341V34H32.7784V22.3636H34.4034L40.3239 30.9091H40.4318V22.3636H42.1705ZM48.2713 34.1761C47.4531 34.1761 46.7391 33.9886 46.1293 33.6136C45.5194 33.2386 45.0459 32.714 44.7088 32.0398C44.3717 31.3655 44.2031 30.5777 44.2031 29.6761C44.2031 28.7708 44.3717 27.9792 44.7088 27.3011C45.0459 26.6231 45.5194 26.0966 46.1293 25.7216C46.7391 25.3466 47.4531 25.1591 48.2713 25.1591C49.0895 25.1591 49.8035 25.3466 50.4134 25.7216C51.0232 26.0966 51.4967 26.6231 51.8338 27.3011C52.1709 27.9792 52.3395 28.7708 52.3395 29.6761C52.3395 30.5777 52.1709 31.3655 51.8338 32.0398C51.4967 32.714 51.0232 33.2386 50.4134 33.6136C49.8035 33.9886 49.0895 34.1761 48.2713 34.1761ZM48.277 32.75C48.8073 32.75 49.2467 32.6098 49.5952 32.3295C49.9437 32.0492 50.2012 31.6761 50.3679 31.2102C50.5384 30.7443 50.6236 30.2311 50.6236 29.6705C50.6236 29.1136 50.5384 28.6023 50.3679 28.1364C50.2012 27.6667 49.9437 27.2898 49.5952 27.0057C49.2467 26.7216 48.8073 26.5795 48.277 26.5795C47.7429 26.5795 47.2997 26.7216 46.9474 27.0057C46.599 27.2898 46.3395 27.6667 46.169 28.1364C46.0024 28.6023 45.919 29.1136 45.919 29.6705C45.919 30.2311 46.0024 30.7443 46.169 31.2102C46.3395 31.6761 46.599 32.0492 46.9474 32.3295C47.2997 32.6098 47.7429 32.75 48.277 32.75ZM61.4048 25.2727L58.2401 34H56.4219L53.2514 25.2727H55.0753L57.2855 31.9886H57.3764L59.581 25.2727H61.4048ZM66.4659 34.1761C65.6061 34.1761 64.8655 33.9924 64.2443 33.625C63.6269 33.2538 63.1496 32.733 62.8125 32.0625C62.4792 31.3883 62.3125 30.5985 62.3125 29.6932C62.3125 28.7992 62.4792 28.0114 62.8125 27.3295C63.1496 26.6477 63.6193 26.1155 64.2216 25.733C64.8277 25.3504 65.536 25.1591 66.3466 25.1591C66.839 25.1591 67.3163 25.2405 67.7784 25.4034C68.2405 25.5663 68.6553 25.822 69.0227 26.1705C69.3902 26.5189 69.6799 26.9716 69.892 27.5284C70.1042 28.0814 70.2102 28.7538 70.2102 29.5455V30.1477H63.2727V28.875H68.5455C68.5455 28.428 68.4545 28.0322 68.2727 27.6875C68.0909 27.339 67.8352 27.0644 67.5057 26.8636C67.1799 26.6629 66.7973 26.5625 66.358 26.5625C65.8807 26.5625 65.464 26.6799 65.108 26.9148C64.7557 27.1458 64.483 27.4489 64.2898 27.8239C64.1004 28.1951 64.0057 28.5985 64.0057 29.0341V30.0284C64.0057 30.6117 64.108 31.108 64.3125 31.517C64.5208 31.9261 64.8106 32.2386 65.1818 32.4545C65.553 32.6667 65.9867 32.7727 66.483 32.7727C66.8049 32.7727 67.0985 32.7273 67.3636 32.6364C67.6288 32.5417 67.858 32.4015 68.0511 32.2159C68.2443 32.0303 68.392 31.8011 68.4943 31.5284L70.1023 31.8182C69.9735 32.2917 69.7424 32.7064 69.4091 33.0625C69.0795 33.4148 68.6648 33.6894 68.1648 33.8864C67.6686 34.0795 67.1023 34.1761 66.4659 34.1761ZM72.0952 34V25.2727H73.7259V26.6932H73.8338C74.0156 26.2121 74.313 25.8371 74.7259 25.5682C75.1387 25.2955 75.633 25.1591 76.2088 25.1591C76.7921 25.1591 77.2808 25.2955 77.6747 25.5682C78.0724 25.8409 78.366 26.2159 78.5554 26.6932H78.6463C78.8546 26.2273 79.1861 25.8561 79.6406 25.5795C80.0952 25.2992 80.6368 25.1591 81.2656 25.1591C82.0573 25.1591 82.7031 25.4072 83.2031 25.9034C83.7069 26.3996 83.9588 27.1477 83.9588 28.1477V34H82.2599V28.3068C82.2599 27.7159 82.099 27.2879 81.777 27.0227C81.455 26.7576 81.0705 26.625 80.6236 26.625C80.0705 26.625 79.6406 26.7955 79.3338 27.1364C79.027 27.4735 78.8736 27.9072 78.8736 28.4375V34H77.1804V28.1989C77.1804 27.7254 77.0327 27.3447 76.7372 27.0568C76.4418 26.7689 76.0573 26.625 75.5838 26.625C75.2618 26.625 74.9645 26.7102 74.6918 26.8807C74.4228 27.0473 74.205 27.2803 74.0384 27.5795C73.8755 27.8788 73.794 28.2254 73.794 28.6193V34H72.0952ZM86.3722 34V22.3636H88.071V26.6875H88.1733C88.2718 26.5057 88.4138 26.2955 88.5994 26.0568C88.785 25.8182 89.0426 25.6098 89.3722 25.4318C89.7017 25.25 90.1373 25.1591 90.679 25.1591C91.3835 25.1591 92.0123 25.3371 92.5653 25.6932C93.1184 26.0492 93.5521 26.5625 93.8665 27.233C94.1847 27.9034 94.3438 28.7102 94.3438 29.6534C94.3438 30.5966 94.1866 31.4053 93.8722 32.0795C93.5578 32.75 93.1259 33.267 92.5767 33.6307C92.0275 33.9905 91.4006 34.1705 90.696 34.1705C90.1657 34.1705 89.732 34.0814 89.3949 33.9034C89.0616 33.7254 88.8002 33.517 88.6108 33.2784C88.4214 33.0398 88.2756 32.8277 88.1733 32.642H88.0312V34H86.3722ZM88.0369 29.6364C88.0369 30.25 88.1259 30.7879 88.304 31.25C88.482 31.7121 88.7396 32.0739 89.0767 32.3352C89.4138 32.5928 89.8267 32.7216 90.3153 32.7216C90.8229 32.7216 91.2472 32.5871 91.5881 32.3182C91.929 32.0455 92.1866 31.6761 92.3608 31.2102C92.5388 30.7443 92.6278 30.2197 92.6278 29.6364C92.6278 29.0606 92.5407 28.5436 92.3665 28.0852C92.196 27.6269 91.9384 27.2652 91.5938 27C91.2528 26.7348 90.8267 26.6023 90.3153 26.6023C89.8229 26.6023 89.4062 26.7292 89.0653 26.983C88.7282 27.2367 88.4725 27.5909 88.2983 28.0455C88.1241 28.5 88.0369 29.0303 88.0369 29.6364ZM100.013 34.1761C99.1529 34.1761 98.4124 33.9924 97.7912 33.625C97.1738 33.2538 96.6965 32.733 96.3594 32.0625C96.026 31.3883 95.8594 30.5985 95.8594 29.6932C95.8594 28.7992 96.026 28.0114 96.3594 27.3295C96.6965 26.6477 97.1662 26.1155 97.7685 25.733C98.3745 25.3504 99.0829 25.1591 99.8935 25.1591C100.386 25.1591 100.863 25.2405 101.325 25.4034C101.787 25.5663 102.202 25.822 102.57 26.1705C102.937 26.5189 103.227 26.9716 103.439 27.5284C103.651 28.0814 103.757 28.7538 103.757 29.5455V30.1477H96.8196V28.875H102.092C102.092 28.428 102.001 28.0322 101.82 27.6875C101.638 27.339 101.382 27.0644 101.053 26.8636C100.727 26.6629 100.344 26.5625 99.9048 26.5625C99.4276 26.5625 99.0109 26.6799 98.6548 26.9148C98.3026 27.1458 98.0298 27.4489 97.8366 27.8239C97.6473 28.1951 97.5526 28.5985 97.5526 29.0341V30.0284C97.5526 30.6117 97.6548 31.108 97.8594 31.517C98.0677 31.9261 98.3575 32.2386 98.7287 32.4545C99.0999 32.6667 99.5336 32.7727 100.03 32.7727C100.352 32.7727 100.645 32.7273 100.911 32.6364C101.176 32.5417 101.405 32.4015 101.598 32.2159C101.791 32.0303 101.939 31.8011 102.041 31.5284L103.649 31.8182C103.52 32.2917 103.289 32.7064 102.956 33.0625C102.626 33.4148 102.212 33.6894 101.712 33.8864C101.215 34.0795 100.649 34.1761 100.013 34.1761ZM105.642 34V25.2727H107.284V26.6591H107.375C107.534 26.1894 107.814 25.8201 108.216 25.5511C108.621 25.2784 109.08 25.142 109.591 25.142C109.697 25.142 109.822 25.1458 109.966 25.1534C110.114 25.161 110.229 25.1705 110.312 25.1818V26.8068C110.244 26.7879 110.123 26.767 109.949 26.7443C109.775 26.7178 109.6 26.7045 109.426 26.7045C109.025 26.7045 108.667 26.7898 108.352 26.9602C108.042 27.1269 107.795 27.3598 107.614 27.6591C107.432 27.9545 107.341 28.2917 107.341 28.6705V34H105.642ZM115.994 34V32.7273L119.932 28.6477C120.352 28.2045 120.699 27.8163 120.972 27.483C121.248 27.1458 121.455 26.8258 121.591 26.5227C121.727 26.2197 121.795 25.8977 121.795 25.5568C121.795 25.1705 121.705 24.8371 121.523 24.5568C121.341 24.2727 121.093 24.0549 120.778 23.9034C120.464 23.7481 120.11 23.6705 119.716 23.6705C119.299 23.6705 118.936 23.7557 118.625 23.9261C118.314 24.0966 118.076 24.3371 117.909 24.6477C117.742 24.9583 117.659 25.322 117.659 25.7386H115.983C115.983 25.0303 116.146 24.411 116.472 23.8807C116.797 23.3504 117.244 22.9394 117.812 22.6477C118.381 22.3523 119.027 22.2045 119.75 22.2045C120.481 22.2045 121.125 22.3504 121.682 22.642C122.242 22.9299 122.68 23.3239 122.994 23.8239C123.309 24.3201 123.466 24.8807 123.466 25.5057C123.466 25.9375 123.384 26.3598 123.222 26.7727C123.063 27.1856 122.784 27.6458 122.386 28.1534C121.989 28.6572 121.436 29.2689 120.727 29.9886L118.415 32.4091V32.4943H123.653V34H115.994ZM129.858 34.1932C128.96 34.1894 128.193 33.9527 127.557 33.483C126.92 33.0133 126.434 32.3295 126.097 31.4318C125.759 30.5341 125.591 29.4527 125.591 28.1875C125.591 26.9261 125.759 25.8485 126.097 24.9545C126.438 24.0606 126.926 23.3788 127.562 22.9091C128.203 22.4394 128.968 22.2045 129.858 22.2045C130.748 22.2045 131.511 22.4413 132.148 22.9148C132.784 23.3845 133.271 24.0663 133.608 24.9602C133.949 25.8504 134.119 26.9261 134.119 28.1875C134.119 29.4564 133.951 30.5398 133.614 31.4375C133.277 32.3314 132.79 33.0152 132.153 33.4886C131.517 33.9583 130.752 34.1932 129.858 34.1932ZM129.858 32.6761C130.646 32.6761 131.261 32.2917 131.705 31.5227C132.152 30.7538 132.375 29.642 132.375 28.1875C132.375 27.2216 132.273 26.4053 132.068 25.7386C131.867 25.0682 131.578 24.5606 131.199 24.2159C130.824 23.8674 130.377 23.6932 129.858 23.6932C129.074 23.6932 128.458 24.0795 128.011 24.8523C127.564 25.625 127.339 26.7367 127.335 28.1875C127.335 29.1572 127.436 29.9773 127.636 30.6477C127.841 31.3144 128.131 31.8201 128.506 32.1648C128.881 32.5057 129.331 32.6761 129.858 32.6761ZM136.135 34V32.7273L140.072 28.6477C140.493 28.2045 140.839 27.8163 141.112 27.483C141.389 27.1458 141.595 26.8258 141.732 26.5227C141.868 26.2197 141.936 25.8977 141.936 25.5568C141.936 25.1705 141.845 24.8371 141.663 24.5568C141.482 24.2727 141.233 24.0549 140.919 23.9034C140.605 23.7481 140.25 23.6705 139.857 23.6705C139.44 23.6705 139.076 23.7557 138.766 23.9261C138.455 24.0966 138.216 24.3371 138.05 24.6477C137.883 24.9583 137.8 25.322 137.8 25.7386H136.124C136.124 25.0303 136.286 24.411 136.612 23.8807C136.938 23.3504 137.385 22.9394 137.953 22.6477C138.521 22.3523 139.167 22.2045 139.891 22.2045C140.622 22.2045 141.266 22.3504 141.822 22.642C142.383 22.9299 142.821 23.3239 143.135 23.8239C143.449 24.3201 143.607 24.8807 143.607 25.5057C143.607 25.9375 143.525 26.3598 143.362 26.7727C143.203 27.1856 142.925 27.6458 142.527 28.1534C142.129 28.6572 141.576 29.2689 140.868 29.9886L138.555 32.4091V32.4943H143.794V34H136.135ZM149.999 34.1591C149.218 34.1591 148.521 34.0246 147.908 33.7557C147.298 33.4867 146.815 33.1136 146.459 32.6364C146.107 32.1553 145.917 31.5985 145.891 30.9659H147.675C147.697 31.3106 147.813 31.6098 148.021 31.8636C148.233 32.1136 148.51 32.3068 148.851 32.4432C149.192 32.5795 149.571 32.6477 149.987 32.6477C150.446 32.6477 150.851 32.5682 151.203 32.4091C151.559 32.25 151.838 32.0284 152.038 31.7443C152.239 31.4564 152.339 31.125 152.339 30.75C152.339 30.3598 152.239 30.017 152.038 29.7216C151.841 29.4223 151.552 29.1875 151.169 29.017C150.79 28.8466 150.332 28.7614 149.794 28.7614H148.811V27.3295H149.794C150.226 27.3295 150.605 27.2519 150.93 27.0966C151.26 26.9413 151.518 26.7254 151.703 26.4489C151.889 26.1686 151.982 25.8409 151.982 25.4659C151.982 25.1061 151.9 24.7936 151.737 24.5284C151.578 24.2595 151.351 24.0492 151.055 23.8977C150.764 23.7462 150.419 23.6705 150.021 23.6705C149.643 23.6705 149.288 23.7405 148.959 23.8807C148.633 24.017 148.368 24.214 148.163 24.4716C147.959 24.7254 147.849 25.0303 147.834 25.3864H146.135C146.154 24.7576 146.339 24.2045 146.692 23.7273C147.048 23.25 147.518 22.8769 148.101 22.608C148.684 22.339 149.332 22.2045 150.044 22.2045C150.79 22.2045 151.434 22.3504 151.976 22.642C152.521 22.9299 152.942 23.3144 153.237 23.7955C153.536 24.2765 153.684 24.803 153.68 25.375C153.684 26.0265 153.502 26.5795 153.135 27.0341C152.771 27.4886 152.286 27.7936 151.68 27.9489V28.0398C152.453 28.1572 153.052 28.464 153.476 28.9602C153.904 29.4564 154.116 30.072 154.112 30.8068C154.116 31.447 153.938 32.0208 153.578 32.5284C153.222 33.036 152.735 33.4356 152.118 33.7273C151.5 34.0152 150.794 34.1591 149.999 34.1591Z" fill="#5F5F5F"/>
<path d="M202.712 27.9558L208.579 21.7253C208.862 21.4249 209.321 21.4249 209.603 21.7253L210.288 22.4521C210.57 22.7522 210.571 23.2382 210.289 23.5389L205.639 28.4998L210.289 33.4611C210.571 33.7618 210.57 34.2478 210.288 34.5479L209.603 35.2747C209.32 35.5751 208.861 35.5751 208.579 35.2747L202.712 29.0439C202.429 28.7435 202.429 28.2562 202.712 27.9558Z" fill="#5F5F5F"/>
<path d="M236.288 29.0441L230.421 35.2746C230.138 35.5751 229.679 35.5751 229.396 35.2746L228.712 34.5479C228.43 34.248 228.429 33.7618 228.711 33.4611L233.361 28.5L228.711 23.5389C228.429 23.2382 228.43 22.752 228.712 22.4521L229.396 21.7254C229.679 21.4249 230.138 21.4249 230.421 21.7254L236.288 27.9559C236.571 28.2564 236.571 28.7436 236.288 29.0441Z" fill="#5F5F5F"/>
<path d="M29.1186 54.8182H30.983L34.2244 62.733H34.3438L37.5852 54.8182H39.4496V65H37.9879V57.6321H37.8935L34.8906 64.9851H33.6776L30.6747 57.6271H30.5803V65H29.1186V54.8182Z" fill="#5F5F5F"/>
<path d="M31.8722 129L36.4261 119.991V119.912H31.1761V118.818H37.6989V119.972L33.1648 129H31.8722Z" fill="#5F5F5F"/>
<path d="M31.255 150.818V161H29.1023V152.862H29.0426L26.7109 154.323V152.414L29.2315 150.818H31.255ZM33.5208 159.21V157.515L37.7715 150.818H39.2331V153.165H38.3681L35.6884 157.406V157.485H41.7289V159.21H33.5208ZM38.4078 161V158.693L38.4476 157.942V150.818H40.4661V161H38.4078Z" fill="#5F5F5F"/>
<path d="M27.3253 193V191.449L30.9496 188.093C31.2578 187.795 31.5163 187.526 31.7251 187.288C31.9373 187.049 32.098 186.815 32.2074 186.587C32.3168 186.355 32.3714 186.104 32.3714 185.836C32.3714 185.538 32.3035 185.281 32.1676 185.065C32.0317 184.847 31.8461 184.679 31.6108 184.563C31.3755 184.444 31.1087 184.384 30.8104 184.384C30.4988 184.384 30.227 184.447 29.995 184.573C29.763 184.699 29.584 184.88 29.4581 185.115C29.3321 185.35 29.2692 185.63 29.2692 185.955H27.2259C27.2259 185.289 27.3767 184.711 27.6783 184.22C27.9799 183.73 28.4025 183.35 28.946 183.082C29.4896 182.813 30.116 182.679 30.8253 182.679C31.5545 182.679 32.1892 182.808 32.7294 183.067C33.273 183.322 33.6955 183.677 33.9972 184.131C34.2988 184.585 34.4496 185.105 34.4496 185.692C34.4496 186.076 34.3733 186.456 34.2209 186.83C34.0717 187.205 33.8049 187.621 33.4205 188.078C33.036 188.532 32.4941 189.077 31.7947 189.714L30.3082 191.17V191.24H34.5838V193H27.3253ZM40.5733 182.818V193H38.4206V184.862H38.361L36.0293 186.323V184.414L38.5499 182.818H40.5733Z" fill="#5F5F5F"/>
<path d="M25.8253 225V223.449L29.4496 220.093C29.7578 219.795 30.0163 219.526 30.2251 219.288C30.4373 219.049 30.598 218.815 30.7074 218.587C30.8168 218.355 30.8714 218.104 30.8714 217.836C30.8714 217.538 30.8035 217.281 30.6676 217.065C30.5317 216.847 30.3461 216.679 30.1108 216.563C29.8755 216.444 29.6087 216.384 29.3104 216.384C28.9988 216.384 28.727 216.447 28.495 216.573C28.263 216.699 28.084 216.88 27.9581 217.115C27.8321 217.35 27.7692 217.63 27.7692 217.955H25.7259C25.7259 217.289 25.8767 216.711 26.1783 216.22C26.4799 215.73 26.9025 215.35 27.446 215.082C27.9896 214.813 28.616 214.679 29.3253 214.679C30.0545 214.679 30.6892 214.808 31.2294 215.067C31.773 215.322 32.1955 215.677 32.4972 216.131C32.7988 216.585 32.9496 217.105 32.9496 217.692C32.9496 218.076 32.8733 218.456 32.7209 218.83C32.5717 219.205 32.3049 219.621 31.9205 220.078C31.536 220.532 30.9941 221.077 30.2947 221.714L28.8082 223.17V223.24H33.0838V225H25.8253ZM38.4419 225.139C37.6763 225.139 36.9952 225.015 36.3986 224.766C35.8053 224.514 35.3397 224.171 35.0016 223.737C34.6635 223.303 34.4945 222.811 34.4945 222.261C34.4945 221.836 34.5906 221.447 34.7828 221.092C34.9784 220.734 35.2435 220.438 35.5783 220.202C35.9131 219.964 36.2876 219.811 36.7019 219.745V219.675C36.1583 219.566 35.7175 219.303 35.3794 218.885C35.0414 218.464 34.8723 217.975 34.8723 217.418C34.8723 216.891 35.0265 216.422 35.3347 216.011C35.6429 215.597 36.0655 215.272 36.6025 215.037C37.1427 214.798 37.7559 214.679 38.4419 214.679C39.128 214.679 39.7395 214.798 40.2765 215.037C40.8167 215.276 41.2409 215.602 41.5492 216.016C41.8574 216.427 42.0132 216.895 42.0165 217.418C42.0132 217.978 41.8409 218.467 41.4995 218.885C41.1581 219.303 40.7206 219.566 40.187 219.675V219.745C40.5946 219.811 40.9642 219.964 41.2956 220.202C41.6304 220.438 41.8955 220.734 42.0911 221.092C42.29 221.447 42.391 221.836 42.3944 222.261C42.391 222.811 42.2203 223.303 41.8823 223.737C41.5442 224.171 41.0769 224.514 40.4803 224.766C39.887 225.015 39.2076 225.139 38.4419 225.139ZM38.4419 223.558C38.7833 223.558 39.0816 223.497 39.3368 223.374C39.592 223.248 39.7909 223.076 39.9334 222.857C40.0792 222.635 40.1522 222.38 40.1522 222.092C40.1522 221.797 40.0776 221.536 39.9284 221.311C39.7793 221.082 39.5771 220.903 39.3219 220.774C39.0667 220.642 38.7734 220.575 38.4419 220.575C38.1138 220.575 37.8205 220.642 37.562 220.774C37.3034 220.903 37.0996 221.082 36.9505 221.311C36.8046 221.536 36.7317 221.797 36.7317 222.092C36.7317 222.38 36.803 222.635 36.9455 222.857C37.088 223.076 37.2885 223.248 37.5471 223.374C37.8056 223.497 38.1039 223.558 38.4419 223.558ZM38.4419 219.009C38.727 219.009 38.9805 218.951 39.2026 218.835C39.4247 218.719 39.5987 218.558 39.7246 218.353C39.8506 218.147 39.9135 217.911 39.9135 217.642C39.9135 217.377 39.8506 217.145 39.7246 216.946C39.5987 216.744 39.4263 216.586 39.2076 216.474C38.9888 216.358 38.7336 216.3 38.4419 216.3C38.1536 216.3 37.8984 216.358 37.6763 216.474C37.4542 216.586 37.2802 216.744 37.1543 216.946C37.0317 217.145 36.9703 217.377 36.9703 217.642C36.9703 217.911 37.0333 218.147 37.1593 218.353C37.2852 218.558 37.4592 218.719 37.6813 218.835C37.9033 218.951 38.1569 219.009 38.4419 219.009Z" fill="#5F5F5F"/>
<path d="M62.1165 56.1406V54.8182H69.9964V56.1406H66.8196V65H65.2884V56.1406H62.1165Z" fill="#5F5F5F"/>
<path d="M67.8423 86.8182V97H66.3011V88.3594H66.2415L63.8054 89.9503V88.4787L66.3459 86.8182H67.8423Z" fill="#5F5F5F"/>
<path d="M66.4197 129.139C65.7071 129.139 65.0774 129.017 64.5305 128.771C63.987 128.526 63.5611 128.188 63.2528 127.757C62.9446 127.326 62.7921 126.836 62.7955 126.286C62.7921 125.855 62.88 125.459 63.0589 125.097C63.2412 124.733 63.4882 124.429 63.7997 124.188C64.1113 123.942 64.4593 123.786 64.8438 123.72V123.661C64.3366 123.538 63.9306 123.266 63.6257 122.845C63.3208 122.424 63.17 121.94 63.1733 121.393C63.17 120.873 63.3075 120.409 63.5859 120.001C63.8677 119.59 64.2538 119.267 64.7443 119.032C65.2348 118.797 65.7933 118.679 66.4197 118.679C67.0395 118.679 67.593 118.798 68.0803 119.037C68.5708 119.272 68.9569 119.595 69.2386 120.006C69.5204 120.414 69.6629 120.876 69.6662 121.393C69.6629 121.94 69.5071 122.424 69.1989 122.845C68.8906 123.266 68.4896 123.538 67.9957 123.661V123.72C68.3769 123.786 68.7199 123.942 69.0249 124.188C69.3331 124.429 69.5784 124.733 69.7607 125.097C69.9463 125.459 70.0407 125.855 70.044 126.286C70.0407 126.836 69.8849 127.326 69.5767 127.757C69.2685 128.188 68.8409 128.526 68.294 128.771C67.7505 129.017 67.1257 129.139 66.4197 129.139ZM66.4197 127.881C66.8407 127.881 67.2053 127.812 67.5135 127.673C67.8217 127.53 68.0604 127.333 68.2294 127.081C68.3984 126.826 68.4846 126.527 68.4879 126.186C68.4846 125.831 68.3918 125.518 68.2095 125.246C68.0305 124.975 67.7869 124.761 67.4787 124.605C67.1705 124.449 66.8175 124.371 66.4197 124.371C66.0187 124.371 65.6624 124.449 65.3509 124.605C65.0393 124.761 64.794 124.975 64.6151 125.246C64.4361 125.518 64.3482 125.831 64.3516 126.186C64.3482 126.527 64.4295 126.826 64.5952 127.081C64.7642 127.333 65.0045 127.53 65.3161 127.673C65.6276 127.812 65.9955 127.881 66.4197 127.881ZM66.4197 123.143C66.7578 123.143 67.0578 123.076 67.3196 122.94C67.5814 122.804 67.7869 122.615 67.9361 122.373C68.0885 122.131 68.1664 121.848 68.1697 121.523C68.1664 121.205 68.0902 120.926 67.9411 120.688C67.7952 120.449 67.5914 120.265 67.3295 120.136C67.0677 120.003 66.7644 119.937 66.4197 119.937C66.0684 119.937 65.7602 120.003 65.495 120.136C65.2332 120.265 65.0294 120.449 64.8835 120.688C64.7377 120.926 64.6664 121.205 64.6697 121.523C64.6664 121.848 64.7393 122.131 64.8885 122.373C65.0376 122.615 65.2431 122.804 65.505 122.94C65.7701 123.076 66.075 123.143 66.4197 123.143Z" fill="#5F5F5F"/>
<path d="M63.755 150.818V161H61.6023V152.862H61.5426L59.2109 154.323V152.414L61.7315 150.818H63.755ZM69.8936 161.139C69.191 161.139 68.5646 161.01 68.0144 160.751C67.4675 160.493 67.0333 160.137 66.7118 159.683C66.3903 159.228 66.223 158.708 66.2097 158.121H68.2978C68.321 158.516 68.4867 158.836 68.7949 159.081C69.1032 159.326 69.4694 159.449 69.8936 159.449C70.2317 159.449 70.53 159.374 70.7885 159.225C71.0504 159.073 71.2542 158.862 71.4 158.594C71.5492 158.322 71.6238 158.01 71.6238 157.659C71.6238 157.301 71.5475 156.986 71.3951 156.714C71.2459 156.443 71.0388 156.231 70.7736 156.078C70.5085 155.926 70.2052 155.848 69.8638 155.844C69.5655 155.844 69.2755 155.906 68.9938 156.028C68.7154 156.151 68.4983 156.318 68.3425 156.531L66.4284 156.188L66.9107 150.818H73.1351V152.578H68.6855L68.4221 155.129H68.4817C68.6607 154.877 68.9308 154.668 69.2921 154.502C69.6533 154.336 70.0577 154.254 70.5051 154.254C71.1183 154.254 71.6652 154.398 72.1458 154.686C72.6264 154.974 73.0059 155.371 73.2843 155.874C73.5627 156.375 73.7002 156.951 73.6969 157.604C73.7002 158.29 73.5411 158.9 73.2196 159.434C72.9015 159.964 72.4557 160.382 71.8823 160.687C71.3122 160.988 70.6493 161.139 69.8936 161.139Z" fill="#5F5F5F"/>
<path d="M58.3253 193V191.449L61.9496 188.093C62.2578 187.795 62.5163 187.526 62.7251 187.288C62.9373 187.049 63.098 186.815 63.2074 186.587C63.3168 186.355 63.3714 186.104 63.3714 185.836C63.3714 185.538 63.3035 185.281 63.1676 185.065C63.0317 184.847 62.8461 184.679 62.6108 184.563C62.3755 184.444 62.1087 184.384 61.8104 184.384C61.4988 184.384 61.227 184.447 60.995 184.573C60.763 184.699 60.584 184.88 60.4581 185.115C60.3321 185.35 60.2692 185.63 60.2692 185.955H58.2259C58.2259 185.289 58.3767 184.711 58.6783 184.22C58.9799 183.73 59.4025 183.35 59.946 183.082C60.4896 182.813 61.116 182.679 61.8253 182.679C62.5545 182.679 63.1892 182.808 63.7294 183.067C64.273 183.322 64.6955 183.677 64.9972 184.131C65.2988 184.585 65.4496 185.105 65.4496 185.692C65.4496 186.076 65.3733 186.456 65.2209 186.83C65.0717 187.205 64.8049 187.621 64.4205 188.078C64.036 188.532 63.4941 189.077 62.7947 189.714L61.3082 191.17V191.24H65.5838V193H58.3253ZM67.1436 193V191.449L70.7679 188.093C71.0762 187.795 71.3347 187.526 71.5435 187.288C71.7556 187.049 71.9164 186.815 72.0257 186.587C72.1351 186.355 72.1898 186.104 72.1898 185.836C72.1898 185.538 72.1219 185.281 71.986 185.065C71.8501 184.847 71.6645 184.679 71.4292 184.563C71.1938 184.444 70.927 184.384 70.6287 184.384C70.3172 184.384 70.0454 184.447 69.8134 184.573C69.5814 184.699 69.4024 184.88 69.2765 185.115C69.1505 185.35 69.0875 185.63 69.0875 185.955H67.0442C67.0442 185.289 67.195 184.711 67.4966 184.22C67.7982 183.73 68.2208 183.35 68.7644 183.082C69.3079 182.813 69.9344 182.679 70.6436 182.679C71.3728 182.679 72.0075 182.808 72.5478 183.067C73.0913 183.322 73.5139 183.677 73.8155 184.131C74.1171 184.585 74.2679 185.105 74.2679 185.692C74.2679 186.076 74.1917 186.456 74.0392 186.83C73.8901 187.205 73.6233 187.621 73.2388 188.078C72.8543 188.532 72.3124 189.077 71.6131 189.714L70.1266 191.17V191.24H74.4022V193H67.1436Z" fill="#5F5F5F"/>
<path d="M57.8253 225V223.449L61.4496 220.093C61.7578 219.795 62.0163 219.526 62.2251 219.288C62.4373 219.049 62.598 218.815 62.7074 218.587C62.8168 218.355 62.8714 218.104 62.8714 217.836C62.8714 217.538 62.8035 217.281 62.6676 217.065C62.5317 216.847 62.3461 216.679 62.1108 216.563C61.8755 216.444 61.6087 216.384 61.3104 216.384C60.9988 216.384 60.727 216.447 60.495 216.573C60.263 216.699 60.084 216.88 59.9581 217.115C59.8321 217.35 59.7692 217.63 59.7692 217.955H57.7259C57.7259 217.289 57.8767 216.711 58.1783 216.22C58.4799 215.73 58.9025 215.35 59.446 215.082C59.9896 214.813 60.616 214.679 61.3253 214.679C62.0545 214.679 62.6892 214.808 63.2294 215.067C63.773 215.322 64.1955 215.677 64.4972 216.131C64.7988 216.585 64.9496 217.105 64.9496 217.692C64.9496 218.076 64.8733 218.456 64.7209 218.83C64.5717 219.205 64.3049 219.621 63.9205 220.078C63.536 220.532 62.9941 221.077 62.2947 221.714L60.8082 223.17V223.24H65.0838V225H57.8253ZM70.3276 214.679C70.8513 214.679 71.3551 214.767 71.839 214.942C72.3262 215.118 72.7604 215.398 73.1415 215.783C73.526 216.167 73.8292 216.678 74.0513 217.314C74.2767 217.947 74.391 218.724 74.3944 219.646C74.3944 220.511 74.2966 221.283 74.101 221.962C73.9088 222.638 73.632 223.214 73.2708 223.688C72.9095 224.161 72.4737 224.523 71.9632 224.771C71.4528 225.017 70.8828 225.139 70.253 225.139C69.5736 225.139 68.9737 225.008 68.4533 224.746C67.9329 224.481 67.5137 224.122 67.1955 223.668C66.8806 223.21 66.69 222.696 66.6238 222.126H68.7466C68.8295 222.498 69.0035 222.786 69.2686 222.991C69.5338 223.194 69.8619 223.295 70.253 223.295C70.9159 223.295 71.4197 223.006 71.7644 222.43C72.1091 221.85 72.2831 221.056 72.2864 220.048H72.2168C72.0643 220.347 71.8588 220.603 71.6003 220.819C71.3418 221.031 71.0452 221.195 70.7104 221.311C70.379 221.427 70.026 221.485 69.6515 221.485C69.0516 221.485 68.5163 221.344 68.0456 221.062C67.575 220.781 67.2038 220.393 66.932 219.899C66.6602 219.405 66.5243 218.842 66.5243 218.209C66.521 217.526 66.6784 216.918 66.9966 216.384C67.3148 215.851 67.7589 215.433 68.329 215.131C68.9024 214.826 69.5686 214.676 70.3276 214.679ZM70.3425 216.369C70.0078 216.369 69.7095 216.449 69.4476 216.608C69.1891 216.767 68.9836 216.981 68.8311 217.249C68.682 217.518 68.6091 217.818 68.6124 218.149C68.6124 218.484 68.6853 218.786 68.8311 219.054C68.9803 219.319 69.1825 219.531 69.4377 219.69C69.6962 219.846 69.9912 219.924 70.3226 219.924C70.5712 219.924 70.8016 219.878 71.0137 219.785C71.2258 219.692 71.4097 219.564 71.5655 219.402C71.7246 219.236 71.8489 219.046 71.9384 218.83C72.0279 218.615 72.0726 218.386 72.0726 218.144C72.0693 217.823 71.9931 217.528 71.8439 217.259C71.6948 216.991 71.4893 216.775 71.2275 216.613C70.9656 216.451 70.6706 216.369 70.3425 216.369Z" fill="#5F5F5F"/>
<g filter="url(#filter1_i_415_266)">
<circle cx="102.5" cy="155.5" r="13.5" fill="#D9D9D9"/>
</g>
<path d="M98.6122 65L95.7884 54.8182H97.4041L99.3878 62.7031H99.4822L101.545 54.8182H103.146L105.21 62.7081H105.304L107.283 54.8182H108.903L106.075 65H104.528L102.386 57.3736H102.306L100.163 65H98.6122Z" fill="#5F5F5F"/>
<path d="M98.9794 97V95.8864L102.425 92.3168C102.793 91.929 103.096 91.5893 103.335 91.2976C103.576 91.0026 103.757 90.7225 103.876 90.4574C103.996 90.1922 104.055 89.9105 104.055 89.6122C104.055 89.2741 103.976 88.9825 103.817 88.7372C103.658 88.4886 103.441 88.2981 103.165 88.1655C102.89 88.0296 102.58 87.9616 102.236 87.9616C101.871 87.9616 101.553 88.0362 101.281 88.1854C101.009 88.3345 100.801 88.545 100.655 88.8168C100.509 89.0885 100.436 89.4067 100.436 89.7713H98.9695C98.9695 89.1515 99.112 88.6096 99.397 88.1456C99.6821 87.6816 100.073 87.322 100.57 87.0668C101.067 86.8082 101.633 86.679 102.266 86.679C102.905 86.679 103.469 86.8066 103.956 87.0618C104.446 87.3137 104.829 87.6584 105.104 88.0959C105.379 88.5301 105.517 89.0206 105.517 89.5675C105.517 89.9453 105.446 90.3149 105.303 90.6761C105.164 91.0374 104.92 91.4401 104.572 91.8842C104.224 92.325 103.741 92.8603 103.121 93.4901L101.097 95.608V95.6825H105.681V97H98.9794Z" fill="#5F5F5F"/>
<path d="M102.365 118.679C102.819 118.682 103.267 118.765 103.707 118.928C104.148 119.09 104.546 119.355 104.901 119.723C105.259 120.091 105.544 120.588 105.756 121.214C105.971 121.838 106.08 122.613 106.084 123.541C106.084 124.433 105.994 125.227 105.815 125.923C105.636 126.615 105.379 127.2 105.045 127.678C104.713 128.155 104.311 128.518 103.837 128.766C103.363 129.015 102.829 129.139 102.236 129.139C101.629 129.139 101.091 129.02 100.62 128.781C100.149 128.543 99.7666 128.213 99.4716 127.792C99.1766 127.368 98.9927 126.88 98.9197 126.33H100.436C100.536 126.768 100.738 127.122 101.043 127.394C101.351 127.663 101.749 127.797 102.236 127.797C102.982 127.797 103.563 127.472 103.981 126.822C104.398 126.17 104.609 125.258 104.612 124.088H104.533C104.36 124.373 104.145 124.618 103.886 124.824C103.631 125.029 103.344 125.188 103.026 125.301C102.708 125.414 102.368 125.47 102.007 125.47C101.42 125.47 100.887 125.326 100.406 125.038C99.9257 124.749 99.5429 124.353 99.2578 123.849C98.9728 123.346 98.8303 122.771 98.8303 122.124C98.8303 121.481 98.9761 120.898 99.2678 120.374C99.5627 119.851 99.9737 119.436 100.501 119.131C101.031 118.823 101.652 118.672 102.365 118.679ZM102.37 119.972C101.982 119.972 101.633 120.068 101.321 120.26C101.013 120.449 100.769 120.706 100.59 121.031C100.411 121.352 100.322 121.71 100.322 122.104C100.322 122.499 100.408 122.857 100.58 123.178C100.756 123.496 100.995 123.75 101.296 123.939C101.601 124.125 101.949 124.217 102.34 124.217C102.632 124.217 102.904 124.161 103.156 124.048C103.407 123.936 103.628 123.78 103.817 123.581C104.006 123.379 104.153 123.15 104.259 122.895C104.365 122.64 104.418 122.371 104.418 122.089C104.418 121.715 104.329 121.367 104.15 121.045C103.974 120.724 103.732 120.465 103.424 120.27C103.116 120.071 102.764 119.972 102.37 119.972Z" fill="#5F5F5F"/>
<path d="M99.255 150.818V161H97.1023V152.862H97.0426L94.7109 154.323V152.414L97.2315 150.818H99.255ZM105.583 161.139C105.059 161.136 104.553 161.048 104.066 160.876C103.582 160.703 103.148 160.423 102.764 160.036C102.379 159.648 102.074 159.134 101.849 158.494C101.627 157.855 101.516 157.069 101.516 156.138C101.519 155.283 101.617 154.519 101.809 153.846C102.005 153.17 102.283 152.596 102.644 152.126C103.009 151.655 103.445 151.297 103.952 151.052C104.459 150.803 105.027 150.679 105.657 150.679C106.337 150.679 106.936 150.812 107.457 151.077C107.977 151.339 108.395 151.695 108.71 152.146C109.028 152.596 109.22 153.102 109.286 153.662H107.164C107.081 153.307 106.907 153.029 106.642 152.827C106.376 152.625 106.048 152.523 105.657 152.523C104.994 152.523 104.49 152.812 104.146 153.388C103.804 153.965 103.63 154.749 103.624 155.74H103.693C103.846 155.438 104.051 155.182 104.31 154.969C104.572 154.754 104.868 154.59 105.2 154.477C105.535 154.361 105.887 154.303 106.259 154.303C106.862 154.303 107.399 154.446 107.869 154.731C108.34 155.013 108.711 155.4 108.983 155.894C109.255 156.388 109.391 156.953 109.391 157.589C109.391 158.279 109.23 158.892 108.909 159.429C108.59 159.966 108.145 160.387 107.571 160.692C107.001 160.993 106.338 161.143 105.583 161.139ZM105.573 159.449C105.904 159.449 106.201 159.369 106.463 159.21C106.724 159.051 106.93 158.836 107.079 158.564C107.228 158.292 107.303 157.987 107.303 157.649C107.303 157.311 107.228 157.008 107.079 156.739C106.933 156.471 106.731 156.257 106.472 156.098C106.214 155.939 105.919 155.859 105.588 155.859C105.339 155.859 105.109 155.906 104.896 155.999C104.688 156.091 104.504 156.221 104.345 156.386C104.189 156.552 104.066 156.744 103.977 156.963C103.887 157.179 103.843 157.409 103.843 157.654C103.843 157.982 103.917 158.282 104.066 158.554C104.219 158.826 104.424 159.043 104.683 159.205C104.945 159.368 105.241 159.449 105.573 159.449Z" fill="#5F5F5F"/>
<path d="M93.8253 193V191.449L97.4496 188.093C97.7578 187.795 98.0163 187.526 98.2251 187.288C98.4373 187.049 98.598 186.815 98.7074 186.587C98.8168 186.355 98.8714 186.104 98.8714 185.836C98.8714 185.538 98.8035 185.281 98.6676 185.065C98.5317 184.847 98.3461 184.679 98.1108 184.563C97.8755 184.444 97.6087 184.384 97.3104 184.384C96.9988 184.384 96.727 184.447 96.495 184.573C96.263 184.699 96.084 184.88 95.9581 185.115C95.8321 185.35 95.7692 185.63 95.7692 185.955H93.7259C93.7259 185.289 93.8767 184.711 94.1783 184.22C94.4799 183.73 94.9025 183.35 95.446 183.082C95.9896 182.813 96.616 182.679 97.3253 182.679C98.0545 182.679 98.6892 182.808 99.2294 183.067C99.773 183.322 100.196 183.677 100.497 184.131C100.799 184.585 100.95 185.105 100.95 185.692C100.95 186.076 100.873 186.456 100.721 186.83C100.572 187.205 100.305 187.621 99.9205 188.078C99.536 188.532 98.9941 189.077 98.2947 189.714L96.8082 191.17V191.24H101.084V193H93.8253ZM106.407 193.139C105.665 193.139 105.003 193.012 104.423 192.756C103.847 192.498 103.391 192.143 103.056 191.692C102.725 191.238 102.554 190.715 102.544 190.121H104.712C104.725 190.37 104.806 190.589 104.955 190.778C105.108 190.963 105.31 191.107 105.562 191.21C105.814 191.313 106.097 191.364 106.412 191.364C106.74 191.364 107.03 191.306 107.282 191.19C107.534 191.074 107.731 190.914 107.874 190.708C108.016 190.503 108.088 190.266 108.088 189.997C108.088 189.725 108.011 189.485 107.859 189.276C107.71 189.064 107.494 188.898 107.213 188.779C106.934 188.66 106.603 188.6 106.218 188.6H105.269V187.019H106.218C106.543 187.019 106.83 186.963 107.078 186.85C107.33 186.737 107.526 186.582 107.665 186.383C107.804 186.181 107.874 185.945 107.874 185.677C107.874 185.422 107.812 185.198 107.69 185.006C107.57 184.81 107.401 184.658 107.183 184.548C106.967 184.439 106.715 184.384 106.427 184.384C106.135 184.384 105.869 184.437 105.627 184.543C105.385 184.646 105.191 184.794 105.045 184.986C104.899 185.178 104.821 185.403 104.811 185.662H102.748C102.758 185.075 102.925 184.558 103.25 184.111C103.575 183.663 104.012 183.314 104.563 183.062C105.116 182.807 105.741 182.679 106.437 182.679C107.14 182.679 107.754 182.807 108.281 183.062C108.808 183.317 109.218 183.662 109.509 184.096C109.804 184.527 109.95 185.011 109.947 185.548C109.95 186.118 109.773 186.593 109.415 186.974C109.06 187.356 108.598 187.598 108.028 187.7V187.78C108.777 187.876 109.347 188.136 109.738 188.56C110.133 188.981 110.328 189.508 110.325 190.141C110.328 190.721 110.161 191.237 109.823 191.688C109.488 192.138 109.026 192.493 108.436 192.751C107.846 193.01 107.169 193.139 106.407 193.139Z" fill="#5F5F5F"/>
<path d="M97.5888 225.139C96.8464 225.139 96.1851 225.012 95.6051 224.756C95.0284 224.498 94.5727 224.143 94.2379 223.692C93.9065 223.238 93.7358 222.715 93.7259 222.121H95.8935C95.9067 222.37 95.9879 222.589 96.1371 222.778C96.2895 222.963 96.4917 223.107 96.7436 223.21C96.9955 223.313 97.2789 223.364 97.5938 223.364C97.9219 223.364 98.2119 223.306 98.4638 223.19C98.7157 223.074 98.9129 222.914 99.0554 222.708C99.1979 222.503 99.2692 222.266 99.2692 221.997C99.2692 221.725 99.1929 221.485 99.0405 221.276C98.8913 221.064 98.6759 220.898 98.3942 220.779C98.1158 220.66 97.7843 220.6 97.3999 220.6H96.4503V219.019H97.3999C97.7247 219.019 98.0114 218.963 98.2599 218.85C98.5118 218.737 98.7074 218.582 98.8466 218.383C98.9858 218.181 99.0554 217.945 99.0554 217.677C99.0554 217.422 98.9941 217.198 98.8714 217.006C98.7521 216.81 98.5831 216.658 98.3643 216.548C98.1489 216.439 97.897 216.384 97.6087 216.384C97.317 216.384 97.0502 216.437 96.8082 216.543C96.5663 216.646 96.3724 216.794 96.2266 216.986C96.0807 217.178 96.0028 217.403 95.9929 217.662H93.9297C93.9396 217.075 94.107 216.558 94.4318 216.111C94.7566 215.663 95.1941 215.314 95.7443 215.062C96.2978 214.807 96.9226 214.679 97.6186 214.679C98.3213 214.679 98.9361 214.807 99.4631 215.062C99.9901 215.317 100.399 215.662 100.691 216.096C100.986 216.527 101.132 217.011 101.129 217.548C101.132 218.118 100.955 218.593 100.597 218.974C100.242 219.356 99.7796 219.598 99.2095 219.7V219.78C99.9586 219.876 100.529 220.136 100.92 220.56C101.314 220.981 101.51 221.508 101.506 222.141C101.51 222.721 101.342 223.237 101.004 223.688C100.67 224.138 100.207 224.493 99.6172 224.751C99.0272 225.01 98.3511 225.139 97.5888 225.139ZM107.046 225.224C106.191 225.22 105.455 225.01 104.839 224.592C104.225 224.175 103.753 223.57 103.422 222.778C103.094 221.986 102.931 221.033 102.934 219.919C102.934 218.809 103.099 217.862 103.427 217.08C103.758 216.298 104.23 215.703 104.844 215.295C105.46 214.884 106.194 214.679 107.046 214.679C107.898 214.679 108.63 214.884 109.243 215.295C109.86 215.706 110.334 216.303 110.665 217.085C110.997 217.864 111.161 218.809 111.157 219.919C111.157 221.036 110.992 221.991 110.66 222.783C110.332 223.575 109.862 224.18 109.248 224.597C108.635 225.015 107.901 225.224 107.046 225.224ZM107.046 223.439C107.629 223.439 108.095 223.146 108.443 222.559C108.791 221.972 108.963 221.092 108.96 219.919C108.96 219.147 108.881 218.504 108.721 217.99C108.566 217.476 108.344 217.09 108.055 216.832C107.77 216.573 107.434 216.444 107.046 216.444C106.466 216.444 106.002 216.734 105.654 217.314C105.306 217.894 105.13 218.762 105.127 219.919C105.127 220.701 105.205 221.354 105.361 221.878C105.52 222.398 105.743 222.789 106.032 223.051C106.32 223.31 106.658 223.439 107.046 223.439Z" fill="#5F5F5F"/>
<path d="M134.116 56.1406V54.8182H141.996V56.1406H138.82V65H137.288V56.1406H134.116Z" fill="#5F5F5F"/>
<path d="M138.024 97.1392C137.341 97.1392 136.732 97.0215 136.195 96.7862C135.661 96.5509 135.238 96.2244 134.927 95.8068C134.619 95.3859 134.453 94.8987 134.43 94.3452H135.991C136.011 94.6468 136.112 94.9086 136.294 95.1307C136.48 95.3494 136.722 95.5185 137.02 95.6378C137.318 95.7571 137.65 95.8168 138.014 95.8168C138.415 95.8168 138.77 95.7472 139.078 95.608C139.39 95.4687 139.633 95.2749 139.809 95.0263C139.985 94.7744 140.072 94.4844 140.072 94.1562C140.072 93.8149 139.985 93.5149 139.809 93.2564C139.637 92.9946 139.383 92.7891 139.048 92.6399C138.717 92.4908 138.316 92.4162 137.845 92.4162H136.985V91.1634H137.845C138.223 91.1634 138.554 91.0954 138.839 90.9595C139.128 90.8236 139.353 90.6347 139.516 90.3928C139.678 90.1475 139.759 89.8608 139.759 89.5327C139.759 89.2178 139.688 88.9444 139.545 88.7124C139.406 88.477 139.207 88.2931 138.949 88.1605C138.694 88.0279 138.392 87.9616 138.044 87.9616C137.713 87.9616 137.403 88.023 137.114 88.1456C136.829 88.2649 136.597 88.4373 136.418 88.6626C136.239 88.8847 136.143 89.1515 136.13 89.4631H134.643C134.66 88.9129 134.822 88.429 135.131 88.0114C135.442 87.5937 135.853 87.2673 136.364 87.032C136.874 86.7966 137.441 86.679 138.064 86.679C138.717 86.679 139.28 86.8066 139.754 87.0618C140.232 87.3137 140.599 87.6501 140.858 88.071C141.12 88.492 141.249 88.9527 141.246 89.4531C141.249 90.0232 141.09 90.5071 140.768 90.9048C140.45 91.3026 140.026 91.5694 139.496 91.7053V91.7848C140.172 91.8875 140.696 92.156 141.067 92.5902C141.441 93.0244 141.627 93.563 141.624 94.206C141.627 94.7661 141.471 95.2682 141.156 95.7124C140.845 96.1565 140.419 96.5062 139.879 96.7614C139.338 97.0133 138.72 97.1392 138.024 97.1392Z" fill="#5F5F5F"/>
<path d="M135.342 118.818V129H133.801V120.359H133.741L131.305 121.95V120.479L133.846 118.818H135.342ZM141.641 129.169C140.856 129.166 140.185 128.959 139.628 128.548C139.071 128.137 138.645 127.538 138.35 126.753C138.055 125.967 137.908 125.021 137.908 123.914C137.908 122.81 138.055 121.867 138.35 121.085C138.648 120.303 139.076 119.706 139.633 119.295C140.193 118.884 140.862 118.679 141.641 118.679C142.42 118.679 143.088 118.886 143.645 119.3C144.202 119.711 144.628 120.308 144.923 121.09C145.221 121.869 145.37 122.81 145.37 123.914C145.37 125.024 145.223 125.972 144.928 126.758C144.633 127.54 144.207 128.138 143.65 128.553C143.093 128.964 142.424 129.169 141.641 129.169ZM141.641 127.842C142.331 127.842 142.869 127.505 143.257 126.832C143.648 126.16 143.844 125.187 143.844 123.914C143.844 123.069 143.754 122.355 143.575 121.771C143.4 121.185 143.146 120.741 142.815 120.439C142.487 120.134 142.095 119.982 141.641 119.982C140.955 119.982 140.417 120.32 140.026 120.996C139.634 121.672 139.437 122.645 139.434 123.914C139.434 124.763 139.522 125.48 139.697 126.067C139.876 126.65 140.13 127.093 140.458 127.394C140.786 127.692 141.181 127.842 141.641 127.842Z" fill="#5F5F5F"/>
<path d="M135.755 150.818V161H133.602V152.862H133.543L131.211 154.323V152.414L133.732 150.818H135.755ZM138.578 161L142.798 152.648V152.578H137.882V150.818H145.026V152.603L140.8 161H138.578Z" fill="#5F5F5F"/>
<path d="M129.825 193V191.449L133.45 188.093C133.758 187.795 134.016 187.526 134.225 187.288C134.437 187.049 134.598 186.815 134.707 186.587C134.817 186.355 134.871 186.104 134.871 185.836C134.871 185.538 134.804 185.281 134.668 185.065C134.532 184.847 134.346 184.679 134.111 184.563C133.875 184.444 133.609 184.384 133.31 184.384C132.999 184.384 132.727 184.447 132.495 184.573C132.263 184.699 132.084 184.88 131.958 185.115C131.832 185.35 131.769 185.63 131.769 185.955H129.726C129.726 185.289 129.877 184.711 130.178 184.22C130.48 183.73 130.902 183.35 131.446 183.082C131.99 182.813 132.616 182.679 133.325 182.679C134.054 182.679 134.689 182.808 135.229 183.067C135.773 183.322 136.196 183.677 136.497 184.131C136.799 184.585 136.95 185.105 136.95 185.692C136.95 186.076 136.873 186.456 136.721 186.83C136.572 187.205 136.305 187.621 135.92 188.078C135.536 188.532 134.994 189.077 134.295 189.714L132.808 191.17V191.24H137.084V193H129.825ZM138.271 191.21V189.515L142.521 182.818H143.983V185.165H143.118L140.438 189.406V189.485H146.479V191.21H138.271ZM143.158 193V190.693L143.198 189.942V182.818H145.216V193H143.158Z" fill="#5F5F5F"/>
<path d="M166.619 65V54.8182H172.933V56.1406H168.155V59.2429H172.48V60.5604H168.155V65H166.619Z" fill="#5F5F5F"/>
<path d="M165.766 95.0114V93.7685L170.165 86.8182H171.145V88.6477H170.523L167.376 93.6293V93.7088H173.407V95.0114H165.766ZM170.593 97V94.6335L170.603 94.0668V86.8182H172.06V97H170.593Z" fill="#5F5F5F"/>
<path d="M167.842 118.818V129H166.301V120.359H166.241L163.805 121.95V120.479L166.346 118.818H167.842ZM174.46 118.818V129H172.918V120.359H172.859L170.423 121.95V120.479L172.963 118.818H174.46Z" fill="#5F5F5F"/>
<path d="M166.755 150.818V161H164.602V152.862H164.543L162.211 154.323V152.414L164.732 150.818H166.755ZM172.973 161.139C172.208 161.139 171.526 161.015 170.93 160.766C170.337 160.514 169.871 160.171 169.533 159.737C169.195 159.303 169.026 158.811 169.026 158.261C169.026 157.836 169.122 157.447 169.314 157.092C169.51 156.734 169.775 156.438 170.11 156.202C170.444 155.964 170.819 155.811 171.233 155.745V155.675C170.69 155.566 170.249 155.303 169.911 154.885C169.573 154.464 169.404 153.975 169.404 153.418C169.404 152.891 169.558 152.422 169.866 152.011C170.174 151.597 170.597 151.272 171.134 151.037C171.674 150.798 172.287 150.679 172.973 150.679C173.659 150.679 174.271 150.798 174.808 151.037C175.348 151.276 175.772 151.602 176.08 152.016C176.389 152.427 176.544 152.895 176.548 153.418C176.544 153.978 176.372 154.467 176.031 154.885C175.689 155.303 175.252 155.566 174.718 155.675V155.745C175.126 155.811 175.495 155.964 175.827 156.202C176.162 156.438 176.427 156.734 176.622 157.092C176.821 157.447 176.922 157.836 176.926 158.261C176.922 158.811 176.752 159.303 176.414 159.737C176.075 160.171 175.608 160.514 175.012 160.766C174.418 161.015 173.739 161.139 172.973 161.139ZM172.973 159.558C173.315 159.558 173.613 159.497 173.868 159.374C174.123 159.248 174.322 159.076 174.465 158.857C174.61 158.635 174.683 158.38 174.683 158.092C174.683 157.797 174.609 157.536 174.46 157.311C174.311 157.082 174.108 156.903 173.853 156.774C173.598 156.642 173.305 156.575 172.973 156.575C172.645 156.575 172.352 156.642 172.093 156.774C171.835 156.903 171.631 157.082 171.482 157.311C171.336 157.536 171.263 157.797 171.263 158.092C171.263 158.38 171.334 158.635 171.477 158.857C171.619 159.076 171.82 159.248 172.078 159.374C172.337 159.497 172.635 159.558 172.973 159.558ZM172.973 155.009C173.258 155.009 173.512 154.951 173.734 154.835C173.956 154.719 174.13 154.558 174.256 154.353C174.382 154.147 174.445 153.911 174.445 153.642C174.445 153.377 174.382 153.145 174.256 152.946C174.13 152.744 173.958 152.586 173.739 152.474C173.52 152.358 173.265 152.3 172.973 152.3C172.685 152.3 172.43 152.358 172.208 152.474C171.985 152.586 171.811 152.744 171.686 152.946C171.563 153.145 171.502 153.377 171.502 153.642C171.502 153.911 171.565 154.147 171.691 154.353C171.816 154.558 171.99 154.719 172.213 154.835C172.435 154.951 172.688 155.009 172.973 155.009Z" fill="#5F5F5F"/>
<path d="M161.825 193V191.449L165.45 188.093C165.758 187.795 166.016 187.526 166.225 187.288C166.437 187.049 166.598 186.815 166.707 186.587C166.817 186.355 166.871 186.104 166.871 185.836C166.871 185.538 166.804 185.281 166.668 185.065C166.532 184.847 166.346 184.679 166.111 184.563C165.875 184.444 165.609 184.384 165.31 184.384C164.999 184.384 164.727 184.447 164.495 184.573C164.263 184.699 164.084 184.88 163.958 185.115C163.832 185.35 163.769 185.63 163.769 185.955H161.726C161.726 185.289 161.877 184.711 162.178 184.22C162.48 183.73 162.902 183.35 163.446 183.082C163.99 182.813 164.616 182.679 165.325 182.679C166.054 182.679 166.689 182.808 167.229 183.067C167.773 183.322 168.196 183.677 168.497 184.131C168.799 184.585 168.95 185.105 168.95 185.692C168.95 186.076 168.873 186.456 168.721 186.83C168.572 187.205 168.305 187.621 167.92 188.078C167.536 188.532 166.994 189.077 166.295 189.714L164.808 191.17V191.24H169.084V193H161.825ZM174.362 193.139C173.66 193.139 173.033 193.01 172.483 192.751C171.936 192.493 171.502 192.137 171.181 191.683C170.859 191.228 170.692 190.708 170.678 190.121H172.767C172.79 190.516 172.955 190.836 173.264 191.081C173.572 191.326 173.938 191.449 174.362 191.449C174.7 191.449 174.999 191.374 175.257 191.225C175.519 191.073 175.723 190.862 175.869 190.594C176.018 190.322 176.093 190.01 176.093 189.659C176.093 189.301 176.016 188.986 175.864 188.714C175.715 188.443 175.508 188.231 175.242 188.078C174.977 187.926 174.674 187.848 174.333 187.844C174.034 187.844 173.744 187.906 173.463 188.028C173.184 188.151 172.967 188.318 172.811 188.531L170.897 188.188L171.379 182.818H177.604V184.578H173.154L172.891 187.129H172.95C173.129 186.877 173.4 186.668 173.761 186.502C174.122 186.336 174.526 186.254 174.974 186.254C175.587 186.254 176.134 186.398 176.615 186.686C177.095 186.974 177.475 187.371 177.753 187.874C178.031 188.375 178.169 188.951 178.166 189.604C178.169 190.29 178.01 190.9 177.688 191.434C177.37 191.964 176.924 192.382 176.351 192.687C175.781 192.988 175.118 193.139 174.362 193.139Z" fill="#5F5F5F"/>
<path d="M203.172 57.4929C203.119 57.0223 202.9 56.6577 202.516 56.3991C202.131 56.1373 201.647 56.0064 201.064 56.0064C200.646 56.0064 200.285 56.0727 199.98 56.2053C199.675 56.3345 199.438 56.5135 199.269 56.7422C199.103 56.9676 199.021 57.2244 199.021 57.5128C199.021 57.7547 199.077 57.9635 199.19 58.1392C199.306 58.3149 199.456 58.4624 199.642 58.5817C199.831 58.6977 200.033 58.7955 200.249 58.875C200.464 58.9512 200.671 59.0142 200.87 59.0639L201.864 59.3224C202.189 59.402 202.522 59.5097 202.864 59.6456C203.205 59.7815 203.522 59.9605 203.813 60.1825C204.105 60.4046 204.34 60.6797 204.519 61.0078C204.701 61.3359 204.793 61.7287 204.793 62.1861C204.793 62.7628 204.643 63.2749 204.345 63.7223C204.05 64.1697 203.621 64.5227 203.058 64.7812C202.497 65.0398 201.82 65.169 201.024 65.169C200.262 65.169 199.602 65.0481 199.045 64.8061C198.489 64.5642 198.053 64.2211 197.738 63.777C197.423 63.3295 197.249 62.7992 197.216 62.1861H198.757C198.787 62.554 198.906 62.8606 199.115 63.1058C199.327 63.3478 199.597 63.5284 199.925 63.6477C200.257 63.7637 200.62 63.8217 201.014 63.8217C201.448 63.8217 201.835 63.7538 202.173 63.6179C202.514 63.4787 202.782 63.2865 202.978 63.0412C203.174 62.7926 203.271 62.5026 203.271 62.1712C203.271 61.8696 203.185 61.6226 203.013 61.4304C202.844 61.2382 202.613 61.0791 202.322 60.9531C202.033 60.8272 201.707 60.7161 201.342 60.62L200.139 60.2919C199.324 60.0698 198.678 59.7434 198.2 59.3125C197.726 58.8816 197.489 58.3116 197.489 57.6023C197.489 57.0156 197.648 56.5036 197.967 56.0661C198.285 55.6286 198.716 55.2888 199.259 55.0469C199.803 54.8016 200.416 54.679 201.099 54.679C201.788 54.679 202.396 54.8 202.923 55.0419C203.454 55.2839 203.871 55.617 204.176 56.0412C204.481 56.4621 204.64 56.946 204.653 57.4929H203.172Z" fill="#5F5F5F"/>
<path d="M201.34 97.1392C200.717 97.1392 200.157 97.0199 199.66 96.7812C199.166 96.5393 198.772 96.2079 198.477 95.7869C198.182 95.366 198.024 94.8854 198.004 94.3452H199.496C199.532 94.7827 199.726 95.1423 200.077 95.424C200.429 95.7057 200.85 95.8466 201.34 95.8466C201.731 95.8466 202.078 95.7571 202.379 95.5781C202.684 95.3958 202.923 95.1456 203.095 94.8274C203.271 94.5092 203.359 94.1463 203.359 93.7386C203.359 93.3243 203.269 92.9548 203.09 92.63C202.911 92.3052 202.664 92.05 202.349 91.8643C202.038 91.6787 201.68 91.5843 201.276 91.581C200.967 91.581 200.657 91.634 200.346 91.7401C200.034 91.8461 199.782 91.9853 199.59 92.1577L198.183 91.9489L198.755 86.8182H204.353V88.1357H200.033L199.71 90.9844H199.769C199.968 90.7921 200.232 90.6314 200.56 90.5021C200.891 90.3729 201.246 90.3082 201.624 90.3082C202.243 90.3082 202.795 90.4557 203.279 90.7507C203.766 91.0457 204.149 91.4484 204.428 91.9588C204.709 92.4659 204.848 93.0492 204.845 93.7088C204.848 94.3684 204.699 94.9567 204.398 95.4737C204.099 95.9908 203.685 96.3984 203.155 96.6967C202.628 96.9917 202.023 97.1392 201.34 97.1392Z" fill="#5F5F5F"/>
<path d="M198.342 118.818V129H196.801V120.359H196.741L194.305 121.95V120.479L196.846 118.818H198.342ZM201.097 129V127.886L204.542 124.317C204.91 123.929 205.213 123.589 205.452 123.298C205.694 123.003 205.874 122.723 205.994 122.457C206.113 122.192 206.173 121.911 206.173 121.612C206.173 121.274 206.093 120.982 205.934 120.737C205.775 120.489 205.558 120.298 205.283 120.165C205.008 120.03 204.698 119.962 204.353 119.962C203.988 119.962 203.67 120.036 203.398 120.185C203.127 120.335 202.918 120.545 202.772 120.817C202.626 121.089 202.553 121.407 202.553 121.771H201.087C201.087 121.152 201.229 120.61 201.514 120.146C201.799 119.682 202.19 119.322 202.688 119.067C203.185 118.808 203.75 118.679 204.383 118.679C205.022 118.679 205.586 118.807 206.073 119.062C206.564 119.314 206.946 119.658 207.222 120.096C207.497 120.53 207.634 121.021 207.634 121.567C207.634 121.945 207.563 122.315 207.42 122.676C207.281 123.037 207.038 123.44 206.69 123.884C206.342 124.325 205.858 124.86 205.238 125.49L203.214 127.608V127.683H207.798V129H201.097Z" fill="url(#paint0_linear_415_266)"/>
<path d="M198.255 150.818V161H196.102V152.862H196.043L193.711 154.323V152.414L196.232 150.818H198.255ZM204.359 150.679C204.883 150.679 205.386 150.767 205.87 150.942C206.357 151.118 206.792 151.398 207.173 151.783C207.557 152.167 207.86 152.678 208.083 153.314C208.308 153.947 208.422 154.724 208.426 155.646C208.426 156.511 208.328 157.283 208.132 157.962C207.94 158.638 207.663 159.214 207.302 159.688C206.941 160.161 206.505 160.523 205.994 160.771C205.484 161.017 204.914 161.139 204.284 161.139C203.605 161.139 203.005 161.008 202.485 160.746C201.964 160.481 201.545 160.122 201.227 159.668C200.912 159.21 200.721 158.696 200.655 158.126H202.778C202.861 158.498 203.035 158.786 203.3 158.991C203.565 159.194 203.893 159.295 204.284 159.295C204.947 159.295 205.451 159.006 205.796 158.43C206.14 157.85 206.314 157.056 206.318 156.048H206.248C206.096 156.347 205.89 156.603 205.632 156.819C205.373 157.031 205.076 157.195 204.742 157.311C204.41 157.427 204.057 157.485 203.683 157.485C203.083 157.485 202.548 157.344 202.077 157.062C201.606 156.781 201.235 156.393 200.963 155.899C200.691 155.405 200.556 154.842 200.556 154.209C200.552 153.526 200.71 152.918 201.028 152.384C201.346 151.851 201.79 151.433 202.36 151.131C202.934 150.826 203.6 150.676 204.359 150.679ZM204.374 152.369C204.039 152.369 203.741 152.449 203.479 152.608C203.22 152.767 203.015 152.981 202.862 153.249C202.713 153.518 202.64 153.818 202.644 154.149C202.644 154.484 202.717 154.786 202.862 155.054C203.012 155.319 203.214 155.531 203.469 155.69C203.727 155.846 204.022 155.924 204.354 155.924C204.602 155.924 204.833 155.878 205.045 155.785C205.257 155.692 205.441 155.564 205.597 155.402C205.756 155.236 205.88 155.046 205.97 154.83C206.059 154.615 206.104 154.386 206.104 154.144C206.101 153.823 206.024 153.528 205.875 153.259C205.726 152.991 205.521 152.775 205.259 152.613C204.997 152.451 204.702 152.369 204.374 152.369Z" fill="#5F5F5F"/>
<path d="M192.825 193V191.449L196.45 188.093C196.758 187.795 197.016 187.526 197.225 187.288C197.437 187.049 197.598 186.815 197.707 186.587C197.817 186.355 197.871 186.104 197.871 185.836C197.871 185.538 197.804 185.281 197.668 185.065C197.532 184.847 197.346 184.679 197.111 184.563C196.875 184.444 196.609 184.384 196.31 184.384C195.999 184.384 195.727 184.447 195.495 184.573C195.263 184.699 195.084 184.88 194.958 185.115C194.832 185.35 194.769 185.63 194.769 185.955H192.726C192.726 185.289 192.877 184.711 193.178 184.22C193.48 183.73 193.902 183.35 194.446 183.082C194.99 182.813 195.616 182.679 196.325 182.679C197.054 182.679 197.689 182.808 198.229 183.067C198.773 183.322 199.196 183.677 199.497 184.131C199.799 184.585 199.95 185.105 199.95 185.692C199.95 186.076 199.873 186.456 199.721 186.83C199.572 187.205 199.305 187.621 198.92 188.078C198.536 188.532 197.994 189.077 197.295 189.714L195.808 191.17V191.24H200.084V193H192.825ZM205.551 193.139C205.028 193.136 204.522 193.048 204.035 192.876C203.551 192.703 203.117 192.423 202.732 192.036C202.348 191.648 202.043 191.134 201.818 190.494C201.596 189.855 201.485 189.069 201.485 188.138C201.488 187.283 201.586 186.519 201.778 185.846C201.973 185.17 202.252 184.596 202.613 184.126C202.978 183.655 203.414 183.297 203.921 183.052C204.428 182.803 204.996 182.679 205.626 182.679C206.305 182.679 206.905 182.812 207.426 183.077C207.946 183.339 208.364 183.695 208.678 184.146C208.997 184.596 209.189 185.102 209.255 185.662H207.132C207.049 185.307 206.875 185.029 206.61 184.827C206.345 184.625 206.017 184.523 205.626 184.523C204.963 184.523 204.459 184.812 204.115 185.388C203.773 185.965 203.599 186.749 203.593 187.74H203.662C203.815 187.438 204.02 187.182 204.279 186.969C204.54 186.754 204.837 186.59 205.169 186.477C205.503 186.361 205.856 186.303 206.227 186.303C206.831 186.303 207.368 186.446 207.838 186.731C208.309 187.013 208.68 187.4 208.952 187.894C209.224 188.388 209.36 188.953 209.36 189.589C209.36 190.279 209.199 190.892 208.877 191.429C208.559 191.966 208.113 192.387 207.54 192.692C206.97 192.993 206.307 193.143 205.551 193.139ZM205.541 191.449C205.873 191.449 206.169 191.369 206.431 191.21C206.693 191.051 206.899 190.836 207.048 190.564C207.197 190.292 207.271 189.987 207.271 189.649C207.271 189.311 207.197 189.008 207.048 188.739C206.902 188.471 206.7 188.257 206.441 188.098C206.183 187.939 205.888 187.859 205.556 187.859C205.308 187.859 205.077 187.906 204.865 187.999C204.656 188.091 204.472 188.221 204.313 188.386C204.158 188.552 204.035 188.744 203.945 188.963C203.856 189.179 203.811 189.409 203.811 189.654C203.811 189.982 203.886 190.282 204.035 190.554C204.187 190.826 204.393 191.043 204.651 191.205C204.913 191.368 205.21 191.449 205.541 191.449Z" fill="#5F5F5F"/>
<path d="M235.172 57.4929C235.119 57.0223 234.9 56.6577 234.516 56.3991C234.131 56.1373 233.647 56.0064 233.064 56.0064C232.646 56.0064 232.285 56.0727 231.98 56.2053C231.675 56.3345 231.438 56.5135 231.269 56.7422C231.103 56.9676 231.021 57.2244 231.021 57.5128C231.021 57.7547 231.077 57.9635 231.19 58.1392C231.306 58.3149 231.456 58.4624 231.642 58.5817C231.831 58.6977 232.033 58.7955 232.249 58.875C232.464 58.9512 232.671 59.0142 232.87 59.0639L233.864 59.3224C234.189 59.402 234.522 59.5097 234.864 59.6456C235.205 59.7815 235.522 59.9605 235.813 60.1825C236.105 60.4046 236.34 60.6797 236.519 61.0078C236.701 61.3359 236.793 61.7287 236.793 62.1861C236.793 62.7628 236.643 63.2749 236.345 63.7223C236.05 64.1697 235.621 64.5227 235.058 64.7812C234.497 65.0398 233.82 65.169 233.024 65.169C232.262 65.169 231.602 65.0481 231.045 64.8061C230.489 64.5642 230.053 64.2211 229.738 63.777C229.423 63.3295 229.249 62.7992 229.216 62.1861H230.757C230.787 62.554 230.906 62.8606 231.115 63.1058C231.327 63.3478 231.597 63.5284 231.925 63.6477C232.257 63.7637 232.62 63.8217 233.014 63.8217C233.448 63.8217 233.835 63.7538 234.173 63.6179C234.514 63.4787 234.782 63.2865 234.978 63.0412C235.174 62.7926 235.271 62.5026 235.271 62.1712C235.271 61.8696 235.185 61.6226 235.013 61.4304C234.844 61.2382 234.613 61.0791 234.322 60.9531C234.033 60.8272 233.707 60.7161 233.342 60.62L232.139 60.2919C231.324 60.0698 230.678 59.7434 230.2 59.3125C229.726 58.8816 229.489 58.3116 229.489 57.6023C229.489 57.0156 229.648 56.5036 229.967 56.0661C230.285 55.6286 230.716 55.2888 231.259 55.0469C231.803 54.8016 232.416 54.679 233.099 54.679C233.788 54.679 234.396 54.8 234.923 55.0419C235.454 55.2839 235.871 55.617 236.176 56.0412C236.481 56.4621 236.64 56.946 236.653 57.4929H235.172Z" fill="#5F5F5F"/>
<path d="M233.534 97.1392C233.08 97.1326 232.633 97.0497 232.192 96.8906C231.754 96.7315 231.357 96.4664 230.999 96.0952C230.641 95.724 230.354 95.2251 230.138 94.5987C229.926 93.9723 229.82 93.1901 229.82 92.2521C229.82 91.3639 229.908 90.575 230.084 89.8857C230.263 89.1963 230.52 88.6146 230.854 88.1406C231.189 87.6634 231.594 87.3004 232.067 87.0518C232.541 86.8033 233.073 86.679 233.663 86.679C234.27 86.679 234.808 86.7983 235.279 87.0369C235.75 87.2756 236.131 87.6054 236.423 88.0263C236.718 88.4472 236.905 88.9261 236.984 89.4631H235.468C235.365 89.0388 235.161 88.6925 234.857 88.424C234.552 88.1555 234.154 88.0213 233.663 88.0213C232.918 88.0213 232.336 88.3461 231.918 88.9957C231.504 89.6454 231.295 90.5485 231.292 91.7053H231.366C231.542 91.4169 231.758 91.1716 232.013 90.9695C232.271 90.764 232.56 90.6065 232.878 90.4972C233.199 90.3845 233.537 90.3281 233.892 90.3281C234.482 90.3281 235.016 90.4723 235.493 90.7607C235.973 91.0457 236.356 91.4401 236.641 91.9439C236.926 92.4477 237.069 93.0244 237.069 93.674C237.069 94.3236 236.921 94.9119 236.626 95.4389C236.335 95.9659 235.924 96.3835 235.393 96.6918C234.863 96.9967 234.243 97.1458 233.534 97.1392ZM233.529 95.8466C233.92 95.8466 234.27 95.7505 234.578 95.5582C234.886 95.366 235.13 95.1075 235.309 94.7827C235.488 94.4579 235.577 94.0949 235.577 93.6939C235.577 93.3028 235.49 92.9465 235.314 92.625C235.142 92.3035 234.903 92.0483 234.598 91.8594C234.296 91.6705 233.952 91.576 233.564 91.576C233.269 91.576 232.996 91.6323 232.744 91.745C232.495 91.8577 232.276 92.0135 232.087 92.2124C231.898 92.4112 231.749 92.6399 231.64 92.8984C231.534 93.1536 231.481 93.4238 231.481 93.7088C231.481 94.09 231.569 94.4429 231.744 94.7678C231.923 95.0926 232.167 95.3544 232.475 95.5533C232.787 95.7488 233.138 95.8466 233.529 95.8466Z" fill="#5F5F5F"/>
<path d="M230.342 118.818V129H228.801V120.359H228.741L226.305 121.95V120.479L228.846 118.818H230.342ZM236.641 129.139C235.959 129.139 235.349 129.022 234.812 128.786C234.278 128.551 233.856 128.224 233.544 127.807C233.236 127.386 233.07 126.899 233.047 126.345H234.608C234.628 126.647 234.729 126.909 234.911 127.131C235.097 127.349 235.339 127.518 235.637 127.638C235.935 127.757 236.267 127.817 236.631 127.817C237.032 127.817 237.387 127.747 237.695 127.608C238.007 127.469 238.25 127.275 238.426 127.026C238.602 126.774 238.69 126.484 238.69 126.156C238.69 125.815 238.602 125.515 238.426 125.256C238.254 124.995 238 124.789 237.665 124.64C237.334 124.491 236.933 124.416 236.462 124.416H235.602V123.163H236.462C236.84 123.163 237.172 123.095 237.457 122.96C237.745 122.824 237.97 122.635 238.133 122.393C238.295 122.147 238.376 121.861 238.376 121.533C238.376 121.218 238.305 120.944 238.163 120.712C238.023 120.477 237.825 120.293 237.566 120.161C237.311 120.028 237.009 119.962 236.661 119.962C236.33 119.962 236.02 120.023 235.732 120.146C235.446 120.265 235.214 120.437 235.036 120.663C234.857 120.885 234.76 121.152 234.747 121.463H233.261C233.277 120.913 233.44 120.429 233.748 120.011C234.059 119.594 234.47 119.267 234.981 119.032C235.491 118.797 236.058 118.679 236.681 118.679C237.334 118.679 237.897 118.807 238.371 119.062C238.849 119.314 239.217 119.65 239.475 120.071C239.737 120.492 239.866 120.953 239.863 121.453C239.866 122.023 239.707 122.507 239.386 122.905C239.067 123.303 238.643 123.569 238.113 123.705V123.785C238.789 123.888 239.313 124.156 239.684 124.59C240.058 125.024 240.244 125.563 240.241 126.206C240.244 126.766 240.088 127.268 239.773 127.712C239.462 128.156 239.036 128.506 238.496 128.761C237.955 129.013 237.337 129.139 236.641 129.139Z" fill="#5F5F5F"/>
<path d="M224.825 161V159.449L228.45 156.093C228.758 155.795 229.016 155.526 229.225 155.288C229.437 155.049 229.598 154.815 229.707 154.587C229.817 154.355 229.871 154.104 229.871 153.836C229.871 153.538 229.804 153.281 229.668 153.065C229.532 152.847 229.346 152.679 229.111 152.563C228.875 152.444 228.609 152.384 228.31 152.384C227.999 152.384 227.727 152.447 227.495 152.573C227.263 152.699 227.084 152.88 226.958 153.115C226.832 153.35 226.769 153.63 226.769 153.955H224.726C224.726 153.289 224.877 152.711 225.178 152.22C225.48 151.73 225.902 151.35 226.446 151.082C226.99 150.813 227.616 150.679 228.325 150.679C229.054 150.679 229.689 150.808 230.229 151.067C230.773 151.322 231.196 151.677 231.497 152.131C231.799 152.585 231.95 153.105 231.95 153.692C231.95 154.076 231.873 154.456 231.721 154.83C231.572 155.205 231.305 155.621 230.92 156.078C230.536 156.532 229.994 157.077 229.295 157.714L227.808 159.17V159.24H232.084V161H224.825ZM237.636 161.224C236.781 161.22 236.045 161.01 235.428 160.592C234.815 160.175 234.343 159.57 234.012 158.778C233.683 157.986 233.521 157.033 233.524 155.919C233.524 154.809 233.688 153.862 234.017 153.08C234.348 152.298 234.82 151.703 235.433 151.295C236.05 150.884 236.784 150.679 237.636 150.679C238.488 150.679 239.22 150.884 239.833 151.295C240.45 151.706 240.924 152.303 241.255 153.085C241.587 153.864 241.751 154.809 241.747 155.919C241.747 157.036 241.582 157.991 241.25 158.783C240.922 159.575 240.451 160.18 239.838 160.597C239.225 161.015 238.491 161.224 237.636 161.224ZM237.636 159.439C238.219 159.439 238.685 159.146 239.033 158.559C239.381 157.972 239.553 157.092 239.55 155.919C239.55 155.147 239.47 154.504 239.311 153.99C239.155 153.476 238.933 153.09 238.645 152.832C238.36 152.573 238.024 152.444 237.636 152.444C237.056 152.444 236.592 152.734 236.244 153.314C235.896 153.894 235.72 154.762 235.717 155.919C235.717 156.701 235.795 157.354 235.95 157.878C236.11 158.398 236.333 158.789 236.622 159.051C236.91 159.31 237.248 159.439 237.636 159.439Z" fill="#5F5F5F"/>
<path d="M225.325 193V191.449L228.95 188.093C229.258 187.795 229.516 187.526 229.725 187.288C229.937 187.049 230.098 186.815 230.207 186.587C230.317 186.355 230.371 186.104 230.371 185.836C230.371 185.538 230.304 185.281 230.168 185.065C230.032 184.847 229.846 184.679 229.611 184.563C229.375 184.444 229.109 184.384 228.81 184.384C228.499 184.384 228.227 184.447 227.995 184.573C227.763 184.699 227.584 184.88 227.458 185.115C227.332 185.35 227.269 185.63 227.269 185.955H225.226C225.226 185.289 225.377 184.711 225.678 184.22C225.98 183.73 226.402 183.35 226.946 183.082C227.49 182.813 228.116 182.679 228.825 182.679C229.554 182.679 230.189 182.808 230.729 183.067C231.273 183.322 231.696 183.677 231.997 184.131C232.299 184.585 232.45 185.105 232.45 185.692C232.45 186.076 232.373 186.456 232.221 186.83C232.072 187.205 231.805 187.621 231.42 188.078C231.036 188.532 230.494 189.077 229.795 189.714L228.308 191.17V191.24H232.584V193H225.325ZM234.546 193L238.767 184.648V184.578H233.85V182.818H240.994V184.603L236.769 193H234.546Z" fill="#5F5F5F"/>
</g>
<defs>
<filter id="filter0_d_415_266" x="0" y="0" width="268" height="255" filterUnits="userSpaceOnUse" color-interpolation-filters="sRGB">
<feFlood flood-opacity="0" result="BackgroundImageFix"/>
<feColorMatrix in="SourceAlpha" type="matrix" values="0 0 0 0 0 0 0 0 0 0 0 0 0 0 0 0 0 0 127 0" result="hardAlpha"/>
<feOffset dy="4"/>
<feGaussianBlur stdDeviation="2"/>
<feComposite in2="hardAlpha" operator="out"/>
<feColorMatrix type="matrix" values="0 0 0 0 0 0 0 0 0 0 0 0 0 0 0 0 0 0 0.25 0"/>
<feBlend mode="normal" in2="BackgroundImageFix" result="effect1_dropShadow_415_266"/>
<feBlend mode="normal" in="SourceGraphic" in2="effect1_dropShadow_415_266" result="shape"/>
</filter>
<filter id="filter1_i_415_266" x="89" y="142" width="27" height="31" filterUnits="userSpaceOnUse" color-interpolation-filters="sRGB">
<feFlood flood-opacity="0" result="BackgroundImageFix"/>
<feBlend mode="normal" in="SourceGraphic" in2="BackgroundImageFix" result="shape"/>
<feColorMatrix in="SourceAlpha" type="matrix" values="0 0 0 0 0 0 0 0 0 0 0 0 0 0 0 0 0 0 127 0" result="hardAlpha"/>
<feOffset dy="4"/>
<feGaussianBlur stdDeviation="2"/>
<feComposite in2="hardAlpha" operator="arithmetic" k2="-1" k3="1"/>
<feColorMatrix type="matrix" values="0 0 0 0 0 0 0 0 0 0 0 0 0 0 0 0 0 0 0.12 0"/>
<feBlend mode="normal" in2="shape" result="effect1_innerShadow_415_266"/>
</filter>
<linearGradient id="paint0_linear_415_266" x1="200.574" y1="132" x2="204.632" y2="114.704" gradientUnits="userSpaceOnUse">
<stop stop-color="#9BD1FA"/>
<stop offset="1" stop-color="#98ABEB"/>
</linearGradient>
</defs>
</svg>
