<svg width="73" height="57" viewBox="0 0 73 57" fill="none" xmlns="http://www.w3.org/2000/svg">
<path d="M56.0607 53.5565C64.952 53.5565 72.065 46.4435 72.065 37.5523C72.065 30.6616 67.6193 24.66 61.3955 22.5483C61.3955 22.2149 61.3955 21.8815 61.3955 21.548C61.3955 11.7677 53.5045 3.76556 43.613 3.76556C37.0557 3.76556 31.2764 7.4332 28.2756 12.7679C26.6085 11.5454 24.4968 10.8786 22.274 10.8786C16.3836 10.8786 11.6045 15.6576 11.6045 21.548C11.6045 22.9929 11.938 24.2154 12.3825 25.438C5.82523 26.7716 0.935044 32.5509 0.935044 39.3305C0.935044 47.2215 7.38119 53.5565 15.161 53.5565H56.0607ZM47.2806 29.439C48.392 30.5504 48.392 32.2175 47.2806 33.2178C46.2804 34.3292 44.6133 34.3292 43.613 33.2178L39.1674 28.8833V43.7761C39.1674 45.3321 38.056 46.4435 36.5 46.4435C35.0552 46.4435 33.8326 45.3321 33.8326 43.7761V28.8833L29.4981 33.2178C28.4979 34.3292 26.8308 34.3292 25.8305 33.2178C24.7191 32.2175 24.7191 30.5504 25.8305 29.439L34.7218 20.5478C35.722 19.5475 37.3891 19.5475 38.3894 20.5478L47.2806 29.439Z" fill="#D0DBEA"/>
</svg>
