<svg width="177" height="36" viewBox="0 0 177 36" fill="none" xmlns="http://www.w3.org/2000/svg">
<rect width="177" height="36" rx="10" fill="#195BA5"/>
<path d="M22.5 18.5C22.5 15.7656 24.7266 13.5 27.5 13.5C30.2344 13.5 32.5 15.7656 32.5 18.5C32.5 21.2734 30.2344 23.5 27.5 23.5C24.7266 23.5 22.5 21.2734 22.5 18.5ZM27.5 21.625C29.2188 21.625 30.625 20.2578 30.625 18.5C30.625 16.7812 29.2188 15.375 27.5 15.375C27.4609 15.375 27.4219 15.375 27.3828 15.375C27.4609 15.6094 27.5 15.8047 27.5 16C27.5 17.4062 26.3672 18.5 25 18.5C24.7656 18.5 24.5703 18.5 24.375 18.4219C24.375 18.4609 24.375 18.5 24.375 18.5C24.375 20.2578 25.7422 21.625 27.5 21.625ZM19.9609 12.9141C21.7969 11.1953 24.3359 9.75 27.5 9.75C30.625 9.75 33.1641 11.1953 35 12.9141C36.8359 14.5938 38.0469 16.625 38.6328 18.0312C38.75 18.3438 38.75 18.6953 38.6328 19.0078C38.0469 20.375 36.8359 22.4062 35 24.125C33.1641 25.8438 30.625 27.25 27.5 27.25C24.3359 27.25 21.7969 25.8438 19.9609 24.125C18.125 22.4062 16.9141 20.375 16.3281 19.0078C16.2109 18.6953 16.2109 18.3438 16.3281 18.0312C16.9141 16.625 18.125 14.5938 19.9609 12.9141ZM27.5 11.625C24.9219 11.625 22.8516 12.7969 21.25 14.2812C19.7266 15.6875 18.7109 17.3281 18.1641 18.5C18.7109 19.6719 19.7266 21.3516 21.25 22.7578C22.8516 24.2422 24.9219 25.375 27.5 25.375C30.0391 25.375 32.1094 24.2422 33.7109 22.7578C35.2344 21.3516 36.25 19.6719 36.7969 18.5C36.25 17.3281 35.2344 15.6875 33.7109 14.2812C32.1094 12.7969 30.0391 11.625 27.5 11.625Z" fill="#FFFDFD"/>
<path d="M55.816 24L50.92 12.8H53.176L57.544 22.928H56.248L60.664 12.8H62.744L57.864 24H55.816ZM63.812 24V15.456H65.812V24H63.812ZM64.82 14.048C64.4467 14.048 64.1373 13.9307 63.892 13.696C63.6573 13.4613 63.54 13.1787 63.54 12.848C63.54 12.5067 63.6573 12.224 63.892 12C64.1373 11.7653 64.4467 11.648 64.82 11.648C65.1933 11.648 65.4973 11.76 65.732 11.984C65.9773 12.1973 66.1 12.4693 66.1 12.8C66.1 13.152 65.9827 13.4507 65.748 13.696C65.5133 13.9307 65.204 14.048 64.82 14.048ZM72.453 24.112C71.5037 24.112 70.6717 23.9253 69.957 23.552C69.253 23.168 68.7037 22.6453 68.309 21.984C67.925 21.3227 67.733 20.5707 67.733 19.728C67.733 18.8747 67.9197 18.1227 68.293 17.472C68.677 16.8107 69.1997 16.2933 69.861 15.92C70.533 15.5467 71.2957 15.36 72.149 15.36C72.981 15.36 73.7223 15.5413 74.373 15.904C75.0237 16.2667 75.5357 16.7787 75.909 17.44C76.2823 18.1013 76.469 18.88 76.469 19.776C76.469 19.8613 76.4637 19.9573 76.453 20.064C76.453 20.1707 76.4477 20.272 76.437 20.368H69.317V19.04H75.381L74.597 19.456C74.6077 18.9653 74.5063 18.5333 74.293 18.16C74.0797 17.7867 73.7863 17.4933 73.413 17.28C73.0503 17.0667 72.629 16.96 72.149 16.96C71.6583 16.96 71.2263 17.0667 70.853 17.28C70.4903 17.4933 70.2023 17.792 69.989 18.176C69.7863 18.5493 69.685 18.992 69.685 19.504V19.824C69.685 20.336 69.8023 20.7893 70.037 21.184C70.2717 21.5787 70.6023 21.8827 71.029 22.096C71.4557 22.3093 71.9463 22.416 72.501 22.416C72.981 22.416 73.413 22.3413 73.797 22.192C74.181 22.0427 74.5223 21.808 74.821 21.488L75.893 22.72C75.509 23.168 75.0237 23.5147 74.437 23.76C73.861 23.9947 73.1997 24.112 72.453 24.112ZM80.1219 24L76.9859 15.456H78.8739L81.5619 22.992H80.6659L83.4819 15.456H85.1619L87.8979 22.992H87.0179L89.7859 15.456H91.5619L88.4099 24H86.4899L83.9939 17.328H84.5859L82.0419 24H80.1219ZM97.5509 24V12.8H102.159C103.151 12.8 103.999 12.96 104.703 13.28C105.418 13.6 105.967 14.0587 106.351 14.656C106.735 15.2533 106.927 15.9627 106.927 16.784C106.927 17.6053 106.735 18.3147 106.351 18.912C105.967 19.4987 105.418 19.952 104.703 20.272C103.999 20.5813 103.151 20.736 102.159 20.736H98.7029L99.6309 19.792V24H97.5509ZM104.879 24L102.047 19.936H104.271L107.119 24H104.879ZM99.6309 20.016L98.7029 19.024H102.063C102.98 19.024 103.668 18.8267 104.127 18.432C104.596 18.0373 104.831 17.488 104.831 16.784C104.831 16.0693 104.596 15.52 104.127 15.136C103.668 14.752 102.98 14.56 102.063 14.56H98.7029L99.6309 13.536V20.016ZM113.078 24.112C112.129 24.112 111.297 23.9253 110.582 23.552C109.878 23.168 109.329 22.6453 108.934 21.984C108.55 21.3227 108.358 20.5707 108.358 19.728C108.358 18.8747 108.545 18.1227 108.918 17.472C109.302 16.8107 109.825 16.2933 110.486 15.92C111.158 15.5467 111.921 15.36 112.774 15.36C113.606 15.36 114.347 15.5413 114.998 15.904C115.649 16.2667 116.161 16.7787 116.534 17.44C116.907 18.1013 117.094 18.88 117.094 19.776C117.094 19.8613 117.089 19.9573 117.078 20.064C117.078 20.1707 117.073 20.272 117.062 20.368H109.942V19.04H116.006L115.222 19.456C115.233 18.9653 115.131 18.5333 114.918 18.16C114.705 17.7867 114.411 17.4933 114.038 17.28C113.675 17.0667 113.254 16.96 112.774 16.96C112.283 16.96 111.851 17.0667 111.478 17.28C111.115 17.4933 110.827 17.792 110.614 18.176C110.411 18.5493 110.31 18.992 110.31 19.504V19.824C110.31 20.336 110.427 20.7893 110.662 21.184C110.897 21.5787 111.227 21.8827 111.654 22.096C112.081 22.3093 112.571 22.416 113.126 22.416C113.606 22.416 114.038 22.3413 114.422 22.192C114.806 22.0427 115.147 21.808 115.446 21.488L116.518 22.72C116.134 23.168 115.649 23.5147 115.062 23.76C114.486 23.9947 113.825 24.112 113.078 24.112ZM123.751 24.112C123.058 24.112 122.423 23.952 121.847 23.632C121.282 23.312 120.828 22.832 120.487 22.192C120.156 21.5413 119.991 20.72 119.991 19.728C119.991 18.7253 120.151 17.904 120.471 17.264C120.802 16.624 121.25 16.1493 121.815 15.84C122.38 15.52 123.026 15.36 123.751 15.36C124.594 15.36 125.335 15.5413 125.975 15.904C126.626 16.2667 127.138 16.7733 127.511 17.424C127.895 18.0747 128.087 18.8427 128.087 19.728C128.087 20.6133 127.895 21.3867 127.511 22.048C127.138 22.6987 126.626 23.2053 125.975 23.568C125.335 23.9307 124.594 24.112 123.751 24.112ZM119.015 27.104V15.456H120.919V17.472L120.855 19.744L121.015 22.016V27.104H119.015ZM123.527 22.4C124.007 22.4 124.434 22.2933 124.807 22.08C125.191 21.8667 125.495 21.5573 125.719 21.152C125.943 20.7467 126.055 20.272 126.055 19.728C126.055 19.1733 125.943 18.6987 125.719 18.304C125.495 17.8987 125.191 17.5893 124.807 17.376C124.434 17.1627 124.007 17.056 123.527 17.056C123.047 17.056 122.615 17.1627 122.231 17.376C121.847 17.5893 121.543 17.8987 121.319 18.304C121.095 18.6987 120.983 19.1733 120.983 19.728C120.983 20.272 121.095 20.7467 121.319 21.152C121.543 21.5573 121.847 21.8667 122.231 22.08C122.615 22.2933 123.047 22.4 123.527 22.4ZM133.824 24.112C132.949 24.112 132.171 23.9253 131.488 23.552C130.805 23.168 130.267 22.6453 129.872 21.984C129.477 21.3227 129.28 20.5707 129.28 19.728C129.28 18.8747 129.477 18.1227 129.872 17.472C130.267 16.8107 130.805 16.2933 131.488 15.92C132.171 15.5467 132.949 15.36 133.824 15.36C134.709 15.36 135.493 15.5467 136.176 15.92C136.869 16.2933 137.408 16.8053 137.792 17.456C138.187 18.1067 138.384 18.864 138.384 19.728C138.384 20.5707 138.187 21.3227 137.792 21.984C137.408 22.6453 136.869 23.168 136.176 23.552C135.493 23.9253 134.709 24.112 133.824 24.112ZM133.824 22.4C134.315 22.4 134.752 22.2933 135.136 22.08C135.52 21.8667 135.819 21.5573 136.032 21.152C136.256 20.7467 136.368 20.272 136.368 19.728C136.368 19.1733 136.256 18.6987 136.032 18.304C135.819 17.8987 135.52 17.5893 135.136 17.376C134.752 17.1627 134.32 17.056 133.84 17.056C133.349 17.056 132.912 17.1627 132.528 17.376C132.155 17.5893 131.856 17.8987 131.632 18.304C131.408 18.6987 131.296 19.1733 131.296 19.728C131.296 20.272 131.408 20.7467 131.632 21.152C131.856 21.5573 132.155 21.8667 132.528 22.08C132.912 22.2933 133.344 22.4 133.824 22.4ZM140.296 24V15.456H142.2V17.808L141.976 17.12C142.232 16.544 142.632 16.1067 143.176 15.808C143.731 15.5093 144.419 15.36 145.24 15.36V17.264C145.155 17.2427 145.075 17.232 145 17.232C144.926 17.2213 144.851 17.216 144.776 17.216C144.019 17.216 143.416 17.44 142.968 17.888C142.52 18.3253 142.296 18.9813 142.296 19.856V24H140.296ZM150.466 24.112C149.527 24.112 148.802 23.872 148.289 23.392C147.778 22.9013 147.522 22.1813 147.522 21.232V13.568H149.522V21.184C149.522 21.5893 149.623 21.904 149.826 22.128C150.039 22.352 150.332 22.464 150.706 22.464C151.154 22.464 151.527 22.3467 151.826 22.112L152.386 23.536C152.151 23.728 151.863 23.872 151.522 23.968C151.18 24.064 150.828 24.112 150.466 24.112ZM146.114 17.12V15.52H151.81V17.12H146.114ZM156.671 24.112C155.956 24.112 155.268 24.0213 154.607 23.84C153.956 23.648 153.439 23.4187 153.055 23.152L153.823 21.632C154.207 21.8773 154.665 22.08 155.199 22.24C155.732 22.4 156.265 22.48 156.799 22.48C157.428 22.48 157.881 22.3947 158.159 22.224C158.447 22.0533 158.591 21.824 158.591 21.536C158.591 21.3013 158.495 21.1253 158.303 21.008C158.111 20.88 157.86 20.784 157.551 20.72C157.241 20.656 156.895 20.5973 156.511 20.544C156.137 20.4907 155.759 20.4213 155.375 20.336C155.001 20.24 154.66 20.1067 154.351 19.936C154.041 19.7547 153.791 19.5147 153.599 19.216C153.407 18.9173 153.311 18.5227 153.311 18.032C153.311 17.488 153.465 17.0187 153.775 16.624C154.084 16.2187 154.516 15.9093 155.071 15.696C155.636 15.472 156.303 15.36 157.071 15.36C157.647 15.36 158.228 15.424 158.815 15.552C159.401 15.68 159.887 15.8613 160.271 16.096L159.503 17.616C159.097 17.3707 158.687 17.2053 158.271 17.12C157.865 17.024 157.46 16.976 157.055 16.976C156.447 16.976 155.993 17.0667 155.695 17.248C155.407 17.4293 155.263 17.6587 155.263 17.936C155.263 18.192 155.359 18.384 155.551 18.512C155.743 18.64 155.993 18.7413 156.303 18.816C156.612 18.8907 156.953 18.9547 157.327 19.008C157.711 19.0507 158.089 19.12 158.463 19.216C158.836 19.312 159.177 19.4453 159.487 19.616C159.807 19.776 160.063 20.0053 160.255 20.304C160.447 20.6027 160.543 20.992 160.543 21.472C160.543 22.0053 160.383 22.4693 160.063 22.864C159.753 23.2587 159.311 23.568 158.735 23.792C158.159 24.0053 157.471 24.112 156.671 24.112Z" fill="#FFFDFD"/>
</svg>
