<svg width="36" height="34" viewBox="0 0 36 34" fill="none" xmlns="http://www.w3.org/2000/svg">
<g id="Frame 793">
<g id="Group">
<path id="Vector" opacity="0.2" d="M32.056 32.6403H3.94528C1.91717 32.6403 0.644376 30.3946 1.6295 28.5756L15.6849 2.75795C16.6973 0.887973 19.304 0.887973 20.3164 2.75795L34.3717 28.5756C35.3569 30.3946 34.0841 32.6403 32.056 32.6403Z" fill="#EC9C24"/>
<path id="Vector_2" d="M35.4856 27.8951L21.4319 2.07749C21.0807 1.44497 20.5793 0.920515 19.9775 0.556109C19.3757 0.191704 18.6943 0 18.0008 0C17.3074 0 16.6259 0.191704 16.0241 0.556109C15.4223 0.920515 14.9209 1.44497 14.5697 2.07749L0.515983 27.8951C0.178076 28.5069 0 29.2028 0 29.9113C0 30.6199 0.178076 31.3157 0.515983 31.9275C0.862675 32.5638 1.36318 33.0912 1.96613 33.4553C2.56909 33.8195 3.25278 34.0074 3.94706 33.9998H32.0545C32.7483 34.0068 33.4313 33.8186 34.0336 33.4545C34.636 33.0903 35.136 32.5633 35.4824 31.9275C35.8208 31.316 35.9994 30.6203 36 29.9118C36.0006 29.2032 35.823 28.5072 35.4856 27.8951ZM33.2566 30.5658C33.1341 30.7869 32.9582 30.9695 32.747 31.095C32.5357 31.2205 32.2968 31.2842 32.0545 31.2798H3.94706C3.70484 31.2842 3.46586 31.2205 3.25462 31.095C3.04339 30.9695 2.86749 30.7869 2.74498 30.5658C2.634 30.3671 2.57546 30.1405 2.57546 29.9096C2.57546 29.6788 2.634 29.4522 2.74498 29.2534L16.7987 3.43578C16.9237 3.21575 17.1004 3.03369 17.3116 2.90729C17.5228 2.78089 17.7614 2.71446 18.004 2.71446C18.2467 2.71446 18.4852 2.78089 18.6964 2.90729C18.9076 3.03369 19.0843 3.21575 19.2093 3.43578L33.2631 29.2534C33.3731 29.4528 33.4305 29.6797 33.4294 29.9105C33.4282 30.1414 33.3686 30.3677 33.2566 30.5658ZM16.7152 20.3999V13.6C16.7152 13.2393 16.8506 12.8934 17.0917 12.6383C17.3328 12.3833 17.6598 12.24 18.0008 12.24C18.3418 12.24 18.6688 12.3833 18.9099 12.6383C19.151 12.8934 19.2865 13.2393 19.2865 13.6V20.3999C19.2865 20.7606 19.151 21.1065 18.9099 21.3616C18.6688 21.6166 18.3418 21.7599 18.0008 21.7599C17.6598 21.7599 17.3328 21.6166 17.0917 21.3616C16.8506 21.1065 16.7152 20.7606 16.7152 20.3999ZM19.9293 26.5199C19.9293 26.9233 19.8162 27.3177 19.6043 27.6532C19.3924 27.9887 19.0912 28.2501 18.7388 28.4045C18.3864 28.5589 17.9987 28.5993 17.6246 28.5206C17.2505 28.4419 16.9069 28.2476 16.6372 27.9623C16.3675 27.677 16.1838 27.3135 16.1094 26.9178C16.035 26.5221 16.0732 26.1119 16.2191 25.7392C16.3651 25.3664 16.6123 25.0478 16.9294 24.8237C17.2465 24.5995 17.6194 24.4799 18.0008 24.4799C18.5123 24.4799 19.0028 24.6948 19.3644 25.0774C19.7261 25.4599 19.9293 25.9788 19.9293 26.5199Z" fill="#EC9C24"/>
</g>
</g>
</svg>
